<?xml version="1.0" encoding="utf-8"?>
<!-- Generator: Adobe Illustrator 25.3.1, SVG Export Plug-In . SVG Version: 6.00 Build 0)  -->
<svg version="1.1" id="Camada_1" xmlns="http://www.w3.org/2000/svg" xmlns:xlink="http://www.w3.org/1999/xlink" x="0px" y="0px"
	 viewBox="0 0 221.3 247.9" style="enable-background:new 0 0 221.3 247.9;" xml:space="preserve">
<style type="text/css">
	.st0{fill:#666666;}
	.st1{fill:#E01747;}
</style>
<g>
	<path class="st0" d="M134.4,201.4c-3.3,17.7-12.8,26.9-27.5,26.6c-14.3-0.3-23.8-9.9-26.3-26.6c-0.8,0-1.7,0-2.6,0
		c-14.7,0-29.3,0-44,0c-11,0-18.7-4.9-21.6-13.9c-3-9.1,0.8-20,8.9-25.9c0.9-0.7,1.9-1.3,3-1.9c6-3,8.6-8,8.5-14.6
		c-0.1-9.9-0.1-19.8,0-29.7C33.3,83.9,52.2,57.1,81.6,46c3.1-1.2,6.3-2,9.7-3.1c-2.7-5.3-3.2-10.7-1.2-16.2c1.4-3.7,3.8-6.6,7-8.9
		c6.5-4.4,15.3-4.2,21.5,0.5c7.3,5.4,8.9,13,5.3,24.4c4.3,1.5,8.7,2.6,12.8,4.5c28.4,13.2,43.7,35.5,45.2,66.9
		c0.5,10.2,0.2,20.5,0.1,30.7c-0.1,6.8,2.7,11.6,8.6,14.8c9.2,5,14.2,15.3,12.4,24.9c-1.8,9.8-9.8,16.6-19.9,16.6
		c-15.3,0.1-30.7,0-46,0C136.3,201.4,135.4,201.4,134.4,201.4z M107.5,190.8c16.1,0,32.2,0,48.2,0c9,0,18,0,27,0
		c6.9,0,11-4.9,9.9-11.7c-0.7-4.7-3.4-8-7.5-10.3c-9.2-5-13.7-12.8-13.6-23.2c0-9,0.1-18,0-27c-0.1-4.5-0.3-9-1-13.4
		C165.2,72,133,48,99.7,52.5C66.9,57,43.6,83.7,43.5,116.7c0,10.1,0.1,20.2,0,30.2c-0.2,9.3-4.4,16.4-12.4,21.2
		c-1.3,0.8-2.8,1.6-4,2.5c-4,3.3-5.9,9.3-4.4,13.7c1.5,4.3,5,6.3,11.3,6.3C58.5,190.8,83,190.8,107.5,190.8z M91.6,201.5
		c0.1,9,7.4,16.1,16.4,15.9c8.5-0.2,15.7-7.6,15.4-15.9C112.8,201.5,102.3,201.5,91.6,201.5z M107.4,41.4c4.4,0,8-3.5,8-7.9
		c0.1-4.5-3.6-8.1-8.1-8.1c-4.3,0-7.9,3.6-7.9,8C99.5,37.8,103.1,41.3,107.4,41.4z"/>
</g>
<circle class="st1" cx="57" cy="65.1" r="22.7"/>
</svg>
