<?xml version="1.0" encoding="utf-8"?>
<!-- Generator: Adobe Illustrator 25.3.1, SVG Export Plug-In . SVG Version: 6.00 Build 0)  -->
<svg version="1.1" id="Camada_1" xmlns="http://www.w3.org/2000/svg" xmlns:xlink="http://www.w3.org/1999/xlink" x="0px" y="0px"
	 viewBox="0 0 315.3 235.9" style="enable-background:new 0 0 315.3 235.9;" xml:space="preserve">
<style type="text/css">
	.st0{fill:#666666;}
</style>
<g>
	<path class="st0" d="M265.6,40.9c5.3,0,10.3,0,15.3,0c4.8,0,6.6,1.7,6.6,6.4c0,51.9,0,103.8,0,155.7c0,5.4-3.5,7.5-8.2,5.2
		c-13.8-6.8-28.4-10.9-43.5-13.2c-10.6-1.7-21.2-2.3-31.9-2.1c-12.4,0.2-24.8,1.6-36.9,4.5c-5.2,1.3-10.1,1.1-15.2,0
		c-31-6.9-61.8-6-92.3,3.2c-6.7,2-13.2,4.9-19.7,7.7c-4.9,2.1-8.3,0.1-8.3-5.3c0-51.9,0-103.8,0-155.7c0-4.6,1.7-6.4,6.3-6.4
		c5,0,10,0,15.3,0c0-1.8,0-3.5,0-5.1c0.1-3.6,1.4-5,4.9-5.9c16.4-4.2,33-5.4,49.8-3.3c19.2,2.3,36.6,9,50.6,23
		c0.2,0.2,0.5,0.4,0.8,0.7c0.3-0.2,0.7-0.4,1-0.7c13.4-13.1,29.7-19.9,48-22.5c17.9-2.6,35.5-1.3,53,3c2.9,0.7,4.2,2.3,4.3,5.3
		C265.7,37,265.6,38.7,265.6,40.9z M63.2,39c0,43.6,0,87,0,130.5c31.7-3.2,62.7-2.8,91.2,13.9c0.1-0.4,0.1-0.6,0.1-0.8
		c0-40.3,0-80.7-0.1-121c0-0.9-0.6-2.1-1.2-2.8c-7.3-8-16.3-13.7-26.5-17.4C105.8,34,84.7,34.6,63.2,39z M255.7,39
		c-16.7-3.5-33.3-4.5-50-1.2c-15.2,3-28.6,9.2-39.5,20.4c-1.3,1.3-1.8,2.6-1.8,4.4c0.1,39.3,0,78.6,0,117.9c0,0.9,0,1.8,0,3
		c1.2-0.7,2.1-1.2,2.9-1.6c6.9-4,14.2-6.9,21.9-9c19.1-5.3,38.6-5.9,58.2-4.1c2.7,0.3,5.4,0.5,8.3,0.7
		C255.7,125.9,255.7,82.6,255.7,39z M130.3,183.7c-0.6-0.2-0.8-0.4-1.1-0.5c-9.7-3.1-19.7-4.8-29.9-5.3c-13.3-0.6-26.5,0.2-39.6,2.1
		c-3.8,0.5-6.1-1.4-6.3-5.2c-0.1-0.9,0-1.8,0-2.7c0-39.3,0-78.7,0-118c0-1,0-2.1,0-3.1c-4.2,0-7.9,0-11.6,0c0,48.5,0,96.7,0,145
		C82.5,183.2,82,182.7,130.3,183.7z M277.5,196.4c0-48.8,0-97.1,0-145.4c-3.9,0-7.6,0-11.6,0c0,1.2,0,2.3,0,3.3
		c0,39.8,0,79.7,0,119.5c0,4.8-2,6.6-6.8,6.2c-0.7-0.1-1.5-0.1-2.2-0.2c-18.8-2.4-37.7-3.1-56.4,0.7c-2,0.4-4.1,0.9-6.1,1.4
		c-1.9,0.5-3.8,1.1-5.6,1.6C219.3,180.6,248.7,184.9,277.5,196.4z"/>
</g>
</svg>
