<?xml version="1.0" encoding="utf-8"?>
<!-- Generator: Adobe Illustrator 25.3.1, SVG Export Plug-In . SVG Version: 6.00 Build 0)  -->
<svg version="1.1" id="Camada_1" xmlns="http://www.w3.org/2000/svg" xmlns:xlink="http://www.w3.org/1999/xlink" x="0px" y="0px"
	 viewBox="0 0 297.3 252.9" style="enable-background:new 0 0 297.3 252.9;" xml:space="preserve">
<style type="text/css">
	.st0{fill:#E01747;}
</style>
<g>
	<path class="st0" d="M257.2,219.7c-0.2,1.7-0.3,3.1-0.6,4.5c-1.1,4.9-5.6,8.7-10.7,9c-0.9,0-1.8,0-2.7,0c-53.2,0-106.3,0-159.5,0
		c-0.8,0-1.7,0-2.5,0c-2.1-0.2-3.4-1.3-3.6-3.4c-0.2-2.1,1.2-3.7,3.3-4c0.9-0.1,1.8-0.1,2.7-0.1c53.4,0,106.8,0,160.2,0
		c4.3,0,6-1.9,5.2-5.8c-66.9,0-133.9,0-200.9,0c-1,3.2,0.6,5.7,3.9,5.8c4.6,0.1,9.2,0,13.7,0.1c1.9,0,3.7,0.9,3.8,2.9
		c0.1,1.3-0.8,2.8-1.6,4c-0.4,0.5-1.7,0.6-2.6,0.6c-4.2,0.1-8.3,0-12.5,0c-7.6,0-12.1-4.2-12.8-11.8c0-0.5-0.1-1-0.2-1.7
		c-1.5,0-2.9,0-4.3,0c-9.3-0.1-15.1-5.9-15.1-15.2c0-28.3,0-56.7,0-85c0-16.5,0-33,0-49.5c0-9.5,5.9-15.4,15.4-15.4c1.6,0,3.1,0,5,0
		c0-1.5,0-2.8,0-4.1c0.1-5.5,4-9.4,9.5-9.5c6.4-0.1,12.8-0.1,19.2,0c5.7,0.1,9.5,3.9,9.7,9.6c0,1.2,0,2.5,0,4c2.3,0,4.5,0.2,6.6-0.1
		c0.8-0.1,1.6-1,2.2-1.7c6-8.3,11.7-16.6,17.2-24.9c3.7-5.5,8.6-8.3,15.3-8.1c4.8,0.2,9.7,0,14.5,0c2.8,0,4.4,1.4,4.5,3.6
		c0.1,2.3-1.7,3.8-4.6,3.9c-5.2,0-10.5,0-15.7,0c-2.9,0-5.2,1.1-6.8,3.4c-5.2,7.5-10.3,15.1-15.5,22.7c-0.1,0.2-0.1,0.4-0.3,0.8
		c34.7,0,69.3,0,104.2,0c-0.4-0.6-0.6-1.1-0.9-1.6c-4.8-7-9.6-14-14.3-21.1c-2-3-4.6-4.4-8.2-4.3c-8.2,0.1-16.3,0-24.5,0
		c-0.7,0-1.5,0-2.2,0c-2.3-0.3-3.7-1.9-3.6-4c0.1-2,1.5-3.4,3.8-3.4c7.1-0.1,14.2,0.5,21.2-0.1c10.4-0.9,17.5,2.9,22.7,11.9
		c4,7.1,9.2,13.5,13.7,20.3c1.2,1.8,2.4,2.5,4.6,2.5c16-0.1,32-0.1,48-0.1c9.7,0,15.6,5.8,15.6,15.5c0,44.7,0,89.3,0,134
		c0,9.8-5.8,15.6-15.5,15.6C259.9,219.7,258.7,219.7,257.2,219.7z M201.9,95.6c1,1.3,1.7,2.4,2.5,3.5c6.2,8.9,10.1,18.7,11.5,29.5
		c0.3,2.5-0.8,4.3-2.9,4.7c-2.1,0.4-3.8-0.9-4.4-3.4c-0.1-0.5-0.2-1-0.3-1.5c-4.3-27.4-27-48.6-54.6-50.8
		c-39-3.1-70.5,30.9-64.6,69.5c4.2,27.5,27.7,49.2,55.1,50.8c29.2,1.8,55-16.3,62.6-44.1c0.9-3.2,1.3-6.5,1.9-9.8
		c0.4-2.2,2-3.4,4.1-3.2c2,0.2,3.4,1.7,3.4,3.9c0,1-0.2,2-0.4,3c-5.3,38-42.8,64.3-80.4,56.5c-49-10.2-70.6-66.6-41.1-107.1
		c0.4-0.5,0.6-1,1.1-1.7c-22.5,0-44.7,0-67.1,0c0,1,0,1.8,0,2.6c0,35.2,0,70.5,0,105.7c0,5.7,2.4,8.2,8.2,8.2
		c74.8,0,149.6,0,224.5,0c5.9,0,8.3-2.4,8.3-8.3c0-35.2,0-70.3,0-105.5c0-0.9,0-1.8,0-2.7C246.7,95.6,224.5,95.6,201.9,95.6z
		 M269.1,87.9c0-5.9,0-11.4,0-17c0-6.6-2.2-8.9-8.8-8.9c-74.5,0-149,0-223.4,0c-0.8,0-1.7,0-2.5,0c-3.2,0.3-6,2.5-6.1,5.6
		c-0.2,6.6-0.1,13.3-0.1,20c0.6,0.1,1.1,0.1,1.6,0.1c23.7,0,47.5,0,71.2,0c1,0,2.3-0.6,3.1-1.3c25.9-22.1,62.8-22.2,88.7-0.3
		c1.1,1,2.9,1.6,4.4,1.6c23,0.1,46,0.1,69,0.1C267.1,87.9,268,87.9,269.1,87.9z M71.9,54.5c0-0.8,0.1-1.4,0.1-2c0-3.7-0.2-4-3.9-4
		c-4.7,0-9.5,0-14.2,0c-5.6,0-5.6,0-5.3,5.5c0,0.1,0.1,0.3,0.3,0.5C56.5,54.5,64.1,54.5,71.9,54.5z"/>
	<path class="st0" d="M199.7,137.8c0,28.2-23,51.2-51.2,51.2c-28.1,0-51-22.9-51-51.1c-0.1-28.2,22.8-51.2,51-51.3
		C176.8,86.6,199.7,109.6,199.7,137.8z M105.1,137.8c0,24,19.5,43.6,43.5,43.7s43.6-19.5,43.7-43.5c0.1-24.2-19.5-43.8-43.6-43.8
		S105.1,113.7,105.1,137.8z"/>
	<path class="st0" d="M58.6,195.4c0,2.8-1.4,4.6-3.7,4.7c-2.3,0-3.8-1.8-3.8-4.5c0-2.8,1.4-4.5,3.8-4.5
		C57.2,191,58.6,192.7,58.6,195.4z"/>
	<path class="st0" d="M246.1,195.4c0,2.8-1.5,4.6-3.7,4.6c-2.3,0-3.8-1.8-3.8-4.6c0-2.7,1.3-4.3,3.6-4.4
		C244.7,190.9,246.1,192.6,246.1,195.4z"/>
	<path class="st0" d="M241.4,78.7c-1.9,0-3.8,0.1-5.7,0c-2.3-0.1-3.6-1.5-3.7-3.6c0-2.1,1.3-3.7,3.5-3.8c4-0.2,8-0.2,12,0
		c2.2,0.1,3.6,1.8,3.6,3.7c0,2-1.6,3.5-3.9,3.7c-0.2,0-0.3,0-0.5,0C244.9,78.7,243.2,78.7,241.4,78.7L241.4,78.7z"/>
	<path class="st0" d="M116.5,135.7c0.9-16.3,14.9-29.9,31-30.1c3.4-0.1,5.4,2,4.6,4.8c-0.7,2.2-2.4,2.6-4.5,2.7
		c-11.7,0.6-21,8.6-23.3,20.1c-0.3,1.3-0.3,2.6-0.4,4c-0.3,2.9-1.8,4.5-4.1,4.4c-2.3-0.1-3.5-1.9-3.5-4.9
		C116.5,136.4,116.5,136,116.5,135.7z"/>
</g>
</svg>
