<?xml version="1.0" encoding="utf-8"?>
<!-- Generator: Adobe Illustrator 25.3.1, SVG Export Plug-In . SVG Version: 6.00 Build 0)  -->
<svg version="1.1" xmlns="http://www.w3.org/2000/svg" xmlns:xlink="http://www.w3.org/1999/xlink" x="0px" y="0px"
	 viewBox="0 0 756.9 756.9" style="enable-background:new 0 0 756.9 756.9;" xml:space="preserve">
<style type="text/css">
	.st0{fill:#010201;}
	.st1{fill:#FFFFFF;}
</style>
<g id="Background">
</g>
<g id="Graphic_Elements">
	<g>
		<path class="st0" d="M717.3,378.5c0-187.1-151.7-338.8-338.8-338.8S39.6,191.3,39.6,378.5c0,169.1,123.9,309.3,285.9,334.7V476.4
			h-86v-97.9h86v-74.6c0-84.9,50.6-131.8,128-131.8c37.1,0,75.8,6.6,75.8,6.6V262h-42.7c-42.1,0-55.2,26.1-55.2,52.9v63.6h94
			l-15,97.9h-79v236.8C593.4,687.8,717.3,547.6,717.3,378.5z"/>
		<path class="st1" d="M510.4,476.4l15-97.9h-94v-63.6c0-26.8,13.1-52.9,55.2-52.9h42.7v-83.4c0,0-38.8-6.6-75.8-6.6
			c-77.4,0-128,46.9-128,131.8v74.6h-86v97.9h86v236.8c17.3,2.7,34.9,4.1,52.9,4.1c18,0,35.7-1.4,52.9-4.1V476.4H510.4z"/>
	</g>
</g>
</svg>
