<?xml version="1.0" encoding="utf-8"?>
<!-- Generator: Adobe Illustrator 25.3.1, SVG Export Plug-In . SVG Version: 6.00 Build 0)  -->
<svg version="1.1" id="Camada_1" xmlns="http://www.w3.org/2000/svg" xmlns:xlink="http://www.w3.org/1999/xlink" x="0px" y="0px"
	 viewBox="0 0 123 123" style="enable-background:new 0 0 123 123;" xml:space="preserve">
<style type="text/css">
	.st0{fill:none;stroke:#E01747;stroke-width:3;stroke-miterlimit:9.9999;}
	.st1{fill:#E01747;}
</style>
<g id="BACKGROUND">
</g>
<g id="OBJECTS">
	<g>
		<ellipse class="st0" cx="61.5" cy="61.5" rx="60" ry="60"/>
		<path class="st1" d="M75.8,30.8H48.5c-9.2,0-16.8,7.5-16.8,16.8v27.3c0,9.2,7.5,16.8,16.8,16.8h27.3c9.2,0,16.8-7.5,16.8-16.8
			V47.5C92.6,38.3,85.1,30.8,75.8,30.8z M87.7,74.7c0,6.6-5.3,11.9-11.9,11.9H48.6c-6.6,0-11.9-5.3-11.9-11.9V47.6
			c0-6.6,5.3-11.9,11.9-11.9h27.1c6.6,0,11.9,5.3,11.9,11.9C87.6,47.6,87.6,74.7,87.7,74.7z"/>
		<path class="st1" d="M62.2,45.2c-8.8,0-16,7.2-16,16s7.2,16,16,16s16-7.2,16-16S71,45.2,62.2,45.2z M62.2,71.6
			c-5.8,0-10.5-4.7-10.5-10.5s4.7-10.5,10.5-10.5s10.4,4.7,10.4,10.5C72.6,66.9,67.9,71.6,62.2,71.6z"/>
		<path class="st1" d="M82.3,44.6c0,2-1.6,3.6-3.6,3.6c-2,0-3.6-1.6-3.6-3.6s1.6-3.6,3.6-3.6S82.3,42.6,82.3,44.6z"/>
	</g>
</g>
<g id="DESIGNED_BY_FREEPIK">
</g>
</svg>
