<?xml version="1.0" encoding="utf-8"?>
<!-- Generator: Adobe Illustrator 25.3.1, SVG Export Plug-In . SVG Version: 6.00 Build 0)  -->
<svg version="1.1" id="Camada_1" xmlns="http://www.w3.org/2000/svg" xmlns:xlink="http://www.w3.org/1999/xlink" x="0px" y="0px"
	 viewBox="0 0 756.9 756.9" style="enable-background:new 0 0 756.9 756.9;" xml:space="preserve">
<style type="text/css">
	.st0{fill:#E01747;}
</style>
<g id="Background">
</g>
<g>
	
		<ellipse transform="matrix(0.7071 -0.7071 0.7071 0.7071 -156.7798 378.5)" class="st0" cx="378.5" cy="378.5" rx="71.1" ry="71.1"/>
	<path class="st0" d="M378.5,39.7c-187.1,0-338.8,151.7-338.8,338.8s151.7,338.8,338.8,338.8s338.8-151.7,338.8-338.8
		S565.6,39.7,378.5,39.7z M590.6,466.5c-1,22.7-4.6,38.2-9.9,51.8c-5.4,14-12.7,25.9-24.6,37.8c-11.9,11.9-23.8,19.1-37.8,24.6
		c-13.6,5.3-29.1,8.9-51.8,9.9c-22.8,1.1-30.1,1.3-88,1.3c-58,0-65.2-0.3-88-1.3c-22.7-1-38.2-4.6-51.8-9.9
		c-14-5.4-25.9-12.7-37.8-24.6c-11.9-11.9-19.1-23.8-24.6-37.8c-5.3-13.6-8.9-29.1-9.9-51.8c-1.1-22.8-1.3-30.1-1.3-88
		c0-58,0.3-65.2,1.3-88c1-22.7,4.6-38.2,9.9-51.8c5.4-14,12.7-25.9,24.6-37.8c11.9-11.9,23.8-19.1,37.8-24.6
		c13.6-5.3,29.1-8.9,51.8-9.9c22.8-1.1,30.1-1.3,88-1.3c57.9,0,65.2,0.3,88,1.3c22.7,1,38.2,4.6,51.8,9.9
		c14,5.4,25.9,12.7,37.8,24.6c11.9,11.9,19.1,23.8,24.6,37.8c5.3,13.6,8.9,29.1,9.9,51.8c1.1,22.8,1.3,30,1.3,88
		S591.6,443.7,590.6,466.5z"/>
	<path class="st0" d="M544.8,252.6c-3.9-9.9-8.5-17-16-24.5c-7.4-7.5-14.5-12.1-24.5-16c-7.5-2.9-18.8-6.4-39.6-7.3
		c-22.5-1-29.2-1.2-86.2-1.2s-63.7,0.2-86.2,1.2c-20.8,0.9-32.1,4.4-39.6,7.3c-9.9,3.9-17,8.5-24.5,16c-7.5,7.4-12.1,14.5-16,24.5
		c-2.9,7.5-6.4,18.8-7.3,39.6c-1,22.5-1.2,29.2-1.2,86.2c0,57,0.2,63.7,1.2,86.2c0.9,20.8,4.4,32.1,7.3,39.6c3.9,9.9,8.5,17,16,24.5
		c7.4,7.5,14.5,12.1,24.5,16c7.5,2.9,18.8,6.4,39.6,7.3c22.5,1,29.2,1.2,86.2,1.2s63.7-0.2,86.2-1.2c20.8-0.9,32.1-4.4,39.6-7.3
		c9.9-3.9,17-8.5,24.5-16c7.5-7.4,12.1-14.5,16-24.5c2.9-7.5,6.4-18.8,7.3-39.6c1-22.5,1.2-29.2,1.2-86.2s-0.2-63.7-1.2-86.2
		C551.2,271.4,547.7,260.1,544.8,252.6z M378.5,488c-60.5,0-109.6-48.9-109.6-109.5c0-60.6,49.1-109.6,109.6-109.6
		S488,318,488,378.5S439,488,378.5,488z M492.3,290.2c-14.1,0-25.6-11.5-25.6-25.6s11.5-25.6,25.6-25.6s25.6,11.5,25.6,25.6
		S506.4,290.2,492.3,290.2z"/>
</g>
</svg>
