<?xml version="1.0" encoding="utf-8"?>
<!-- Generator: Adobe Illustrator 25.3.1, SVG Export Plug-In . SVG Version: 6.00 Build 0)  -->
<svg version="1.1" id="Camada_1" xmlns="http://www.w3.org/2000/svg" xmlns:xlink="http://www.w3.org/1999/xlink" x="0px" y="0px"
	 viewBox="0 0 568.7 580.6" style="enable-background:new 0 0 568.7 580.6;" xml:space="preserve">
<style type="text/css">
	.st0{fill:#E01747;}
</style>
<g>
	<path class="st0" d="M175.6,286c-2.2,2.3-3.9,4.4-5.8,6.2c-5.6,5.1-13.2,4.8-18.9-0.8c-6.1-5.9-6.9-13.8-1.4-19.3
		c15.4-15.7,31.1-31.3,46.7-46.8c2.5-2.5,5.6-2.5,7.7-0.2c2.1,2.3,1.9,5-0.7,7.7c-14.9,15-29.9,30-44.9,44.9c-1.9,1.9-3,3.6-0.7,5.9
		c2.5,2.6,3.8,2.7,6.4,0.2c30.8-30.8,61.6-61.6,92.4-92.4c2.5-2.5,2.4-3.8,0-6.2c-2.2-2.2-4-1.7-6,0.3c-9.5,9.6-19,19.1-28.6,28.6
		c-0.7,0.7-1.4,1.5-2.2,2.1c-2.3,1.8-5.1,1.7-6.9-0.4c-1.9-2.1-1.9-4.4-0.3-6.7c0.2-0.4,0.6-0.7,0.9-1c10.3-10.3,20.6-20.7,31-30.9
		c5.8-5.7,13.5-5.1,19.6,1.1c5.8,5.9,6,13.5,0.5,19.4c-1.5,1.6-3,3.3-4.7,4.7c-1.9,1.5-1.9,2.9-0.9,5.1
		c7.1,15.2,14.1,30.5,21.2,45.7c3.5,7.5,5.2,15.3,5.2,23.6c-0.1,29.3-0.1,58.6,0,87.9c0,11.1,6.2,19.5,16.2,22.2
		c13.1,3.6,26.6-6.1,27.1-19.7c0.2-6,0-12,0-18.4c-1.4,0-2.7,0-4,0c-8-0.2-13.2-5.3-13.3-13.2c-0.1-4.8-0.1-9.6,0-14.4
		c0.2-7.8,5.4-12.9,13.1-13c1.3,0,2.6,0,4.1,0c0-1.4,0-2.6,0-3.9c-1.3,0-2.5,0-3.7,0c-8.1-0.1-13.4-5.4-13.5-13.4
		c-0.1-4.5,0-8.9,0-13.4c0.1-8.8,5.2-13.9,14-13.9c1,0,2,0,3.2,0c0-1.3,0-2.5,0-4c-1.3,0-2.6,0-3.9,0c-7.7-0.1-13-5.3-13.2-13
		c-0.1-4.6-0.1-9.1,0-13.7c0.1-8.9,5.2-14,14.2-14c0.9,0,1.8,0,3.2,0c0-1.6-0.1-3.1,0-4.6c0.4-6,0-12.1,1.3-17.9
		c2.8-12.9,14.2-22.4,27.4-23c12.1-0.5,24.3-0.1,36.4-0.4c2.7-0.1,5.5-0.6,8.1-1.6c9.7-3.8,19.4-7.9,29.1-11.8
		c7.9-3.1,16.2-0.8,20.8,5.9c4.5,6.4,4.2,14.9-1,20.7c-2,2.2-4.8,4-7.6,5.2c-10.3,4.5-20.7,8.8-31.1,12.9c-2.8,1.1-6,1.7-9,1.8
		c-10,0.2-20,0.1-30.1,0.1c-5.2,0-7.5,2.4-7.6,7.6c0,10.9,0,21.8,0,32.8c0,0.9,0,1.8,0,2.7c-0.3,2.8-2.4,4.8-5.1,4.8
		c-2.7,0-4.9-1.9-5-4.8c-0.1-12.9-0.3-25.9,0.1-38.8c0.3-7.9,7.7-14.2,15.9-14.3c9.2-0.1,18.5,0,28.3,0c-1.5-4.1-2.8-8-4.3-11.7
		c-0.2-0.5-1.4-0.9-2.2-0.9c-11.7,0-23.4-0.2-35.1,0.1c-9.5,0.3-17.8,8.8-18.7,18.3c-0.2,2-0.2,4-0.2,6c0,52,0,104.1,0,156.1
		c0,13-4.9,23.2-16.2,29.8c-21.2,12.3-47.5-3.1-47.7-27.8c-0.2-29.3-0.1-58.6,0-87.9c0-7.5-1.5-14.5-4.7-21.3
		c-6.8-14.5-13.5-29.1-20.1-43.3c-22.1,22.1-44.2,44.2-66.6,66.5c7,7,14.3,14.3,21.7,21.5c10.5,10.3,15.7,22.7,15.5,37.4
		c-0.2,14.7-0.1,29.4,0,44.1c0.1,34.4,23.1,61.7,57,67.6c34.6,6,70-19,75.9-53.8c0.8-4.8,1.2-9.7,1.2-14.6
		c0.1-35.3,0-70.6,0.1-105.9c0-1.2-0.1-2.5,0.1-3.7c0.3-2.7,1.9-4.2,4.6-4.4c2.8-0.2,4.7,1.3,5.3,4c0.3,1.1,0.1,2.2,0.1,3.3
		c0,35.8,0,71.5,0,107.3c0,39.6-26.4,71-65.3,77.9c-39.8,7-80.5-21.3-87.7-61.2c-1-5.4-1.4-11-1.4-16.6c-0.2-14.6-0.1-29.2,0-43.8
		c0.1-11.9-3.9-21.9-12.5-30.2C190.7,301.3,183.4,293.8,175.6,286z M409.8,194.1c10.6-4.4,20.9-8.7,31.1-13.2
		c1.3-0.6,2.5-2.2,3.1-3.7c1.2-2.6,0.5-5.1-1.5-7c-2.3-2.3-5-2.5-8-1.3c-8.4,3.4-16.8,6.9-25.2,10.3c-1.4,0.6-2.8,1.2-4.3,1.8
		C406.6,185.6,408.2,189.7,409.8,194.1z M321.5,238.9C321.5,238.9,321.5,238.9,321.5,238.9c0,2.4,0,4.9,0,7.3c0,2.3,1.5,3,3.6,3
		c2,0,3.5-0.7,3.5-3.1c0-4.7,0-9.3,0-14c0-2.5-1.3-3.3-3.6-3.3c-2.3,0-3.5,1-3.5,3.4C321.5,234.5,321.5,236.7,321.5,238.9z
		 M328.6,328.6c0-2.3,0-4.7,0-7c0-2.4-1.1-3.4-3.4-3.4c-2.3,0-3.6,0.7-3.6,3.2c0,4.7,0,9.3,0,14c0,2.5,1.6,3.1,3.8,3
		c2.2,0,3.3-0.9,3.3-3.2C328.6,333,328.6,330.8,328.6,328.6z M328.6,283.8c0-2.3,0-4.7,0-7c0-2.2-1-3.2-3.2-3.3
		c-2.2,0-3.8,0.5-3.8,3c0,4.8,0,9.5,0,14.3c0,2.4,1.5,2.9,3.6,2.9c2.1,0,3.5-0.6,3.5-3C328.6,288.5,328.6,286.1,328.6,283.8z"/>
	<path class="st0" d="M170.5,205.4c0-9.7,0-19.9,0-30.6c-8.4,2.1-16.6,4.1-25.2,6.2c0,1.3,0,2.4,0,3.6c0,12.5-0.6,25,0.1,37.4
		c0.8,13.3-10.6,17.3-19.3,15.9c-7.4-1.2-12.5-6.7-12.2-12.8c0.3-6.1,6-11.2,13.3-11.8c2.4-0.2,4.9,0,7.7,0c0.1-1.1,0.2-2.2,0.2-3.4
		c0-10.5,0-20.9,0-31.4c0-4.5,0.9-5.7,5.2-6.8c10.9-2.7,21.8-5.4,32.7-8.1c5.2-1.3,7.7,0.6,7.7,5.9c0,15.3,0,30.5,0,45.8
		c0,9.9-6.6,16-16.7,15.3c-1.4-0.1-2.9-0.4-4.3-0.7c-6.2-1.7-10.5-6.6-10.4-12c0.1-5.4,4.4-10.4,10.6-11.7
		C163.4,205.4,166.9,205.6,170.5,205.4z M124.4,225.6c3,3.3,7.4,3.3,10.5,0C131.9,222.4,127.4,222.4,124.4,225.6z M159.8,218
		c3.4,3.1,7.6,3.1,10.6,0C167.5,214.9,163.2,214.8,159.8,218z"/>
	<path class="st0" d="M213,160.7c0-1.4,0-2.6,0-3.7c0-10.4,0-20.7,0-31.1c0-4.4,1.9-6.8,5.2-6.8c3.3,0,5.1,2.4,5.1,6.8
		c0,15.1,0,30.3,0,45.4c0,6.5-3,10.8-9.1,12.9c-5.9,2-11.7,1.6-16.9-1.9c-7.1-4.9-7.3-14.4,0.1-18.9c3.1-1.9,7.1-2.2,10.7-3
		C209.5,160.1,211.1,160.6,213,160.7z M212.9,172.9c-3.6-3.3-7.9-3.2-10.6,0.1C205.7,176.1,209.4,176.1,212.9,172.9z"/>
</g>
<path class="st0" d="M284.4,38.6c-139,0-251.7,112.7-251.7,251.7S145.4,542,284.4,542S536,429.3,536,290.3S423.4,38.6,284.4,38.6z
	 M284.4,526.9C153.7,526.9,47.8,421,47.8,290.3S153.7,53.7,284.4,53.7S521,159.6,521,290.3S415,526.9,284.4,526.9z"/>
</svg>
