<?xml version="1.0" encoding="utf-8"?>
<!-- Generator: Adobe Illustrator 25.3.1, SVG Export Plug-In . SVG Version: 6.00 Build 0)  -->
<svg version="1.1" id="Camada_1" xmlns="http://www.w3.org/2000/svg" xmlns:xlink="http://www.w3.org/1999/xlink" x="0px" y="0px"
	 viewBox="0 0 123 123" style="enable-background:new 0 0 123 123;" xml:space="preserve">
<style type="text/css">
	.st0{fill:none;stroke:#E01747;stroke-width:3;stroke-miterlimit:9.9999;}
	.st1{fill:#E01747;}
</style>
<g id="BACKGROUND">
</g>
<ellipse class="st0" cx="61.5" cy="61.5" rx="60" ry="60"/>
<g>
	<path class="st1" d="M89.5,63.1v19.5H78.2V64.4c0-4.6-1.6-7.7-5.7-7.7c-3.1,0-5,2.1-5.8,4.1c-0.3,0.7-0.4,1.7-0.4,2.8v19H55
		c0,0,0.2-30.8,0-34h11.3v4.8c0,0-0.1,0.1-0.1,0.1h0.1v-0.1c1.5-2.3,4.2-5.6,10.2-5.6C83.9,47.8,89.5,52.6,89.5,63.1L89.5,63.1z
		 M37.5,82.5h11.3v-34H37.5V82.5z M49.1,37c0,3.2-2.6,5.8-5.8,5.8c-3.2,0-5.8-2.6-5.8-5.8c0-3.2,2.6-5.8,5.8-5.8
		C46.5,31.2,49.1,33.8,49.1,37z"/>
</g>
</svg>
