<?xml version="1.0" encoding="utf-8"?>
<!-- Generator: Adobe Illustrator 25.3.1, SVG Export Plug-In . SVG Version: 6.00 Build 0)  -->
<svg version="1.1" id="Camada_1" xmlns="http://www.w3.org/2000/svg" xmlns:xlink="http://www.w3.org/1999/xlink" x="0px" y="0px"
	 viewBox="0 0 756.9 756.9" style="enable-background:new 0 0 756.9 756.9;" xml:space="preserve">
<style type="text/css">
	.st0{fill:#E01747;}
</style>
<g id="Background">
</g>
<path class="st0" d="M378.5,39.7c-187.1,0-338.8,151.7-338.8,338.8s151.7,338.8,338.8,338.8s338.8-151.7,338.8-338.8
	S565.6,39.7,378.5,39.7z M272.6,430.2c0,42.4-0.1,84.9,0.1,127.3c0,4.7-1.2,6.1-6,6.1c-24.1-0.3-48.2-0.2-72.3,0c-3.9,0-5-0.9-5-4.9
	c0.1-85.9,0.1-171.8,0-257.7c0-3.6,0.9-4.8,4.6-4.8c24.5,0.2,48.9,0.2,73.4,0c4.7,0,5.3,1.8,5.3,5.8
	C272.5,344.7,272.6,387.5,272.6,430.2z M231,259.3c-26.2,0-48-21.7-48.1-47.9c-0.1-26.5,21.7-48.3,48.2-48.3
	c26.4,0,48.1,21.7,48.1,47.9C279.2,237.6,257.6,259.3,231,259.3z M584.6,558.1c0,4.4-1.2,5.5-5.5,5.5c-24.1-0.2-48.2-0.2-72.3,0
	c-4.2,0-5.2-1.3-5.1-5.3c0.1-44.5,0.2-89.1,0-133.6c0-11.2-0.7-22.3-3.9-33.2c-5.8-20-20.1-30.2-41-29.1
	c-28.6,1.5-43.5,15.7-47.1,44.7c-0.9,6.9-1.3,13.9-1.3,20.9c0,43.3,0,86.6,0.1,129.9c0,4.3-1.1,5.6-5.5,5.6
	c-24.3-0.2-48.6-0.2-72.9,0c-3.9,0-5-1-5-5c0.1-85.8,0.1-171.5,0-257.3c0-4.2,1.4-5.2,5.4-5.2c23.1,0.2,46.1,0.2,69.2,0
	c4.2,0,5.3,1.3,5.2,5.4c-0.4,10.3-0.2,20.6-0.2,30.8c5.6-6.3,10.2-12.6,15.9-18c17.6-16.6,38.4-24.9,62.6-24.7
	c13.3,0.1,26.5,1.1,39.4,4.8c29.4,8.5,46.5,28.7,54.7,57.5c6.1,21.5,7.2,43.7,7.3,65.9C584.7,464.5,584.5,511.3,584.6,558.1z"/>
</svg>
