<?xml version="1.0" encoding="utf-8"?>
<!-- Generator: Adobe Illustrator 25.3.1, SVG Export Plug-In . SVG Version: 6.00 Build 0)  -->
<svg version="1.1" id="Camada_1" xmlns="http://www.w3.org/2000/svg" xmlns:xlink="http://www.w3.org/1999/xlink" x="0px" y="0px"
	 viewBox="0 0 394 383" style="enable-background:new 0 0 394 383;" xml:space="preserve">
<style type="text/css">
	.st0{fill:#666666;}
</style>
<path class="st0" d="M66.2,161.2C66.4,99.4,109.9,44,169.7,30.8c44.2-9.8,84.4-0.6,119,29.2c25.2,21.8,40.1,49.7,45,82.7
	c3.7,24.8,0.4,48.9-9.7,71.9c-4.5,10.2-11,19.1-18.1,27.5c-31.6,37.1-63.2,74.2-94.8,111.3c-6.5,7.6-14,7.7-20.5,0.1
	C158.9,316.3,127.3,279,95.5,242c-17-19.8-26.2-42.6-28.4-68.5C66.7,169.4,66.5,165.3,66.2,161.2z M200.8,329.7
	c0.5-0.7,0.8-1.1,1.1-1.4c29.3-34.4,58.7-68.7,87.7-103.3c5.1-6.1,9.7-12.8,13-20c11.9-26.6,12.4-53.9,2.5-81.1
	c-21.3-58.3-81.8-86.4-138.9-68.1c-45.6,14.6-76.1,57.1-76.4,104.9c-0.2,22.8,5.2,44,20.1,61.8c22.5,26.9,45.3,53.4,67.9,80.1
	C185.3,311.6,192.9,320.4,200.8,329.7z"/>
<path class="st0" d="M200.3,226.1c-36.4-0.7-65.1-30.2-64.5-66.1c0.6-34.9,29-64.4,65.6-63.9c36.4,0.5,65,30.1,64.3,65.8
	C265,197.7,235.4,226.7,200.3,226.1z M242.4,161c0-23-18.7-41.7-41.6-41.7c-23.1-0.1-41.9,18.7-41.8,41.8
	c0,23.1,18.9,41.9,41.9,41.8C223.9,202.7,242.5,183.9,242.4,161z"/>
</svg>
