<?xml version="1.0" encoding="utf-8"?>
<!-- Generator: Adobe Illustrator 25.3.1, SVG Export Plug-In . SVG Version: 6.00 Build 0)  -->
<svg version="1.1" id="Camada_1" xmlns="http://www.w3.org/2000/svg" xmlns:xlink="http://www.w3.org/1999/xlink" x="0px" y="0px"
	 viewBox="0 0 665.52 422.87" style="enable-background:new 0 0 665.52 422.87;" xml:space="preserve">
<style type="text/css">
	.st0{enable-background:new    ;}
	.st1{fill:#FFFFFF;}
	.st2{fill:url(#SVGID_1_);}
</style>
<g>
	<g class="st0">
		<path class="st1" d="M47.56,271.31c-1.42-1.73-2.12-3.65-2.12-5.75c0-2.1,0.69-4.02,2.05-5.75c1.37-1.73,3.47-2.6,6.3-2.6h57.53
			c2.74,0,4.79,0.87,6.16,2.6c1.37,1.74,2.08,3.65,2.12,5.75c0.04,2.1-0.62,4.02-1.99,5.75c-1.37,1.74-3.47,2.6-6.3,2.6H90.92v70.82
			c0,2.74-0.87,4.82-2.6,6.23c-1.74,1.42-3.65,2.12-5.75,2.12c-2.1,0-4.02-0.71-5.75-2.12c-1.74-1.42-2.6-3.49-2.6-6.23v-70.82
			H53.79C51.05,273.91,48.98,273.04,47.56,271.31z"/>
		<path class="st1" d="M115.3,305.01c0-6.94,1.34-13.42,4.03-19.45s6.32-11.3,10.88-15.82s9.92-8.08,16.07-10.68
			s12.75-3.9,19.77-3.9c7.02,0,13.63,1.3,19.83,3.9c6.2,2.6,11.6,6.16,16.21,10.68s8.23,9.82,10.88,15.89
			c2.65,6.07,3.97,12.53,3.97,19.38c0,6.85-1.35,13.31-4.04,19.38c-2.69,6.07-6.34,11.37-10.94,15.89
			c-4.61,4.52-9.99,8.08-16.14,10.68c-6.16,2.6-12.75,3.9-19.77,3.9c-7.02,0-13.61-1.3-19.77-3.9s-11.54-6.16-16.14-10.68
			s-8.23-9.82-10.88-15.89C116.62,318.32,115.3,311.85,115.3,305.01z M166.12,271.58c-4.57,0-8.93,0.87-13.08,2.6
			c-4.16,1.74-7.79,4.11-10.89,7.12c-3.11,3.01-5.57,6.55-7.4,10.62c-1.83,4.06-2.74,8.42-2.74,13.08c0,4.48,0.87,8.72,2.6,12.74
			c1.73,4.02,4.11,7.56,7.12,10.62c3.01,3.06,6.6,5.5,10.75,7.33c4.15,1.83,8.7,2.74,13.63,2.74c4.66,0,9.06-0.84,13.22-2.53
			c4.15-1.69,7.78-4.04,10.89-7.05c3.1-3.01,5.55-6.55,7.33-10.62c1.78-4.06,2.67-8.47,2.67-13.22c0-4.66-0.91-9.02-2.74-13.08
			c-1.83-4.06-4.27-7.6-7.33-10.62c-3.06-3.01-6.67-5.39-10.82-7.12C175.18,272.45,170.78,271.58,166.12,271.58z"/>
		<path class="st1" d="M222.56,305.01c0-6.76,1.28-13.01,3.84-18.77c2.56-5.75,6.07-10.75,10.55-15c4.47-4.25,9.73-7.6,15.75-10.07
			s12.47-3.79,19.31-3.97h17.94c2.65,0,4.66,0.85,6.03,2.56c1.37,1.7,2.05,3.59,2.05,5.66c0,2.07-0.66,3.96-1.99,5.66
			c-1.32,1.7-3.36,2.56-6.1,2.56h-16.44c-7.12,0-13.11,1.55-17.94,4.64c-4.84,3.09-8.45,6.98-10.82,11.66
			c-2.38,4.68-3.56,9.75-3.56,15.21c0,5.46,1.23,10.52,3.7,15.21c2.47,4.68,6.19,8.57,11.16,11.66c4.98,3.09,11.21,4.64,18.7,4.64
			h15.21c2.74,0,4.77,0.85,6.1,2.56c1.32,1.7,1.99,3.59,1.99,5.66c0,2.07-0.69,3.96-2.05,5.66c-1.37,1.7-3.38,2.56-6.03,2.56h-16.44
			c-7.22,0-13.93-1.23-20.14-3.7c-6.21-2.47-11.6-5.87-16.16-10.21c-4.57-4.34-8.15-9.43-10.75-15.27
			C223.86,318.07,222.56,311.77,222.56,305.01z"/>
		<path class="st1" d="M369.81,265.28c0,0.09,0.52,1.33,1.58,3.7c1.05,2.38,2.44,5.46,4.18,9.25c1.73,3.79,3.72,8.13,5.96,13.01
			c2.24,4.89,4.52,9.86,6.85,14.93c2.33,5.07,4.61,10.05,6.85,14.93c2.24,4.89,4.22,9.25,5.96,13.08c1.73,3.83,3.13,6.96,4.18,9.38
			c1.05,2.42,1.58,3.72,1.58,3.9c0.73,1.28,0.75,2.53,0.07,3.77c-0.69,1.23-1.67,1.85-2.95,1.85c-3.2,0-5.66,0-7.4,0
			c-1.74,0-3.06-0.07-3.97-0.21c-0.91-0.14-1.58-0.34-1.99-0.62c-0.41-0.27-0.84-0.64-1.3-1.1c-4.11-4.93-9.11-8.51-15-10.75
			c-5.89-2.24-11.94-3.29-18.15-3.15c-6.21,0.14-12.26,1.39-18.15,3.77c-5.89,2.38-10.89,5.75-15,10.14
			c-0.27,0.46-0.6,0.82-0.96,1.1c-0.37,0.27-1.01,0.48-1.92,0.62c-0.91,0.14-2.24,0.21-3.97,0.21c-1.74,0-4.11,0-7.12,0
			c-1.55,0-2.65-0.62-3.29-1.85c-0.64-1.23-0.78-2.49-0.41-3.77c6.85-14.7,12.56-27.03,17.12-36.99
			c4.57-9.95,8.31-18.13,11.23-24.52c2.92-6.39,5.21-11.28,6.85-14.66c1.64-3.38,2.95-5.89,3.9-7.53s1.73-2.72,2.33-3.22
			c0.59-0.5,1.3-1.03,2.12-1.58c1.73-1.1,3.63-1.76,5.68-1.99c2.05-0.23,4.04-0.07,5.96,0.48c1.92,0.55,3.67,1.49,5.27,2.81
			C367.51,261.61,368.81,263.27,369.81,265.28z M333.65,326.65c3.47-1.28,7.14-2.26,11.03-2.95c3.88-0.69,7.81-1.05,11.78-1.1
			c3.97-0.04,7.9,0.23,11.78,0.82c3.88,0.6,7.56,1.44,11.03,2.53c-0.64-1.37-1.12-2.4-1.44-3.08c-0.32-0.68-0.68-1.46-1.1-2.33
			c-0.41-0.87-0.98-2.08-1.71-3.63c-0.73-1.55-1.85-3.92-3.36-7.12c-1.51-3.2-3.47-7.44-5.89-12.74
			c-2.42-5.29-5.55-12.14-9.38-20.55c-3.83,8.13-6.94,14.82-9.31,20.07c-2.38,5.25-4.29,9.48-5.75,12.67
			c-1.46,3.2-2.56,5.62-3.29,7.26c-0.73,1.64-1.3,2.97-1.71,3.97c-0.41,1.01-0.8,1.92-1.16,2.74
			C334.79,324.05,334.29,325.19,333.65,326.65z"/>
		<path class="st1" d="M468.58,349.53c-4.02,3.29-9.5,4.93-16.44,4.93c-5.39,0-11.07-1.05-17.05-3.15
			c-5.98-2.1-11.51-5.23-16.58-9.38c-5.07-4.15-9.27-9.38-12.6-15.68c-3.33-6.3-5-13.65-5-22.05c0-6.76,1.3-13.15,3.9-19.18
			s6.16-11.32,10.68-15.89c4.52-4.57,9.88-8.17,16.1-10.82c6.21-2.65,12.88-3.97,20-3.97c7.21,0,13.95,1.35,20.21,4.04
			c6.25,2.7,11.64,6.33,16.16,10.89c4.52,4.57,8.08,9.86,10.68,15.89s3.9,12.38,3.9,19.04c0,4.2-0.32,7.74-0.96,10.62
			c-0.64,2.88-1.49,5.18-2.53,6.92c-1.05,1.74-2.22,2.99-3.49,3.77c-1.28,0.78-2.56,1.17-3.84,1.17c-1.28,0-2.49-0.32-3.63-0.96
			c-1.14-0.64-2.12-1.48-2.95-2.53c-0.82-1.05-1.37-2.26-1.64-3.63c-0.27-1.37-0.14-2.79,0.41-4.25c1.92-5.29,2.4-10.66,1.44-16.1
			c-0.96-5.43-2.95-10.34-5.96-14.73s-6.94-7.95-11.78-10.68c-4.84-2.74-10.18-4.11-16.03-4.11c-4.75,0-9.18,0.96-13.29,2.88
			c-4.11,1.92-7.7,4.45-10.75,7.6c-3.06,3.15-5.48,6.83-7.26,11.03c-1.78,4.2-2.67,8.54-2.67,13.01c0,5.21,0.98,9.91,2.94,14.11
			c1.96,4.2,4.52,7.79,7.67,10.75c3.15,2.97,6.67,5.27,10.55,6.92c3.88,1.64,7.69,2.47,11.44,2.47c1.92,0,3.79-0.21,5.62-0.62
			c1.83-0.41,3.51-1.12,5.07-2.12c2.65-1.55,5.46-2.72,8.42-3.49c2.97-0.78,5.96-1.17,8.97-1.17c4.11,0,8.1,0.69,11.99,2.05
			c3.88,1.37,7.33,3.38,10.34,6.03c1.64,1.37,2.58,2.88,2.81,4.52c0.23,1.64-0.02,3.17-0.75,4.59c-0.73,1.42-1.8,2.6-3.22,3.56
			c-1.42,0.96-2.9,1.44-4.45,1.44c-1.92,0-3.7-0.82-5.34-2.47c-1.46-1.55-3.17-2.76-5.14-3.63c-1.96-0.87-4-1.3-6.1-1.3
			c-1.74,0-3.45,0.3-5.14,0.89C471.61,347.31,470.04,348.25,468.58,349.53z"/>
		<path class="st1" d="M547.35,355.01c-5.66,0-11.01-1.05-16.03-3.15c-5.02-2.1-9.38-4.98-13.08-8.63
			c-3.7-3.65-6.62-7.92-8.77-12.81c-2.15-4.88-3.22-10.11-3.22-15.68v-49.18c0-2.74,0.88-4.82,2.65-6.23
			c1.77-1.42,3.69-2.12,5.78-2.12c2.08,0,3.99,0.68,5.71,2.05s2.58,3.47,2.58,6.3v49.18c0,3.2,0.62,6.23,1.85,9.11
			s2.93,5.41,5.08,7.6c2.15,2.19,4.72,3.93,7.69,5.21c2.97,1.28,6.2,1.92,9.68,1.92c3.39,0,6.57-0.62,9.55-1.85
			c2.98-1.23,5.56-2.92,7.76-5.07c2.2-2.15,3.94-4.68,5.22-7.6c1.28-2.92,1.92-6.03,1.92-9.31v-49.18c0-2.83,0.87-4.93,2.6-6.3
			c1.73-1.37,3.65-2.05,5.75-2.05c2.1,0,4.02,0.68,5.75,2.05c1.73,1.37,2.6,3.47,2.6,6.3v49.18c0,5.66-1.1,10.94-3.29,15.82
			c-2.19,4.89-5.14,9.16-8.83,12.81c-3.7,3.65-8.06,6.51-13.08,8.56C558.21,353.98,552.92,355.01,547.35,355.01z"/>
		<path class="st1" d="M602,259.39c1.73-1.37,3.65-2.05,5.75-2.05c2.1,0,4.02,0.69,5.75,2.05c1.73,1.37,2.6,3.47,2.6,6.3v79.04
			c0,2.74-0.87,4.82-2.6,6.23c-1.74,1.42-3.65,2.12-5.75,2.12c-2.1,0-4.02-0.71-5.75-2.12c-1.74-1.42-2.6-3.49-2.6-6.23v-79.04
			C599.4,262.86,600.27,260.76,602,259.39z"/>
	</g>
	
		<linearGradient id="SVGID_1_" gradientUnits="userSpaceOnUse" x1="39.49" y1="299.63" x2="626.04" y2="299.63" gradientTransform="matrix(1 0 0 -1 0 423.89)">
		<stop  offset="0" style="stop-color:#E01747"/>
		<stop  offset="0.5079" style="stop-color:#E10580"/>
		<stop  offset="0.9752" style="stop-color:#E01747"/>
		<stop  offset="1" style="stop-color:#E01747"/>
	</linearGradient>
	<path class="st2" d="M626.04,213.98h-75.56c-20.64-7.46-22-81.41-45.75-81.41c-23.72,0-25.14,73.95-45.75,81.41h-5.82
		c-21.53-11.73-22.45-181.86-46.75-181.86c-24.46,0-25.15,170.14-46.82,181.86h-6.68c-19.98-6.35-21.5-56.88-44.9-56.88
		c-23.39,0-24.94,50.53-44.9,56.88h-7.71c-20.63-7.46-21.99-81.41-45.73-81.41c-23.72,0-25.13,73.95-45.73,81.41h-8.26
		c-19.48-5.08-21.27-40.38-44.35-40.38c-23.09,0-24.87,35.3-44.35,40.38H39.49v2.3h312.73c2.29,0.16,4.4,0.16,6.35,0h267.47
		L626.04,213.98L626.04,213.98z M209.69,180.94L209.69,180.94c16.92,0,22.08,17.07,32.06,27.42c-9.62-8.07-14.92-21.07-32.05-21.07
		h-0.01c-17.14,0-22.45,13.02-32.1,21.09C187.6,198.03,192.79,180.94,209.69,180.94z M178.9,205.01
		c9.22-12.74,14.64-31.88,30.79-31.89c16.19,0,21.59,19.22,30.83,31.96c-8.84-10.41-14.47-25.61-30.82-25.61c0,0,0,0-0.01,0
		C193.39,179.47,187.71,194.6,178.9,205.01z M209.68,171.65c-15.83,0-21.63,17.38-29.98,30.03c8.77-15.02,14.32-36.38,29.98-36.38
		c15.69,0,21.24,21.47,30.04,36.5C231.34,189.14,225.57,171.65,209.68,171.65z M111.34,193.16
		C111.34,193.16,111.33,193.16,111.34,193.16c-13.05,0-19.23,5.94-25.71,11.58c0.48-0.49,0.97-0.98,1.44-1.47
		c6.25-6.45,12.15-12.55,24.26-12.55c0,0,0,0,0.01,0c13.05,0,19.11,7.29,25.74,14.06C130.58,199.13,124.41,193.16,111.34,193.16z
		 M137.59,206.96c-0.48-0.34-0.95-0.67-1.43-1.01c-15.26-10.92-21.64-8.1-24.84-8.87c-13.29,0-19.5,5.12-26.21,9.83
		c6.81-5.83,12.85-12.27,26.21-12.28c0,0,0,0,0.01,0C124.74,194.63,130.77,201.11,137.59,206.96z M86.99,207.26
		c14.96-10.7,21.21-7.95,24.35-8.71c13.65,0,19.69,5.55,26.74,10.41c-0.66-0.36-1.31-0.72-1.96-1.08
		c-15.22-8.47-21.73-6.32-24.79-6.89c-13.52,0-19.73,4.15-26.62,7.88C85.48,208.33,86.24,207.79,86.99,207.26z M209.69,188.76
		C209.69,188.76,209.7,188.76,209.69,188.76c17.26,0,22.29,13.71,32.59,21.71c-9.99-5.73-15.16-15.36-32.57-15.36h-0.01
		c-17.45,0-22.62,9.65-32.65,15.39C187.37,202.49,192.42,188.76,209.69,188.76z M209.68,163.84c-15.04,0-21.05,18.53-28.77,33.21
		c8.1-17.11,13.81-39.56,28.77-39.56c14.95,0,20.68,22.54,28.82,39.66C230.76,182.46,224.76,163.84,209.68,163.84z M111.33,189.25
		c-12.67,0-18.88,6.62-25.15,13.1c6.41-7.61,12.49-15.54,25.15-15.54c12.62,0,18.69,7.87,25.08,15.46
		C130.17,195.81,123.97,189.25,111.33,189.25z M86.95,209.24c15.02-8.35,21.22-6.19,24.4-6.79c13.93,0,20,4.52,27.3,8.36
		c-0.87-0.33-1.73-0.67-2.57-1c-15.23-6.05-21.47-4.47-24.74-4.91c-13.87,0-20.02,3.13-27.14,5.85
		C85.12,210.25,86.04,209.75,86.95,209.24z M209.69,196.57L209.69,196.57c17.49,0,22.45,9.99,32.94,15.68
		c-10.28-3.42-15.49-9.33-32.92-9.33c-0.01,0-0.01,0-0.02,0c-17.47,0.01-22.7,5.91-32.98,9.34
		C187.22,206.57,192.2,196.58,209.69,196.57z M209.68,156.02c-14.29,0-20.42,19.16-27.56,35.58c7.51-18.93,13.38-41.92,27.56-41.92
		c14.16,0,20.02,22.9,27.51,41.81C230.05,175.1,223.9,156.02,209.68,156.02z M111.33,185.34c-12.16,0-18.37,7.02-24.39,14.19
		c6.16-8.31,12.23-16.63,24.39-16.63c12.18,0,18.25,8.34,24.41,16.66C129.71,192.38,123.51,185.34,111.33,185.34z M86.89,211.23
		c15.04-5.98,21.29-4.44,24.46-4.86c12.2,0,18.41,2.47,24.41,4.85c1.09,0.43,2.12,0.81,3.11,1.17c-0.93-0.2-1.89-0.41-2.87-0.64
		c-15.15-3.61-21.69-2.7-24.68-2.94c-14.16,0-20.23,1.95-27.5,3.6C84.88,212.02,85.89,211.62,86.89,211.23z M111.37,210.28
		c14.16,0,20.18,1.97,27.53,3.63c-0.98-0.07-1.94-0.13-2.95-0.21c-24.61-1.94-37.43-0.7-52.24,0.24
		C91.11,212.27,97.15,210.28,111.37,210.28z M209.7,204.39c0.01,0,0.01,0,0.02,0c12.19,0,18.38,2.96,24.37,5.81
		c3.42,1.63,6.37,2.78,8.95,3.62c-2.78-0.3-5.65-0.65-8.71-1.14c-27.46-4.36-38.26-0.74-57.51,1.06
		C187.21,210.33,192.38,204.4,209.7,204.39z M504.75,180.89c16.9,0,22.05,16.99,31.99,27.35c-9.58-8.08-14.89-21.01-31.98-21.01
		c0,0,0,0-0.01,0c-17.11,0-22.44,12.98-32.06,21.06C482.68,197.93,487.87,180.89,504.75,180.89z M473.94,204.98
		c9.23-12.74,14.65-31.9,30.81-31.9c16.18,0,21.58,19.18,30.8,31.91c-8.82-10.41-14.46-25.57-30.8-25.57
		C488.41,179.42,482.76,194.57,473.94,204.98z M504.75,171.61c-15.8,0-21.61,17.3-29.94,29.95c8.74-15.02,14.29-36.29,29.93-36.29
		c15.67,0,21.21,21.32,29.95,36.34C526.36,188.96,520.57,171.61,504.75,171.61z M406.45,119.01c-18.05,0-23.19,49.6-33.63,77.35
		c11.24-32.38,16.04-93.26,33.62-93.26c17.29,0,22.15,58.92,32.95,91.66C429.39,166.76,424.17,119,406.45,119.01z M441.28,202.42
		c-11.34-21.98-16.06-66.03-34.82-66.03s-23.58,44.03-34.96,66.03c12.18-26.41,16.63-81.93,34.95-81.93
		C424.74,120.47,429.13,176.01,441.28,202.42z M308.02,184.49c-14.64,0-20.67,10.44-28.12,19.04c7.72-10.26,13.59-23.05,28.12-23.05
		c14.58,0,20.43,12.83,28.15,23.09C328.72,194.96,322.7,184.48,308.02,184.49z M336.82,206.21c-7.78-7.14-13.68-16.24-28.79-16.24
		c0,0,0,0-0.01,0c-15.15,0-21.05,9.15-28.86,16.3c8.07-8.8,13.82-20.31,28.86-20.31C323.04,185.95,328.79,197.42,336.82,206.21z
		 M308.03,191.43L308.03,191.43c15.51,0,21.13,9.93,29.52,17.18c-8.18-5.62-13.96-13.17-29.51-13.17h-0.01
		c-15.59,0-21.37,7.58-29.57,13.21C286.88,201.39,292.5,191.44,308.03,191.43z M406.46,137.86c18.93,0,22.99,48.5,36.07,69.11
		c-12.33-16.33-16.58-53.2-36.06-53.2l0,0c-19.39,0-23.83,36.61-36.11,53.03C383.39,186.08,387.6,137.86,406.46,137.86z
		 M504.75,188.7C504.75,188.7,504.76,188.7,504.75,188.7c17.24,0,22.28,13.67,32.55,21.67c-9.96-5.74-15.14-15.33-32.54-15.33h-0.01
		c-17.43,0-22.61,9.62-32.6,15.36C482.44,202.39,487.5,188.7,504.75,188.7z M504.74,163.8c-15,0-21.02,18.4-28.7,33.05
		c8.07-17.09,13.81-39.39,28.7-39.39c14.97,0,20.7,22.58,28.85,39.72C525.84,182.48,519.87,163.8,504.74,163.8z M406.45,101.63
		c-16.45,0-22.21,48.63-30.98,82.08c9.49-38.61,14.81-97.99,30.98-97.99c15.79,0,21.12,56.13,30.06,94.73
		C428.21,147.19,422.36,101.63,406.45,101.63z M308.02,179.01c-14.12,0-20.24,11.47-27.33,21.39c7.35-11.61,13.3-25.4,27.32-25.4
		c14.04,0,19.98,13.82,27.35,25.43C328.27,190.5,322.15,179.01,308.02,179.01z M308.03,196.91L308.03,196.91
		c12.15,0,18.06,4.61,24.31,9.49c2.39,1.87,4.54,3.33,6.53,4.53c-8.97-4.05-14.66-10.01-30.82-10.01h-0.01
		c-12.4,0-18.71,3.51-24.8,6.91c-1.69,0.94-3.25,1.73-4.72,2.42C286.88,204.61,292.54,196.92,308.03,196.91z M406.47,155.23
		L406.47,155.23c19.35,0,23.15,38.94,36.72,54.5c-12.89-11.33-17.01-38.59-36.71-38.59h-0.01c-19.72,0-23.97,27.31-36.92,38.63
		C383.19,194.22,387.14,155.24,406.47,155.23z M504.76,196.51h0.01c17.47,0,22.44,9.97,32.91,15.66
		c-10.26-3.42-15.48-9.32-32.9-9.32c-0.01,0-0.01,0-0.02,0c-12.39,0-18.69,3-24.78,5.91c-2.93,1.39-5.51,2.44-7.82,3.24
		C482.41,206.27,487.47,196.51,504.76,196.51z M504.74,156c-14.21,0-20.36,18.97-27.47,35.33c7.46-18.88,13.32-41.67,27.47-41.67
		c14.15,0,20.02,22.85,27.5,41.75C525.1,175.03,518.94,155.99,504.74,156z M406.44,84.25c-15,0-21.1,46.33-28.66,83.76
		c8.15-43.13,13.85-99.67,28.66-99.67c14.82,0,20.47,56.68,28.61,99.83C427.51,130.72,421.48,84.25,406.44,84.25z M308.02,173.53
		c-13.28,0-19.51,11.71-26.1,22.63c6.84-12.65,12.86-26.64,26.1-26.64c13.3,0,19.3,14.04,26.14,26.71
		C327.55,185.29,321.33,173.53,308.02,173.53z M308.06,206.4c-0.01,0-0.02,0-0.03,0c-15.94,0.01-21.69,3.48-30.44,5.91
		c8.9-4.06,14.6-9.91,30.44-9.92c0.01,0,0.01,0,0.01,0c12.18,0,18.37,3.45,24.36,6.79c2.42,1.35,4.59,2.4,6.59,3.27
		C329.94,210.01,324.34,206.4,308.06,206.4z M332.48,211.95c2.29,0.76,4.41,1.38,6.47,1.94c-9.05-0.81-14.63-2.01-30.83-2.01
		c-11.38,0-20.81,1.05-30.31,1.87c8.73-2.43,14.45-5.88,30.22-5.88C307.86,207.85,317.83,207.05,332.48,211.95z M406.47,172.61
		C406.47,172.61,406.48,172.61,406.47,172.61c19.63,0,23.35,28.66,37.37,39.42c-13.52-6.55-17.32-23.51-37.35-23.51h-0.01
		c-20.09,0-23.97,17-37.58,23.55C383,201.31,386.84,172.62,406.47,172.61z M406.49,189.99c19.7,0,23.39,17.05,37.22,23.56
		c-4-0.7-8.15-1.73-12.56-3.29c-15.13-5.37-21.47-3.98-24.67-4.36c-20.11,0.01-23.94,5.79-37.99,7.92
		c14.77-6.65,17.81-23.83,37.98-23.83C406.48,189.99,406.49,189.99,406.49,189.99z M504.76,204.32c0.01,0,0.01,0,0.02,0
		c17.55,0,22.61,6.09,33.28,9.48c-10.57-1.13-15.6-3.15-33.24-3.15c-12.36,0-22.75,1.78-32.81,2.98
		C482.31,210.2,487.51,204.32,504.76,204.32z M504.74,148.19c-13.43,0-19.66,19.11-26.27,36.84c6.95-20.34,12.94-43.17,26.27-43.18
		c13.33,0,19.32,22.83,26.27,43.17C524.38,167.3,518.15,148.19,504.74,148.19z M406.43,66.87c-13.74,0-20.01,43.96-26.77,83.93
		c7.23-46.15,13.13-99.84,26.76-99.84c13.57,0,19.44,53.06,26.58,99.03C426.32,110.25,420.07,66.87,406.43,66.87z M308.02,168.05
		c-12.63,0-18.88,11.98-25.13,23.78c6.47-13.58,12.53-27.79,25.13-27.79c12.72,0,18.76,14.4,25.26,28.05
		C326.99,180.2,320.75,168.05,308.02,168.05z M209.68,148.2c-13.4,0-19.63,19.07-26.25,36.78c6.94-20.33,12.93-43.13,26.24-43.13
		c13.32,0,19.31,22.83,26.26,43.18C229.32,167.31,223.08,148.2,209.68,148.2z M111.33,181.43c-11.71,0-17.91,7.37-23.73,15.17
		c5.95-8.95,12.02-17.61,23.73-17.61c11.65,0,17.72,8.59,23.65,17.51C129.18,188.73,122.99,181.42,111.33,181.43z M209.77,212.21
		c9.65,0,16.61,0.85,23.29,1.77h-46.75C192.49,213.06,199.08,212.21,209.77,212.21z M324.16,213.98h-32.84
		C304.99,212.87,314.96,213.25,324.16,213.98z M406.49,207.37c0.01,0,0.02,0,0.03,0c15.5,0,22.02,3.97,31.7,6.61h-63.36
		C384.42,211.4,389.89,207.37,406.49,207.37z M528.57,213.98h-47.64C502.87,210.57,515.55,212.25,528.57,213.98z M504.73,134.04
		c12.48,0,18.52,22.17,24.95,43.46c-6.17-18.56-12.45-37.12-24.95-37.12c-12.44,0-18.73,18.4-24.87,36.89
		C486.28,156.04,492.33,134.04,504.73,134.04z M406.42,33.58c12.72,0,18.69,51.73,25.28,100.11c-6.21-41.82-12.5-84.2-25.28-84.2
		c-12.72,0-19.05,42.11-25.28,83.8C387.7,85.03,393.65,33.58,406.42,33.58z M308.01,158.56c12.09,0,18.14,14.42,24.3,28.81
		c-5.97-12.59-12.21-24.81-24.3-24.8c-12,0-18.26,12.09-24.22,24.62C289.94,172.85,295.99,158.56,308.01,158.56z M209.67,134.04
		c12.49,0,18.53,22.22,24.97,43.53c-6.17-18.58-12.46-37.19-24.96-37.19s-18.79,18.6-24.96,37.18
		C191.16,156.25,197.2,134.04,209.67,134.04z M111.32,175.07c11.17,0,17.2,8.74,22.91,18.15c-5.6-8.23-11.76-15.7-22.91-15.7
		c-11.07,0-17.22,7.35-22.78,15.51C94.2,183.69,100.22,175.07,111.32,175.07z"/>
</g>
</svg>
