<?xml version="1.0" encoding="utf-8"?>
<!-- Generator: Adobe Illustrator 25.3.1, SVG Export Plug-In . SVG Version: 6.00 Build 0)  -->
<svg version="1.1" id="Camada_1" xmlns="http://www.w3.org/2000/svg" xmlns:xlink="http://www.w3.org/1999/xlink" x="0px" y="0px"
	 viewBox="0 0 665.52 496.74" style="enable-background:new 0 0 665.52 496.74;" xml:space="preserve">
<style type="text/css">
	.st0{fill:url(#SVGID_1_);}
	.st1{fill:url(#SVGID_2_);}
	.st2{fill:url(#SVGID_3_);}
	.st3{fill:url(#SVGID_4_);}
	.st4{fill:url(#SVGID_5_);}
	.st5{fill:url(#SVGID_6_);}
	.st6{fill:url(#SVGID_7_);}
	.st7{fill:url(#SVGID_8_);}
	.st8{fill:url(#SVGID_9_);}
	.st9{fill:url(#SVGID_10_);}
	.st10{fill:url(#SVGID_11_);}
	.st11{fill:url(#SVGID_12_);}
	.st12{fill:url(#SVGID_13_);}
	.st13{enable-background:new    ;}
	.st14{fill:#FFFFFF;}
</style>
<g>
	<g>
		
			<linearGradient id="SVGID_1_" gradientUnits="userSpaceOnUse" x1="208.2799" y1="303.845" x2="460.63" y2="303.845" gradientTransform="matrix(1 0 0 -1 0 495.89)">
			<stop  offset="0" style="stop-color:#E01747"/>
			<stop  offset="0.5079" style="stop-color:#E10580"/>
			<stop  offset="0.9752" style="stop-color:#E01747"/>
			<stop  offset="1" style="stop-color:#E01747"/>
		</linearGradient>
		<path class="st0" d="M423.61,223.08c2.49-1.49,5.49-2.57,8.71-2.57c3.66,0,7.02,1.4,9.69,3.21v2.69v0.02
			c0,4.97,4.04,9.01,9.01,9.01h0.6c4.97,0,9.01-4.04,9.01-9.01v-0.02v-46.19v-33.38c0-4.97-4.04-9.01-9.01-9.01h-0.6
			c-4.97,0-9.01,4.04-9.01,9.01v47.74v16.51c-2.67,1.81-6.03,3.21-9.69,3.21c-0.88,0-1.74-0.08-2.57-0.23c-0.01,0-0.02,0-0.03,0
			c-2.53-0.45-4.84-1.51-6.81-2.8v-4.89V102.13c0-4.97-4.04-9.01-9.01-9.01h-0.6c-4.97,0-9.01,4.04-9.01,9.01v72.86
			c-2.77,2.02-6.37,3.65-10.32,3.65c-3.25,0-6.28-1.1-8.79-2.62v-6.66c0-4.97-4.04-9.01-9.01-9.01h-0.6c-4.97,0-9.01,4.04-9.01,9.01
			v57.77v8.75c-1.14,3.22-7.66,9.69-15.56,9.69c-3.54,0-6.79-1.3-9.42-3.03v-11.83V78.47c0-4.97-4.04-9.01-9.01-9.01h-0.6
			c-4.97,0-9.01,4.04-9.01,9.01v128.86c-2.44,1.41-5.33,2.42-8.44,2.42c-2.48,0-4.82-0.65-6.9-1.63v-77.66
			c0-4.97-4.04-9.01-9.01-9.01h-0.6c-4.97,0-9.01,4.04-9.01,9.01v98.25v2.13c-1.05,3.19-7.62,9.77-15.59,9.77
			c-0.81,0-1.6-0.07-2.37-0.19c-0.01,0-0.03,0-0.04-0.01c-2.33-0.38-4.5-1.28-6.37-2.42v-14.17V109.13c0-4.97-4.04-9.01-9.01-9.01
			h-0.6c-4.97,0-9.01,4.04-9.01,9.01v88.8c-2.77,2.02-6.37,3.65-10.32,3.65c-3.25,0-6.28-1.1-8.79-2.62v-75.41
			c0-4.97-4.04-9.01-9.01-9.01h-0.6c-4.97,0-9.01,4.04-9.01,9.01v80.44v29.41v0.02c0,4.97,4.04,9.01,9.01,9.01h0.6
			c4.97,0,9.01-4.04,9.01-9.01v-0.02v-21.58v-1.41c2.51-1.52,5.53-2.62,8.79-2.62c3.95,0,7.56,1.63,10.32,3.65v7.13v41.24v0.02
			c0,4.97,4.04,9.01,9.01,9.01h0.6c4.97,0,9.01-4.04,9.01-9.01v-0.02v-10.34c0.21-0.13,0.43-0.24,0.64-0.36
			c0.28-0.16,0.57-0.31,0.86-0.46c0.3-0.15,0.6-0.29,0.92-0.42c0.32-0.14,0.65-0.26,0.98-0.38c0.45-0.16,0.91-0.31,1.37-0.43
			c0.37-0.1,0.75-0.19,1.13-0.27c0.31-0.06,0.63-0.11,0.95-0.15c0.43-0.06,0.86-0.09,1.3-0.11c0.21-0.01,0.42-0.03,0.63-0.03
			c6.52,0,12.11,4.41,14.5,7.76c0.02,0.03,0.04,0.06,0.06,0.09c0.16,0.22,0.3,0.44,0.42,0.65c0.07,0.12,0.13,0.24,0.19,0.36
			c0.06,0.11,0.12,0.23,0.17,0.33c0.07,0.15,0.13,0.3,0.18,0.44c0.02,0.05,0.04,0.1,0.05,0.14v6.63c0,4.97,4.04,9,9.01,9h0.6
			c0.62,0,1.23-0.06,1.81-0.18c4.1-0.84,7.19-4.48,7.19-8.82V230.8l0,0v-13.22c2.09-0.98,4.42-1.63,6.9-1.63
			c3.11,0,5.99,1.01,8.44,2.42v13.02v74.21v0.02c0,4.97,4.04,9.01,9.01,9.01h0.6c4.97,0,9.01-4.04,9.01-9.01v-0.02v-50.79
			c0.15-0.1,0.29-0.19,0.44-0.29c0.09-0.06,0.19-0.12,0.28-0.17c2.49-1.49,5.48-2.57,8.69-2.57c6.49,0,12.05,4.37,14.47,7.71
			c0.06,0.08,0.11,0.16,0.17,0.25c0.11,0.17,0.22,0.33,0.32,0.49c0.08,0.13,0.15,0.26,0.22,0.39c0.05,0.1,0.1,0.19,0.15,0.29
			c0.08,0.16,0.14,0.31,0.2,0.46c0.01,0.03,0.02,0.07,0.04,0.1v17.73v0.02c0,4.97,4.04,9.01,9.01,9.01h0.6
			c4.97,0,9.01-4.04,9.01-9.01v-0.02v-56.87v-34.88c2.51-1.52,5.53-2.62,8.79-2.62c3.95,0,7.56,1.63,10.32,3.65v26.87v37.45v0.02
			c0,4.97,4.04,9.01,9.01,9.01h0.6c4.97,0,9.01-4.04,9.01-9.01v-0.02v-29.27c0.15-0.1,0.3-0.2,0.46-0.3
			C423.44,223.19,423.53,223.14,423.61,223.08z"/>
		
			<linearGradient id="SVGID_2_" gradientUnits="userSpaceOnUse" x1="363.81" y1="369.52" x2="384.89" y2="369.52" gradientTransform="matrix(1 0 0 -1 0 495.89)">
			<stop  offset="0" style="stop-color:#E01747"/>
			<stop  offset="0.5079" style="stop-color:#E10580"/>
			<stop  offset="0.9752" style="stop-color:#E01747"/>
			<stop  offset="1" style="stop-color:#E01747"/>
		</linearGradient>
		<path class="st1" d="M374.35,136.91c5.82,0,10.54-4.72,10.54-10.54s-4.72-10.54-10.54-10.54s-10.54,4.72-10.54,10.54
			S368.53,136.91,374.35,136.91z"/>
		
			<linearGradient id="SVGID_3_" gradientUnits="userSpaceOnUse" x1="367.15" y1="417.45" x2="381.55" y2="417.45" gradientTransform="matrix(1 0 0 -1 0 495.89)">
			<stop  offset="0" style="stop-color:#E01747"/>
			<stop  offset="0.5079" style="stop-color:#E10580"/>
			<stop  offset="0.9752" style="stop-color:#E01747"/>
			<stop  offset="1" style="stop-color:#E01747"/>
		</linearGradient>
		<path class="st2" d="M374.35,85.64c3.98,0,7.2-3.22,7.2-7.2c0-3.98-3.22-7.2-7.2-7.2s-7.2,3.22-7.2,7.2S370.38,85.64,374.35,85.64
			z"/>
		
			<linearGradient id="SVGID_4_" gradientUnits="userSpaceOnUse" x1="210.43" y1="229.87" x2="224.83" y2="229.87" gradientTransform="matrix(1 0 0 -1 0 495.89)">
			<stop  offset="0" style="stop-color:#E01747"/>
			<stop  offset="0.5079" style="stop-color:#E10580"/>
			<stop  offset="0.9752" style="stop-color:#E01747"/>
			<stop  offset="1" style="stop-color:#E01747"/>
		</linearGradient>
		<path class="st3" d="M217.63,258.82c-3.98,0-7.2,3.22-7.2,7.2s3.22,7.2,7.2,7.2s7.2-3.22,7.2-7.2S221.61,258.82,217.63,258.82z"/>
		
			<linearGradient id="SVGID_5_" gradientUnits="userSpaceOnUse" x1="213.55" y1="445.64" x2="221.71" y2="445.64" gradientTransform="matrix(1 0 0 -1 0 495.89)">
			<stop  offset="0" style="stop-color:#E01747"/>
			<stop  offset="0.5079" style="stop-color:#E10580"/>
			<stop  offset="0.9752" style="stop-color:#E01747"/>
			<stop  offset="1" style="stop-color:#E01747"/>
		</linearGradient>
		<path class="st4" d="M217.63,54.33c2.25,0,4.08-1.83,4.08-4.08s-1.83-4.08-4.08-4.08s-4.08,1.83-4.08,4.08
			C213.56,52.51,215.38,54.33,217.63,54.33z"/>
		
			<linearGradient id="SVGID_6_" gradientUnits="userSpaceOnUse" x1="328.43" y1="461.44" x2="336.15" y2="461.44" gradientTransform="matrix(1 0 0 -1 0 495.89)">
			<stop  offset="0" style="stop-color:#E01747"/>
			<stop  offset="0.5079" style="stop-color:#E10580"/>
			<stop  offset="0.9752" style="stop-color:#E01747"/>
			<stop  offset="1" style="stop-color:#E01747"/>
		</linearGradient>
		<path class="st5" d="M332.29,38.31c2.13,0,3.86-1.73,3.86-3.86s-1.73-3.86-3.86-3.86c-2.13,0-3.86,1.73-3.86,3.86
			S330.16,38.31,332.29,38.31z"/>
		
			<linearGradient id="SVGID_7_" gradientUnits="userSpaceOnUse" x1="440.21" y1="380.24" x2="461.29" y2="380.24" gradientTransform="matrix(1 0 0 -1 0 495.89)">
			<stop  offset="0" style="stop-color:#E01747"/>
			<stop  offset="0.5079" style="stop-color:#E10580"/>
			<stop  offset="0.9752" style="stop-color:#E01747"/>
			<stop  offset="1" style="stop-color:#E01747"/>
		</linearGradient>
		<path class="st6" d="M450.75,126.19c5.82,0,10.54-4.72,10.54-10.54s-4.72-10.54-10.54-10.54s-10.54,4.72-10.54,10.54
			S444.93,126.19,450.75,126.19z"/>
		
			<linearGradient id="SVGID_8_" gradientUnits="userSpaceOnUse" x1="440.21" y1="233.02" x2="461.29" y2="233.02" gradientTransform="matrix(1 0 0 -1 0 495.89)">
			<stop  offset="0" style="stop-color:#E01747"/>
			<stop  offset="0.5079" style="stop-color:#E10580"/>
			<stop  offset="0.9752" style="stop-color:#E01747"/>
			<stop  offset="1" style="stop-color:#E01747"/>
		</linearGradient>
		<circle class="st7" cx="450.75" cy="262.87" r="10.54"/>
		
			<linearGradient id="SVGID_9_" gradientUnits="userSpaceOnUse" x1="446.7" y1="429.18" x2="454.8" y2="429.18" gradientTransform="matrix(1 0 0 -1 0 495.89)">
			<stop  offset="0" style="stop-color:#E01747"/>
			<stop  offset="0.5079" style="stop-color:#E10580"/>
			<stop  offset="0.9752" style="stop-color:#E01747"/>
			<stop  offset="1" style="stop-color:#E01747"/>
		</linearGradient>
		<path class="st8" d="M450.75,70.76c2.24,0,4.05-1.81,4.05-4.05s-1.81-4.05-4.05-4.05s-4.05,1.81-4.05,4.05
			S448.51,70.76,450.75,70.76z"/>
		
			<linearGradient id="SVGID_10_" gradientUnits="userSpaceOnUse" x1="287.55" y1="200.95" x2="308.63" y2="200.95" gradientTransform="matrix(1 0 0 -1 0 495.89)">
			<stop  offset="0" style="stop-color:#E01747"/>
			<stop  offset="0.5079" style="stop-color:#E10580"/>
			<stop  offset="0.9752" style="stop-color:#E01747"/>
			<stop  offset="1" style="stop-color:#E01747"/>
		</linearGradient>
		<path class="st9" d="M298.09,284.4c-5.82,0-10.54,4.72-10.54,10.54s4.72,10.54,10.54,10.54s10.54-4.72,10.54-10.54
			S303.91,284.4,298.09,284.4z"/>
		
			<linearGradient id="SVGID_11_" gradientUnits="userSpaceOnUse" x1="207.1" y1="410.25" x2="228.18" y2="410.25" gradientTransform="matrix(1 0 0 -1 0 495.89)">
			<stop  offset="0" style="stop-color:#E01747"/>
			<stop  offset="0.5079" style="stop-color:#E10580"/>
			<stop  offset="0.9752" style="stop-color:#E01747"/>
			<stop  offset="1" style="stop-color:#E01747"/>
		</linearGradient>
		<path class="st10" d="M217.64,96.18c5.82,0,10.54-4.72,10.54-10.54s-4.72-10.54-10.54-10.54c-5.82,0-10.54,4.72-10.54,10.54
			C207.1,91.47,211.82,96.18,217.64,96.18z"/>
		
			<linearGradient id="SVGID_12_" gradientUnits="userSpaceOnUse" x1="409.3" y1="209.37" x2="417.88" y2="209.37" gradientTransform="matrix(1 0 0 -1 0 495.89)">
			<stop  offset="0" style="stop-color:#E01747"/>
			<stop  offset="0.5079" style="stop-color:#E10580"/>
			<stop  offset="0.9752" style="stop-color:#E01747"/>
			<stop  offset="1" style="stop-color:#E01747"/>
		</linearGradient>
		<path class="st11" d="M413.59,282.23c-2.37,0-4.29,1.92-4.29,4.29s1.92,4.29,4.29,4.29s4.29-1.92,4.29-4.29
			C417.89,284.15,415.96,282.23,413.59,282.23z"/>
		
			<linearGradient id="SVGID_13_" gradientUnits="userSpaceOnUse" x1="252.7369" y1="424.0529" x2="259.1026" y2="424.0529" gradientTransform="matrix(1 0 0 -1 0 495.89)">
			<stop  offset="0" style="stop-color:#E01747"/>
			<stop  offset="0.5079" style="stop-color:#E10580"/>
			<stop  offset="0.9752" style="stop-color:#E01747"/>
			<stop  offset="1" style="stop-color:#E01747"/>
		</linearGradient>
		<path class="st12" d="M257.81,74.39c1.41-1.05,1.7-3.04,0.66-4.45c-1.05-1.41-3.04-1.7-4.45-0.66c-1.41,1.05-1.7,3.04-0.66,4.45
			C254.41,75.14,256.4,75.44,257.81,74.39z"/>
	</g>
	<g class="st13">
		<path class="st14" d="M125.65,450.55c0,1.89-0.68,3.51-2.04,4.87c-1.36,1.36-2.98,2.04-4.87,2.04c-1.89,0-3.52-0.68-4.87-2.04
			c-1.36-1.36-2.04-2.98-2.04-4.87v-55.31c0-5.71-2.03-10.6-6.08-14.66c-4.06-4.05-8.94-6.08-14.66-6.08
			c-1.89,0-3.52-0.68-4.87-2.04c-1.36-1.36-2.04-2.98-2.04-4.87c0-1.94,0.68-3.57,2.04-4.91c1.36-1.34,2.98-2,4.87-2
			c9.54,0,17.7,3.36,24.47,10.09c1.15,1.2,2.21,2.42,3.18,3.66c0.97-1.25,2.05-2.46,3.25-3.66c6.73-6.73,14.86-10.09,24.4-10.09
			c1.89,0,3.51,0.67,4.87,2c1.36,1.34,2.04,2.97,2.04,4.91c0,1.89-0.68,3.52-2.04,4.87c-1.36,1.36-2.98,2.04-4.87,2.04
			c-5.72,0-10.6,2.03-14.66,6.08c-4.06,4.06-6.08,8.94-6.08,14.66V450.55z"/>
		<path class="st14" d="M187.53,457.47c-13.37,0-24.77-4.72-34.22-14.17c-9.45-9.45-14.17-20.85-14.17-34.22
			c0-13.37,4.72-24.77,14.17-34.22c9.45-9.45,20.85-14.17,34.22-14.17c13.37,0,24.77,4.72,34.22,14.17
			c9.45,9.45,14.17,20.86,14.17,34.22c0,13.37-4.72,24.77-14.17,34.22C212.3,452.74,200.89,457.47,187.53,457.47z M187.53,443.64
			c9.54,0,17.69-3.38,24.44-10.13c6.75-6.75,10.13-14.9,10.13-24.44c0-9.54-3.38-17.69-10.13-24.44
			c-6.75-6.75-14.9-10.13-24.44-10.13s-17.69,3.38-24.44,10.13c-6.75,6.75-10.13,14.9-10.13,24.44c0,9.54,3.38,17.69,10.13,24.44
			C169.84,440.27,177.99,443.64,187.53,443.64z"/>
		<path class="st14" d="M302.29,360.68c1.89,0,3.51,0.68,4.87,2.04c1.36,1.36,2.04,2.99,2.04,4.87c0,1.89-0.68,3.52-2.04,4.87
			c-1.36,1.36-2.98,2.04-4.87,2.04h-13.83c-9.54,0-17.69,3.38-24.44,10.13c-6.75,6.75-10.13,14.9-10.13,24.44
			c0,9.54,3.38,17.69,10.13,24.44c6.75,6.75,14.9,10.13,24.44,10.13h13.83c1.89,0,3.51,0.68,4.87,2.04
			c1.36,1.36,2.04,2.98,2.04,4.87s-0.68,3.51-2.04,4.87c-1.36,1.36-2.98,2.04-4.87,2.04h-13.83c-13.37,0-24.77-4.72-34.22-14.17
			c-9.45-9.45-14.17-20.85-14.17-34.22c0-13.37,4.72-24.77,14.17-34.22c9.45-9.45,20.85-14.17,34.22-14.17H302.29z"/>
		<path class="st14" d="M324.62,450.55c0,1.89-0.68,3.51-2.04,4.87c-1.36,1.36-2.98,2.04-4.87,2.04c-1.89,0-3.52-0.68-4.87-2.04
			c-1.36-1.36-2.04-2.98-2.04-4.87v-55.31c0-9.54,3.38-17.69,10.13-24.44c6.75-6.75,14.9-10.13,24.44-10.13
			c9.54,0,17.69,3.38,24.44,10.13c6.75,6.75,10.13,14.9,10.13,24.44v55.31c0,1.89-0.68,3.51-2.04,4.87
			c-1.36,1.36-2.99,2.04-4.87,2.04c-1.89,0-3.52-0.68-4.87-2.04c-1.36-1.36-2.04-2.98-2.04-4.87v-20.74h-41.48V450.55z
			 M324.62,395.25v20.74h41.48v-20.74c0-5.71-2.03-10.6-6.08-14.66c-4.06-4.05-8.94-6.08-14.66-6.08c-5.72,0-10.6,2.03-14.66,6.08
			C326.65,384.65,324.62,389.53,324.62,395.25z"/>
		<path class="st14" d="M462.75,447.86c-8.39,6.41-18.09,9.61-29.11,9.61c-13.37,0-24.77-4.72-34.22-14.17
			c-9.45-9.45-14.17-20.85-14.17-34.22c0-13.37,4.72-24.77,14.17-34.22c9.45-9.45,20.85-14.17,34.22-14.17
			c13.37,0,24.77,4.72,34.22,14.17s14.17,20.86,14.17,34.22c0,10.97-3.2,20.63-9.61,28.97l7.6,7.6c1.34,1.38,2,3.02,2,4.91
			s-0.68,3.51-2.04,4.87c-1.36,1.36-2.99,2.04-4.87,2.04c-1.89,0-3.5-0.69-4.84-2.07c-0.23-0.18-0.44-0.39-0.62-0.62L462.75,447.86z
			 M462.54,428.15c3.78-5.58,5.67-11.94,5.67-19.08c0-9.54-3.38-17.69-10.13-24.44s-14.9-10.13-24.44-10.13
			c-9.54,0-17.69,3.38-24.44,10.13c-6.75,6.75-10.13,14.9-10.13,24.44c0,9.54,3.38,17.69,10.13,24.44
			c6.75,6.75,14.9,10.13,24.44,10.13c7.19,0,13.57-1.91,19.15-5.74l-9.54-9.54c-0.23-0.18-0.44-0.39-0.62-0.62
			c-1.38-1.34-2.07-2.95-2.07-4.84c0-1.89,0.68-3.51,2.04-4.87c1.36-1.36,2.98-2.04,4.87-2.04s3.53,0.67,4.91,2L462.54,428.15z"/>
		<path class="st14" d="M542.74,367.59c0-1.94,0.67-3.57,2-4.91c1.34-1.34,2.97-2,4.91-2c1.89,0,3.51,0.67,4.87,2
			c1.36,1.34,2.04,2.97,2.04,4.91v55.31c0,7.14-1.89,13.5-5.67,19.08l3.66,3.66c1.34,1.38,2,3.02,2,4.91s-0.67,3.53-2,4.91
			c-1.38,1.34-3.02,2-4.91,2s-3.53-0.67-4.91-2l-3.66-3.66c-5.58,3.78-11.94,5.67-19.08,5.67c-9.54,0-17.69-3.38-24.44-10.13
			s-10.13-14.9-10.13-24.44v-55.31c0-1.94,0.67-3.57,2-4.91c1.34-1.34,2.97-2,4.91-2c1.89,0,3.51,0.67,4.87,2
			c1.36,1.34,2.04,2.97,2.04,4.91v55.31c0,5.72,2.03,10.6,6.08,14.66c4.05,4.06,8.94,6.08,14.66,6.08c5.71,0,10.6-2.03,14.66-6.08
			c4.06-4.05,6.08-8.94,6.08-14.66V367.59z"/>
		<path class="st14" d="M577.31,450.55c0,1.89-0.68,3.51-2.04,4.87s-2.98,2.04-4.87,2.04s-3.51-0.68-4.87-2.04s-2.04-2.98-2.04-4.87
			v-82.96c0-1.89,0.68-3.51,2.04-4.87c1.36-1.36,2.98-2.04,4.87-2.04s3.51,0.68,4.87,2.04c1.36,1.36,2.04,2.99,2.04,4.87V450.55z"/>
	</g>
</g>
</svg>
