<?xml version="1.0" encoding="utf-8"?>
<!-- Generator: Adobe Illustrator 25.3.1, SVG Export Plug-In . SVG Version: 6.00 Build 0)  -->
<svg version="1.1" id="Camada_1" xmlns="http://www.w3.org/2000/svg" xmlns:xlink="http://www.w3.org/1999/xlink" x="0px" y="0px"
	 viewBox="0 0 665.52 422.87" style="enable-background:new 0 0 665.52 422.87;" xml:space="preserve">
<style type="text/css">
	.st0{enable-background:new    ;}
	.st1{fill:url(#SVGID_1_);}
	.st2{fill:url(#SVGID_2_);}
	.st3{fill:url(#SVGID_3_);}
	.st4{fill:url(#SVGID_4_);}
	.st5{fill:url(#SVGID_5_);}
	.st6{fill:url(#SVGID_6_);}
	.st7{fill:url(#SVGID_7_);}
	.st8{fill:url(#SVGID_8_);}
	.st9{fill:url(#SVGID_9_);}
	.st10{fill:url(#SVGID_10_);}
	.st11{fill:url(#SVGID_11_);}
	.st12{fill:url(#SVGID_12_);}
	.st13{fill:url(#SVGID_13_);}
	.st14{fill:url(#SVGID_14_);}
	.st15{fill:url(#SVGID_15_);}
	.st16{fill:url(#SVGID_16_);}
	.st17{fill:url(#SVGID_17_);}
	.st18{fill:url(#SVGID_18_);}
	.st19{fill:url(#SVGID_19_);}
	.st20{fill:url(#SVGID_20_);}
	.st21{fill:url(#SVGID_21_);}
	.st22{fill:url(#SVGID_22_);}
	.st23{fill:url(#SVGID_23_);}
	.st24{fill:url(#SVGID_24_);}
	.st25{fill:url(#SVGID_25_);}
	.st26{fill:url(#SVGID_26_);}
	.st27{fill:url(#SVGID_27_);}
	.st28{fill:url(#SVGID_28_);}
	.st29{fill:url(#SVGID_29_);}
	.st30{fill:url(#SVGID_30_);}
	.st31{fill:url(#SVGID_31_);}
	.st32{fill:url(#SVGID_32_);}
	.st33{fill:url(#SVGID_33_);}
	.st34{fill:url(#SVGID_34_);}
	.st35{fill:url(#SVGID_35_);}
	.st36{fill:url(#SVGID_36_);}
	.st37{fill:url(#SVGID_37_);}
	.st38{fill:url(#SVGID_38_);}
	.st39{fill:url(#SVGID_39_);}
	.st40{fill:url(#SVGID_40_);}
	.st41{fill:url(#SVGID_41_);}
	.st42{fill:url(#SVGID_42_);}
	.st43{fill:url(#SVGID_43_);}
	.st44{fill:url(#SVGID_44_);}
	.st45{fill:url(#SVGID_45_);}
	.st46{fill:url(#SVGID_46_);}
	.st47{fill:url(#SVGID_47_);}
	.st48{fill:url(#SVGID_48_);}
	.st49{fill:url(#SVGID_49_);}
	.st50{fill:url(#SVGID_50_);}
	.st51{fill:url(#SVGID_51_);}
	.st52{fill:url(#SVGID_52_);}
	.st53{fill:url(#SVGID_53_);}
	.st54{fill:url(#SVGID_54_);}
	.st55{fill:url(#SVGID_55_);}
	.st56{fill:url(#SVGID_56_);}
</style>
<g>
	<g class="st0">
		<path d="M136.26,261.58v17.71h-23.92v64.73H93.57v-64.73H69.54v-17.71H136.26z"/>
		<path d="M177.3,345.42c-6.72,0-12.82-1.21-18.29-3.63c-5.47-2.42-10.18-5.63-14.13-9.62c-3.95-3.99-7-8.56-9.15-13.72
			c-2.15-5.16-3.22-10.44-3.22-15.83s1.07-10.65,3.22-15.77c2.15-5.12,5.2-9.69,9.15-13.72c3.95-4.02,8.66-7.25,14.13-9.67
			c5.47-2.42,11.57-3.64,18.29-3.64c6.72,0,12.84,1.21,18.35,3.64c5.51,2.42,10.24,5.63,14.19,9.61c3.95,3.99,7.02,8.56,9.2,13.72
			c2.19,5.16,3.28,10.44,3.28,15.83s-1.1,10.67-3.28,15.83c-2.19,5.16-5.26,9.73-9.2,13.72c-3.95,3.99-8.68,7.19-14.19,9.62
			C190.13,344.21,184.02,345.42,177.3,345.42z M151.03,302.62c0,3.28,0.65,6.47,1.93,9.56c1.29,3.09,3.11,5.8,5.45,8.15
			c2.35,2.34,5.12,4.22,8.33,5.63c3.2,1.41,6.72,2.11,10.55,2.11c3.91,0,7.46-0.7,10.67-2.11c3.2-1.41,5.96-3.28,8.27-5.63
			c2.3-2.35,4.1-5.04,5.39-8.09s1.93-6.25,1.93-9.62c0-3.28-0.64-6.45-1.93-9.5c-1.29-3.05-3.11-5.75-5.45-8.09
			c-2.34-2.35-5.12-4.22-8.33-5.63c-3.21-1.41-6.72-2.11-10.55-2.11c-3.75,0-7.23,0.7-10.44,2.11c-3.21,1.41-5.98,3.28-8.33,5.63
			c-2.35,2.34-4.18,5.04-5.51,8.09C151.69,296.18,151.03,299.34,151.03,302.62z"/>
		<path d="M227.01,302.62c0-5.94,1.21-11.43,3.63-16.47c2.42-5.04,5.65-9.38,9.67-13.02c4.02-3.63,8.68-6.47,13.95-8.5
			c5.28-2.03,10.77-3.05,16.47-3.05h24.04v17.35h-22.86c-3.83,0-7.27,0.63-10.32,1.88c-3.05,1.25-5.65,2.93-7.8,5.04
			c-2.15,2.11-3.79,4.61-4.92,7.5c-1.13,2.89-1.7,5.98-1.7,9.26c0,3.36,0.6,6.51,1.82,9.44c1.21,2.93,2.95,5.47,5.22,7.62
			c2.27,2.15,4.98,3.85,8.15,5.1c3.17,1.25,6.7,1.88,10.61,1.88h21.81v17.35H271.8c-6.65,0-12.7-1.11-18.17-3.34
			c-5.47-2.23-10.18-5.24-14.13-9.03c-3.95-3.79-7.02-8.19-9.2-13.19C228.11,313.45,227.01,308.18,227.01,302.62z"/>
		<path d="M339.34,261.94h18.41l38.69,82.08h-20.64c-1.25-2.03-2.83-3.83-4.75-5.39c-1.92-1.56-4.04-2.87-6.39-3.93
			c-2.34-1.05-4.85-1.86-7.5-2.4c-2.66-0.55-5.35-0.82-8.09-0.82c-5.32,0-10.46,1.02-15.42,3.05c-4.96,2.03-9.09,5.2-12.37,9.5
			h-20.64L339.34,261.94z M334.77,314.7c2.5-0.62,5.04-1.07,7.62-1.35c2.58-0.27,5.12-0.41,7.62-0.41c4.3,0.16,8.4,0.67,12.31,1.52
			l-13.72-29.08L334.77,314.7z"/>
		<path d="M391.05,302.04c0-5.39,1.07-10.67,3.22-15.83c2.15-5.16,5.18-9.73,9.09-13.72c3.91-3.99,8.62-7.19,14.13-9.62
			c5.51-2.42,11.63-3.63,18.35-3.63c6.72,0,12.84,1.21,18.35,3.63c5.51,2.42,10.24,5.63,14.19,9.62c3.95,3.99,7.01,8.54,9.2,13.66
			c2.19,5.12,3.28,10.42,3.28,15.89c0,7.04-1.72,13.76-5.16,20.17c-2.81-1.56-5.88-2.7-9.2-3.4c-3.32-0.7-6.78-0.82-10.38-0.35
			c1.88-2.42,3.34-4.92,4.4-7.5c1.06-2.58,1.58-5.55,1.58-8.91c0-3.28-0.64-6.49-1.93-9.62c-1.29-3.13-3.11-5.92-5.45-8.38
			c-2.35-2.46-5.12-4.46-8.33-5.98c-3.21-1.52-6.72-2.29-10.55-2.29c-3.83,0-7.35,0.76-10.55,2.29c-3.21,1.52-5.98,3.52-8.33,5.98
			c-2.34,2.46-4.16,5.26-5.45,8.38c-1.29,3.13-1.94,6.33-1.94,9.62c0,3.67,0.66,7.04,1.99,10.08c1.33,3.05,3.15,5.71,5.45,7.97
			c2.3,2.27,4.98,4.1,8.03,5.51s6.33,2.27,9.85,2.58c1.48,0,2.79-0.19,3.93-0.59c1.13-0.39,2.36-0.9,3.69-1.52
			c2.74-1.41,5.43-2.42,8.09-3.05c2.66-0.62,5.32-0.94,7.97-0.94c3.28,0,6.45,0.49,9.5,1.47c3.05,0.98,5.8,2.33,8.27,4.04
			c2.46,1.72,4.57,3.77,6.33,6.16c1.76,2.39,3.03,5.02,3.81,7.92l0.7,2.46h-19.35c-0.08-0.08-0.16-0.19-0.24-0.35
			c-0.08-0.16-0.16-0.27-0.23-0.35c-0.08-0.08-0.12-0.19-0.12-0.35c-0.7-1.33-1.86-2.46-3.46-3.4c-1.6-0.94-3.42-1.41-5.45-1.41
			c-1.41,0-2.58,0.2-3.52,0.59c-0.94,0.39-2.03,1.02-3.28,1.88c-2.58,1.8-5.08,2.97-7.5,3.52c-2.42,0.55-5.16,0.82-8.21,0.82
			c-6.72,0-12.84-1.23-18.35-3.69c-5.51-2.46-10.22-5.72-14.13-9.79c-3.91-4.06-6.94-8.66-9.09-13.78
			C392.13,312.69,391.05,307.43,391.05,302.04z"/>
		<path d="M526.13,345.54c-5.47,0-10.46-1-14.95-2.99c-4.5-1.99-8.37-4.61-11.61-7.86c-3.25-3.24-5.75-6.96-7.5-11.14
			c-1.76-4.18-2.64-8.5-2.64-12.96v-49.01h18.64v49.01c0,2.27,0.45,4.46,1.35,6.57c0.9,2.11,2.15,3.99,3.75,5.63
			c1.6,1.64,3.52,2.95,5.75,3.93c2.23,0.98,4.63,1.46,7.21,1.46c2.66,0,5.08-0.49,7.27-1.46c2.19-0.98,4.08-2.27,5.69-3.87
			c1.6-1.6,2.85-3.46,3.75-5.57c0.9-2.11,1.35-4.34,1.35-6.68v-49.01h18.64v49.01c0,4.46-0.88,8.78-2.64,12.96
			c-1.76,4.18-4.24,7.9-7.45,11.14c-3.21,3.25-7.08,5.86-11.61,7.86C536.61,344.54,531.6,345.54,526.13,345.54z"/>
		<path d="M572.21,344.02V261.7h18.64v82.31H572.21z"/>
	</g>
	<g>
		
			<linearGradient id="SVGID_1_" gradientUnits="userSpaceOnUse" x1="228.95" y1="281.39" x2="234.85" y2="281.39" gradientTransform="matrix(1 0 0 -1 0 423.89)">
			<stop  offset="0" style="stop-color:#E01747"/>
			<stop  offset="0.5079" style="stop-color:#E10580"/>
			<stop  offset="0.9752" style="stop-color:#E01747"/>
			<stop  offset="1" style="stop-color:#E01747"/>
		</linearGradient>
		<path class="st1" d="M231.9,112.72c-1.63,0-2.95,1.32-2.95,2.95v53.66c0,1.63,1.32,2.95,2.95,2.95s2.95-1.32,2.95-2.95v-53.66
			C234.85,114.04,233.53,112.72,231.9,112.72z"/>
		
			<linearGradient id="SVGID_2_" gradientUnits="userSpaceOnUse" x1="238.48" y1="290.625" x2="244.3801" y2="290.625" gradientTransform="matrix(1 0 0 -1 0 423.89)">
			<stop  offset="0" style="stop-color:#E01747"/>
			<stop  offset="0.5079" style="stop-color:#E10580"/>
			<stop  offset="0.9752" style="stop-color:#E01747"/>
			<stop  offset="1" style="stop-color:#E01747"/>
		</linearGradient>
		<path class="st2" d="M241.43,116.92L241.43,116.92c-1.63,0-2.95,1.32-2.95,2.95v26.79c0,1.63,1.32,2.95,2.95,2.95l0,0
			c1.63,0,2.95-1.32,2.95-2.95v-26.79C244.39,118.24,243.07,116.92,241.43,116.92z"/>
		
			<linearGradient id="SVGID_3_" gradientUnits="userSpaceOnUse" x1="200.34" y1="295.47" x2="206.2431" y2="295.47" gradientTransform="matrix(1 0 0 -1 0 423.89)">
			<stop  offset="0" style="stop-color:#E01747"/>
			<stop  offset="0.5079" style="stop-color:#E10580"/>
			<stop  offset="0.9752" style="stop-color:#E01747"/>
			<stop  offset="1" style="stop-color:#E01747"/>
		</linearGradient>
		<path class="st3" d="M203.29,112.43c-1.63,0-2.95,1.32-2.95,2.95v26.48c0,1.41,1.14,2.55,2.55,2.55h0.79
			c1.41,0,2.55-1.14,2.55-2.55v-26.48C206.25,113.75,204.92,112.43,203.29,112.43z"/>
		
			<linearGradient id="SVGID_4_" gradientUnits="userSpaceOnUse" x1="324.3" y1="317.3" x2="330.2" y2="317.3" gradientTransform="matrix(1 0 0 -1 0 423.89)">
			<stop  offset="0" style="stop-color:#E01747"/>
			<stop  offset="0.5079" style="stop-color:#E10580"/>
			<stop  offset="0.9752" style="stop-color:#E01747"/>
			<stop  offset="1" style="stop-color:#E01747"/>
		</linearGradient>
		<path class="st4" d="M327.25,80.62c-1.63,0-2.95,1.32-2.95,2.95v46.04c0,1.63,1.32,2.95,2.95,2.95s2.95-1.32,2.95-2.95V83.57
			C330.2,81.94,328.88,80.62,327.25,80.62z"/>
		
			<linearGradient id="SVGID_5_" gradientUnits="userSpaceOnUse" x1="324.3" y1="353.025" x2="330.2" y2="353.025" gradientTransform="matrix(1 0 0 -1 0 423.89)">
			<stop  offset="0" style="stop-color:#E01747"/>
			<stop  offset="0.5079" style="stop-color:#E10580"/>
			<stop  offset="0.9752" style="stop-color:#E01747"/>
			<stop  offset="1" style="stop-color:#E01747"/>
		</linearGradient>
		<path class="st5" d="M327.25,64.48L327.25,64.48c-1.63,0-2.95,1.32-2.95,2.95v6.87c0,1.63,1.32,2.95,2.95,2.95l0,0
			c1.63,0,2.95-1.32,2.95-2.95v-6.87C330.2,65.8,328.88,64.48,327.25,64.48z"/>
		
			<linearGradient id="SVGID_6_" gradientUnits="userSpaceOnUse" x1="324.3" y1="256.77" x2="330.2" y2="256.77" gradientTransform="matrix(1 0 0 -1 0 423.89)">
			<stop  offset="0" style="stop-color:#E01747"/>
			<stop  offset="0.5079" style="stop-color:#E10580"/>
			<stop  offset="0.9752" style="stop-color:#E01747"/>
			<stop  offset="1" style="stop-color:#E01747"/>
		</linearGradient>
		<path class="st6" d="M327.25,134.07c-1.63,0-2.95,1.32-2.95,2.95v60.2c0,1.63,1.32,2.95,2.95,2.95s2.95-1.32,2.95-2.95v-60.2
			C330.2,135.39,328.88,134.07,327.25,134.07z"/>
		
			<linearGradient id="SVGID_7_" gradientUnits="userSpaceOnUse" x1="333.84" y1="290.625" x2="339.74" y2="290.625" gradientTransform="matrix(1 0 0 -1 0 423.89)">
			<stop  offset="0" style="stop-color:#E01747"/>
			<stop  offset="0.5079" style="stop-color:#E10580"/>
			<stop  offset="0.9752" style="stop-color:#E01747"/>
			<stop  offset="1" style="stop-color:#E01747"/>
		</linearGradient>
		<path class="st7" d="M336.79,95.54c-1.63,0-2.95,1.32-2.95,2.95v69.55c0,1.63,1.32,2.95,2.95,2.95s2.95-1.32,2.95-2.95V98.49
			C339.74,96.86,338.42,95.54,336.79,95.54z"/>
		
			<linearGradient id="SVGID_8_" gradientUnits="userSpaceOnUse" x1="314.77" y1="332.47" x2="320.67" y2="332.47" gradientTransform="matrix(1 0 0 -1 0 423.89)">
			<stop  offset="0" style="stop-color:#E01747"/>
			<stop  offset="0.5079" style="stop-color:#E10580"/>
			<stop  offset="0.9752" style="stop-color:#E01747"/>
			<stop  offset="1" style="stop-color:#E01747"/>
		</linearGradient>
		<path class="st8" d="M317.72,73.49c-1.63,0-2.95,1.32-2.95,2.95v29.96c0,1.63,1.32,2.95,2.95,2.95s2.95-1.32,2.95-2.95V76.45
			C320.67,74.82,319.35,73.49,317.72,73.49z"/>
		
			<linearGradient id="SVGID_9_" gradientUnits="userSpaceOnUse" x1="314.77" y1="262.795" x2="320.67" y2="262.795" gradientTransform="matrix(1 0 0 -1 0 423.89)">
			<stop  offset="0" style="stop-color:#E01747"/>
			<stop  offset="0.5079" style="stop-color:#E10580"/>
			<stop  offset="0.9752" style="stop-color:#E01747"/>
			<stop  offset="1" style="stop-color:#E01747"/>
		</linearGradient>
		<path class="st9" d="M317.72,111.57c-1.63,0-2.95,1.32-2.95,2.95v93.15c0,1.63,1.32,2.95,2.95,2.95s2.95-1.32,2.95-2.95v-93.15
			C320.67,112.89,319.35,111.57,317.72,111.57z"/>
		
			<linearGradient id="SVGID_10_" gradientUnits="userSpaceOnUse" x1="209.88" y1="289.73" x2="215.783" y2="289.73" gradientTransform="matrix(1 0 0 -1 0 423.89)">
			<stop  offset="0" style="stop-color:#E01747"/>
			<stop  offset="0.5079" style="stop-color:#E10580"/>
			<stop  offset="0.9752" style="stop-color:#E01747"/>
			<stop  offset="1" style="stop-color:#E01747"/>
		</linearGradient>
		<path class="st10" d="M212.83,111.89c-1.63,0-2.95,1.32-2.95,2.95v39.04c0,1.41,1.14,2.55,2.55,2.55h0.79
			c1.41,0,2.55-1.14,2.55-2.55v-39.04C215.78,113.21,214.46,111.89,212.83,111.89z"/>
		
			<linearGradient id="SVGID_11_" gradientUnits="userSpaceOnUse" x1="209.88" y1="320.26" x2="215.783" y2="320.26" gradientTransform="matrix(1 0 0 -1 0 423.89)">
			<stop  offset="0" style="stop-color:#E01747"/>
			<stop  offset="0.5079" style="stop-color:#E10580"/>
			<stop  offset="0.9752" style="stop-color:#E01747"/>
			<stop  offset="1" style="stop-color:#E01747"/>
		</linearGradient>
		<path class="st11" d="M212.83,97.52c-1.63,0-2.95,1.32-2.95,2.95v6.72c0,1.41,1.14,2.55,2.55,2.55h0.79
			c1.41,0,2.55-1.14,2.55-2.55v-6.72C215.78,98.84,214.46,97.52,212.83,97.52z"/>
		
			<linearGradient id="SVGID_12_" gradientUnits="userSpaceOnUse" x1="295.7" y1="302.78" x2="301.6" y2="302.78" gradientTransform="matrix(1 0 0 -1 0 423.89)">
			<stop  offset="0" style="stop-color:#E01747"/>
			<stop  offset="0.5079" style="stop-color:#E10580"/>
			<stop  offset="0.9752" style="stop-color:#E01747"/>
			<stop  offset="1" style="stop-color:#E01747"/>
		</linearGradient>
		<path class="st12" d="M298.65,45.16c-1.63,0-2.95,1.32-2.95,2.95v146c0,1.63,1.32,2.95,2.95,2.95s2.95-1.32,2.95-2.95v-146
			C301.6,46.48,300.28,45.16,298.65,45.16z"/>
		
			<linearGradient id="SVGID_13_" gradientUnits="userSpaceOnUse" x1="295.7" y1="213.305" x2="301.6" y2="213.305" gradientTransform="matrix(1 0 0 -1 0 423.89)">
			<stop  offset="0" style="stop-color:#E01747"/>
			<stop  offset="0.5079" style="stop-color:#E10580"/>
			<stop  offset="0.9752" style="stop-color:#E01747"/>
			<stop  offset="1" style="stop-color:#E01747"/>
		</linearGradient>
		<path class="st13" d="M298.65,199.75c-1.63,0-2.95,1.32-2.95,2.95v15.77c0,1.63,1.32,2.95,2.95,2.95s2.95-1.32,2.95-2.95V202.7
			C301.6,201.07,300.28,199.75,298.65,199.75z"/>
		
			<linearGradient id="SVGID_14_" gradientUnits="userSpaceOnUse" x1="267.09" y1="290.62" x2="272.99" y2="290.62" gradientTransform="matrix(1 0 0 -1 0 423.89)">
			<stop  offset="0" style="stop-color:#E01747"/>
			<stop  offset="0.5079" style="stop-color:#E10580"/>
			<stop  offset="0.9752" style="stop-color:#E01747"/>
			<stop  offset="1" style="stop-color:#E01747"/>
		</linearGradient>
		<path class="st14" d="M270.04,57.03c-1.63,0-2.95,1.32-2.95,2.95v146.58c0,1.63,1.32,2.95,2.95,2.95s2.95-1.32,2.95-2.95V59.98
			C272.99,58.35,271.67,57.03,270.04,57.03z"/>
		
			<linearGradient id="SVGID_15_" gradientUnits="userSpaceOnUse" x1="276.63" y1="309.045" x2="282.53" y2="309.045" gradientTransform="matrix(1 0 0 -1 0 423.89)">
			<stop  offset="0" style="stop-color:#E01747"/>
			<stop  offset="0.5079" style="stop-color:#E10580"/>
			<stop  offset="0.9752" style="stop-color:#E01747"/>
			<stop  offset="1" style="stop-color:#E01747"/>
		</linearGradient>
		<path class="st15" d="M279.58,76.43c-1.63,0-2.95,1.32-2.95,2.95v70.93c0,1.63,1.32,2.95,2.95,2.95s2.95-1.32,2.95-2.95V79.38
			C282.53,77.75,281.21,76.43,279.58,76.43z"/>
		
			<linearGradient id="SVGID_16_" gradientUnits="userSpaceOnUse" x1="276.63" y1="250.355" x2="282.53" y2="250.355" gradientTransform="matrix(1 0 0 -1 0 423.89)">
			<stop  offset="0" style="stop-color:#E01747"/>
			<stop  offset="0.5079" style="stop-color:#E10580"/>
			<stop  offset="0.9752" style="stop-color:#E01747"/>
			<stop  offset="1" style="stop-color:#E01747"/>
		</linearGradient>
		<path class="st16" d="M279.58,154.77c-1.63,0-2.95,1.32-2.95,2.95v31.63c0,1.63,1.32,2.95,2.95,2.95s2.95-1.32,2.95-2.95v-31.63
			C282.53,156.09,281.21,154.77,279.58,154.77z"/>
		
			<linearGradient id="SVGID_17_" gradientUnits="userSpaceOnUse" x1="286.16" y1="270.42" x2="292.06" y2="270.42" gradientTransform="matrix(1 0 0 -1 0 423.89)">
			<stop  offset="0" style="stop-color:#E01747"/>
			<stop  offset="0.5079" style="stop-color:#E10580"/>
			<stop  offset="0.9752" style="stop-color:#E01747"/>
			<stop  offset="1" style="stop-color:#E01747"/>
		</linearGradient>
		<path class="st17" d="M289.11,99.11c-1.63,0-2.95,1.32-2.95,2.95v102.82c0,1.63,1.32,2.95,2.95,2.95s2.95-1.32,2.95-2.95V102.06
			C292.06,100.43,290.74,99.11,289.11,99.11z"/>
		
			<linearGradient id="SVGID_18_" gradientUnits="userSpaceOnUse" x1="286.16" y1="340.62" x2="292.06" y2="340.62" gradientTransform="matrix(1 0 0 -1 0 423.89)">
			<stop  offset="0" style="stop-color:#E01747"/>
			<stop  offset="0.5079" style="stop-color:#E10580"/>
			<stop  offset="0.9752" style="stop-color:#E01747"/>
			<stop  offset="1" style="stop-color:#E01747"/>
		</linearGradient>
		<path class="st18" d="M289.11,96.54c1.63,0,2.95-1.32,2.95-2.95V72.95c0-1.63-1.32-2.95-2.95-2.95s-2.95,1.32-2.95,2.95v20.64
			C286.16,95.22,287.48,96.54,289.11,96.54z"/>
		
			<linearGradient id="SVGID_19_" gradientUnits="userSpaceOnUse" x1="286.16" y1="362.62" x2="292.06" y2="362.62" gradientTransform="matrix(1 0 0 -1 0 423.89)">
			<stop  offset="0" style="stop-color:#E01747"/>
			<stop  offset="0.5079" style="stop-color:#E10580"/>
			<stop  offset="0.9752" style="stop-color:#E01747"/>
			<stop  offset="1" style="stop-color:#E01747"/>
		</linearGradient>
		<path class="st19" d="M289.11,67.43c1.63,0,2.95-1.32,2.95-2.95v-6.42c0-1.63-1.32-2.95-2.95-2.95s-2.95,1.32-2.95,2.95v6.42
			C286.16,66.11,287.48,67.43,289.11,67.43z"/>
		
			<linearGradient id="SVGID_20_" gradientUnits="userSpaceOnUse" x1="257.5539" y1="290.62" x2="263.4539" y2="290.62" gradientTransform="matrix(1 0 0 -1 0 423.89)">
			<stop  offset="0" style="stop-color:#E01747"/>
			<stop  offset="0.5079" style="stop-color:#E10580"/>
			<stop  offset="0.9752" style="stop-color:#E01747"/>
			<stop  offset="1" style="stop-color:#E01747"/>
		</linearGradient>
		<path class="st20" d="M260.51,88.38c-1.63,0-2.95,1.32-2.95,2.95v83.88c0,1.63,1.32,2.95,2.95,2.95s2.95-1.32,2.95-2.95V91.33
			C263.46,89.7,262.14,88.38,260.51,88.38z"/>
		
			<linearGradient id="SVGID_21_" gradientUnits="userSpaceOnUse" x1="305.23" y1="290.62" x2="311.13" y2="290.62" gradientTransform="matrix(1 0 0 -1 0 423.89)">
			<stop  offset="0" style="stop-color:#E01747"/>
			<stop  offset="0.5079" style="stop-color:#E10580"/>
			<stop  offset="0.9752" style="stop-color:#E01747"/>
			<stop  offset="1" style="stop-color:#E01747"/>
		</linearGradient>
		<path class="st21" d="M308.18,80.04c-1.63,0-2.95,1.32-2.95,2.95v100.56c0,1.63,1.32,2.95,2.95,2.95s2.95-1.32,2.95-2.95V82.99
			C311.13,81.36,309.81,80.04,308.18,80.04z"/>
		
			<linearGradient id="SVGID_22_" gradientUnits="userSpaceOnUse" x1="248.02" y1="290.625" x2="253.92" y2="290.625" gradientTransform="matrix(1 0 0 -1 0 423.89)">
			<stop  offset="0" style="stop-color:#E01747"/>
			<stop  offset="0.5079" style="stop-color:#E10580"/>
			<stop  offset="0.9752" style="stop-color:#E01747"/>
			<stop  offset="1" style="stop-color:#E01747"/>
		</linearGradient>
		<path class="st22" d="M250.97,106.54c-1.63,0-2.95,1.32-2.95,2.95v47.55c0,1.63,1.32,2.95,2.95,2.95s2.95-1.32,2.95-2.95v-47.55
			C253.92,107.86,252.6,106.54,250.97,106.54z"/>
		
			<linearGradient id="SVGID_23_" gradientUnits="userSpaceOnUse" x1="71.16" y1="295.465" x2="196.7001" y2="295.465" gradientTransform="matrix(1 0 0 -1 0 423.89)">
			<stop  offset="0" style="stop-color:#E01747"/>
			<stop  offset="0.5079" style="stop-color:#E10580"/>
			<stop  offset="0.9752" style="stop-color:#E01747"/>
			<stop  offset="1" style="stop-color:#E01747"/>
		</linearGradient>
		<path class="st23" d="M193.76,121.01L193.76,121.01c-1.63,0-2.95,1.32-2.95,2.95v1.91H72.68c-0.84,0-1.52,0.68-1.52,1.52
			s0.68,1.52,1.52,1.52H190.8v3.98c0,1.63,1.32,2.95,2.95,2.95l0,0c1.63,0,2.95-1.32,2.95-2.95v-8.93
			C196.71,122.33,195.39,121.01,193.76,121.01z"/>
		
			<linearGradient id="SVGID_24_" gradientUnits="userSpaceOnUse" x1="219.41" y1="311.13" x2="225.3131" y2="311.13" gradientTransform="matrix(1 0 0 -1 0 423.89)">
			<stop  offset="0" style="stop-color:#E01747"/>
			<stop  offset="0.5079" style="stop-color:#E10580"/>
			<stop  offset="0.9752" style="stop-color:#E01747"/>
			<stop  offset="1" style="stop-color:#E01747"/>
		</linearGradient>
		<path class="st24" d="M222.36,84.24L222.36,84.24c-1.63,0-2.95,1.32-2.95,2.95v51.54c0,1.41,1.14,2.55,2.55,2.55h0.79
			c1.41,0,2.55-1.14,2.55-2.55V87.19C225.32,85.56,223.99,84.24,222.36,84.24z"/>
		
			<linearGradient id="SVGID_25_" gradientUnits="userSpaceOnUse" x1="219.41" y1="263.515" x2="225.313" y2="263.515" gradientTransform="matrix(1 0 0 -1 0 423.89)">
			<stop  offset="0" style="stop-color:#E01747"/>
			<stop  offset="0.5079" style="stop-color:#E10580"/>
			<stop  offset="0.9752" style="stop-color:#E01747"/>
			<stop  offset="1" style="stop-color:#E01747"/>
		</linearGradient>
		<path class="st25" d="M222.36,144.42c-1.63,0-2.95,1.32-2.95,2.95v26.41c0,1.41,1.14,2.55,2.55,2.55h0.79
			c1.41,0,2.55-1.14,2.55-2.55v-26.41C225.32,145.74,223.99,144.42,222.36,144.42z"/>
		
			<linearGradient id="SVGID_26_" gradientUnits="userSpaceOnUse" x1="419.6535" y1="289.365" x2="425.5535" y2="289.365" gradientTransform="matrix(1 0 0 -1 0 423.89)">
			<stop  offset="0" style="stop-color:#E01747"/>
			<stop  offset="0.5079" style="stop-color:#E10580"/>
			<stop  offset="0.9752" style="stop-color:#E01747"/>
			<stop  offset="1" style="stop-color:#E01747"/>
		</linearGradient>
		<path class="st26" d="M422.61,66.2c-1.63,0-2.95,1.32-2.95,2.95V199.9c0,1.63,1.32,2.95,2.95,2.95s2.95-1.32,2.95-2.95V69.16
			C425.56,67.53,424.24,66.2,422.61,66.2z"/>
		
			<linearGradient id="SVGID_27_" gradientUnits="userSpaceOnUse" x1="371.98" y1="265.6" x2="377.88" y2="265.6" gradientTransform="matrix(1 0 0 -1 0 423.89)">
			<stop  offset="0" style="stop-color:#E01747"/>
			<stop  offset="0.5079" style="stop-color:#E10580"/>
			<stop  offset="0.9752" style="stop-color:#E01747"/>
			<stop  offset="1" style="stop-color:#E01747"/>
		</linearGradient>
		<path class="st27" d="M374.93,122.76c-1.63,0-2.95,1.32-2.95,2.95v65.16c0,1.63,1.32,2.95,2.95,2.95s2.95-1.32,2.95-2.95v-65.16
			C377.88,124.09,376.56,122.76,374.93,122.76z"/>
		
			<linearGradient id="SVGID_28_" gradientUnits="userSpaceOnUse" x1="429.19" y1="304.03" x2="435.09" y2="304.03" gradientTransform="matrix(1 0 0 -1 0 423.89)">
			<stop  offset="0" style="stop-color:#E01747"/>
			<stop  offset="0.5079" style="stop-color:#E10580"/>
			<stop  offset="0.9752" style="stop-color:#E01747"/>
			<stop  offset="1" style="stop-color:#E01747"/>
		</linearGradient>
		<path class="st28" d="M432.14,86.37c-1.63,0-2.95,1.32-2.95,2.95v61.08c0,1.63,1.32,2.95,2.95,2.95s2.95-1.32,2.95-2.95V89.32
			C435.09,87.69,433.77,86.37,432.14,86.37z"/>
		
			<linearGradient id="SVGID_29_" gradientUnits="userSpaceOnUse" x1="429.19" y1="255.775" x2="435.09" y2="255.775" gradientTransform="matrix(1 0 0 -1 0 423.89)">
			<stop  offset="0" style="stop-color:#E01747"/>
			<stop  offset="0.5079" style="stop-color:#E10580"/>
			<stop  offset="0.9752" style="stop-color:#E01747"/>
			<stop  offset="1" style="stop-color:#E01747"/>
		</linearGradient>
		<path class="st29" d="M432.14,155.79c-1.63,0-2.95,1.32-2.95,2.95v18.75c0,1.63,1.32,2.95,2.95,2.95s2.95-1.32,2.95-2.95v-18.75
			C435.09,157.11,433.77,155.79,432.14,155.79z"/>
		
			<linearGradient id="SVGID_30_" gradientUnits="userSpaceOnUse" x1="410.12" y1="311.985" x2="416.02" y2="311.985" gradientTransform="matrix(1 0 0 -1 0 423.89)">
			<stop  offset="0" style="stop-color:#E01747"/>
			<stop  offset="0.5079" style="stop-color:#E10580"/>
			<stop  offset="0.9752" style="stop-color:#E01747"/>
			<stop  offset="1" style="stop-color:#E01747"/>
		</linearGradient>
		<path class="st30" d="M413.07,103.84c-1.63,0-2.95,1.32-2.95,2.95v10.23c0,1.63,1.32,2.95,2.95,2.95s2.95-1.32,2.95-2.95v-10.23
			C416.02,105.16,414.7,103.84,413.07,103.84z"/>
		
			<linearGradient id="SVGID_31_" gradientUnits="userSpaceOnUse" x1="410.12" y1="252.95" x2="416.02" y2="252.95" gradientTransform="matrix(1 0 0 -1 0 423.89)">
			<stop  offset="0" style="stop-color:#E01747"/>
			<stop  offset="0.5079" style="stop-color:#E10580"/>
			<stop  offset="0.9752" style="stop-color:#E01747"/>
			<stop  offset="1" style="stop-color:#E01747"/>
		</linearGradient>
		<path class="st31" d="M413.07,123.89L413.07,123.89c-1.63,0-2.95,1.32-2.95,2.95v88.2c0,1.63,1.32,2.95,2.95,2.95l0,0
			c1.63,0,2.95-1.32,2.95-2.95v-88.2C416.02,125.21,414.7,123.89,413.07,123.89z"/>
		
			<linearGradient id="SVGID_32_" gradientUnits="userSpaceOnUse" x1="400.58" y1="265.595" x2="406.4801" y2="265.595" gradientTransform="matrix(1 0 0 -1 0 423.89)">
			<stop  offset="0" style="stop-color:#E01747"/>
			<stop  offset="0.5079" style="stop-color:#E10580"/>
			<stop  offset="0.9752" style="stop-color:#E01747"/>
			<stop  offset="1" style="stop-color:#E01747"/>
		</linearGradient>
		<path class="st32" d="M403.53,121.72c-1.63,0-2.95,1.32-2.95,2.95v67.25c0,1.63,1.32,2.95,2.95,2.95s2.95-1.32,2.95-2.95v-67.25
			C406.49,123.04,405.16,121.72,403.53,121.72z"/>
		
			<linearGradient id="SVGID_33_" gradientUnits="userSpaceOnUse" x1="438.724" y1="270.545" x2="444.624" y2="270.545" gradientTransform="matrix(1 0 0 -1 0 423.89)">
			<stop  offset="0" style="stop-color:#E01747"/>
			<stop  offset="0.5079" style="stop-color:#E10580"/>
			<stop  offset="0.9752" style="stop-color:#E01747"/>
			<stop  offset="1" style="stop-color:#E01747"/>
		</linearGradient>
		<path class="st33" d="M441.68,122.76c-1.63,0-2.95,1.32-2.95,2.95v55.27c0,1.63,1.32,2.95,2.95,2.95s2.95-1.32,2.95-2.95v-55.27
			C444.63,124.09,443.31,122.76,441.68,122.76z"/>
		
			<linearGradient id="SVGID_34_" gradientUnits="userSpaceOnUse" x1="381.51" y1="284.975" x2="387.4101" y2="284.975" gradientTransform="matrix(1 0 0 -1 0 423.89)">
			<stop  offset="0" style="stop-color:#E01747"/>
			<stop  offset="0.5079" style="stop-color:#E10580"/>
			<stop  offset="0.9752" style="stop-color:#E01747"/>
			<stop  offset="1" style="stop-color:#E01747"/>
		</linearGradient>
		<path class="st34" d="M384.46,116.6c-1.63,0-2.95,1.32-2.95,2.95v38.73c0,1.63,1.32,2.95,2.95,2.95s2.95-1.32,2.95-2.95v-38.73
			C387.42,117.92,386.09,116.6,384.46,116.6z"/>
		
			<linearGradient id="SVGID_35_" gradientUnits="userSpaceOnUse" x1="381.51" y1="237.53" x2="387.4101" y2="237.53" gradientTransform="matrix(1 0 0 -1 0 423.89)">
			<stop  offset="0" style="stop-color:#E01747"/>
			<stop  offset="0.5079" style="stop-color:#E10580"/>
			<stop  offset="0.9752" style="stop-color:#E01747"/>
			<stop  offset="1" style="stop-color:#E01747"/>
		</linearGradient>
		<path class="st35" d="M384.46,162.97L384.46,162.97c-1.63,0-2.95,1.32-2.95,2.95v40.88c0,1.63,1.32,2.95,2.95,2.95l0,0
			c1.63,0,2.95-1.32,2.95-2.95v-40.88C387.42,164.29,386.09,162.97,384.46,162.97z"/>
		
			<linearGradient id="SVGID_36_" gradientUnits="userSpaceOnUse" x1="352.91" y1="290.625" x2="358.81" y2="290.625" gradientTransform="matrix(1 0 0 -1 0 423.89)">
			<stop  offset="0" style="stop-color:#E01747"/>
			<stop  offset="0.5079" style="stop-color:#E10580"/>
			<stop  offset="0.9752" style="stop-color:#E01747"/>
			<stop  offset="1" style="stop-color:#E01747"/>
		</linearGradient>
		<path class="st36" d="M355.86,110.74c-1.63,0-2.95,1.32-2.95,2.95v39.15c0,1.63,1.32,2.95,2.95,2.95s2.95-1.32,2.95-2.95v-39.15
			C358.81,112.06,357.49,110.74,355.86,110.74z"/>
		
			<linearGradient id="SVGID_37_" gradientUnits="userSpaceOnUse" x1="343.37" y1="290.63" x2="349.27" y2="290.63" gradientTransform="matrix(1 0 0 -1 0 423.89)">
			<stop  offset="0" style="stop-color:#E01747"/>
			<stop  offset="0.5079" style="stop-color:#E10580"/>
			<stop  offset="0.9752" style="stop-color:#E01747"/>
			<stop  offset="1" style="stop-color:#E01747"/>
		</linearGradient>
		<path class="st37" d="M346.32,97.73c-1.63,0-2.95,1.32-2.95,2.95v65.16c0,1.63,1.32,2.95,2.95,2.95s2.95-1.32,2.95-2.95v-65.16
			C349.27,99.05,347.95,97.73,346.32,97.73z"/>
		
			<linearGradient id="SVGID_38_" gradientUnits="userSpaceOnUse" x1="362.44" y1="265.59" x2="368.34" y2="265.59" gradientTransform="matrix(1 0 0 -1 0 423.89)">
			<stop  offset="0" style="stop-color:#E01747"/>
			<stop  offset="0.5079" style="stop-color:#E10580"/>
			<stop  offset="0.9752" style="stop-color:#E01747"/>
			<stop  offset="1" style="stop-color:#E01747"/>
		</linearGradient>
		<path class="st38" d="M365.39,131.47L365.39,131.47c-1.63,0-2.95,1.32-2.95,2.95v47.76c0,1.63,1.32,2.95,2.95,2.95l0,0
			c1.63,0,2.95-1.32,2.95-2.95v-47.76C368.34,132.79,367.02,131.47,365.39,131.47z"/>
		
			<linearGradient id="SVGID_39_" gradientUnits="userSpaceOnUse" x1="391.05" y1="265.6" x2="396.95" y2="265.6" gradientTransform="matrix(1 0 0 -1 0 423.89)">
			<stop  offset="0" style="stop-color:#E01747"/>
			<stop  offset="0.5079" style="stop-color:#E10580"/>
			<stop  offset="0.9752" style="stop-color:#E01747"/>
			<stop  offset="1" style="stop-color:#E01747"/>
		</linearGradient>
		<path class="st39" d="M394,131.95c-1.63,0-2.95,1.32-2.95,2.95v46.78c0,1.63,1.32,2.95,2.95,2.95s2.95-1.32,2.95-2.95V134.9
			C396.95,133.28,395.63,131.95,394,131.95z"/>
		
			<linearGradient id="SVGID_40_" gradientUnits="userSpaceOnUse" x1="457.8" y1="296.5" x2="463.7" y2="296.5" gradientTransform="matrix(1 0 0 -1 0 423.89)">
			<stop  offset="0" style="stop-color:#E01747"/>
			<stop  offset="0.5079" style="stop-color:#E10580"/>
			<stop  offset="0.9752" style="stop-color:#E01747"/>
			<stop  offset="1" style="stop-color:#E01747"/>
		</linearGradient>
		<path class="st40" d="M460.75,111.6c-1.63,0-2.95,1.32-2.95,2.95v25.68c0,1.63,1.32,2.95,2.95,2.95s2.95-1.32,2.95-2.95v-25.68
			C463.7,112.92,462.38,111.6,460.75,111.6z"/>
		
			<linearGradient id="SVGID_41_" gradientUnits="userSpaceOnUse" x1="448.26" y1="302.45" x2="454.16" y2="302.45" gradientTransform="matrix(1 0 0 -1 0 423.89)">
			<stop  offset="0" style="stop-color:#E01747"/>
			<stop  offset="0.5079" style="stop-color:#E10580"/>
			<stop  offset="0.9752" style="stop-color:#E01747"/>
			<stop  offset="1" style="stop-color:#E01747"/>
		</linearGradient>
		<path class="st41" d="M451.21,106.72c-1.63,0-2.95,1.32-2.95,2.95v23.54c0,1.63,1.32,2.95,2.95,2.95s2.95-1.32,2.95-2.95v-23.54
			C454.16,108.05,452.84,106.72,451.21,106.72z"/>
		
			<linearGradient id="SVGID_42_" gradientUnits="userSpaceOnUse" x1="448.26" y1="278.64" x2="454.16" y2="278.64" gradientTransform="matrix(1 0 0 -1 0 423.89)">
			<stop  offset="0" style="stop-color:#E01747"/>
			<stop  offset="0.5079" style="stop-color:#E10580"/>
			<stop  offset="0.9752" style="stop-color:#E01747"/>
			<stop  offset="1" style="stop-color:#E01747"/>
		</linearGradient>
		<path class="st42" d="M451.21,137.89c-1.63,0-2.95,1.32-2.95,2.95v8.82c0,1.63,1.32,2.95,2.95,2.95s2.95-1.32,2.95-2.95v-8.82
			C454.16,139.21,452.84,137.89,451.21,137.89z"/>
		
			<linearGradient id="SVGID_43_" gradientUnits="userSpaceOnUse" x1="467.2" y1="296.505" x2="592.7401" y2="296.505" gradientTransform="matrix(1 0 0 -1 0 423.89)">
			<stop  offset="0" style="stop-color:#E01747"/>
			<stop  offset="0.5079" style="stop-color:#E10580"/>
			<stop  offset="0.9752" style="stop-color:#E01747"/>
			<stop  offset="1" style="stop-color:#E01747"/>
		</linearGradient>
		<path class="st43" d="M591.22,125.87H473.1v-2.95c0-1.63-1.32-2.95-2.95-2.95s-2.95,1.32-2.95,2.95v8.93
			c0,1.63,1.32,2.95,2.95,2.95s2.95-1.32,2.95-2.95v-2.95h118.12c0.84,0,1.52-0.68,1.52-1.52
			C592.74,126.55,592.06,125.87,591.22,125.87z"/>
	</g>
</g>
<g>
	<g>
		
			<linearGradient id="SVGID_44_" gradientUnits="userSpaceOnUse" x1="206.0399" y1="-1467.115" x2="458.39" y2="-1467.115" gradientTransform="matrix(1 0 0 -1 0 423.89)">
			<stop  offset="0" style="stop-color:#E01747"/>
			<stop  offset="0.5079" style="stop-color:#E10580"/>
			<stop  offset="0.9752" style="stop-color:#E01747"/>
			<stop  offset="1" style="stop-color:#E01747"/>
		</linearGradient>
		<path class="st44" d="M421.37,1922.04c2.49-1.49,5.49-2.57,8.71-2.57c3.66,0,7.02,1.4,9.69,3.21v2.69v0.02
			c0,4.97,4.04,9.01,9.01,9.01h0.6c4.97,0,9.01-4.04,9.01-9.01v-0.02v-46.19v-33.38c0-4.97-4.04-9.01-9.01-9.01h-0.6
			c-4.97,0-9.01,4.04-9.01,9.01v47.74v16.51c-2.67,1.81-6.03,3.21-9.69,3.21c-0.88,0-1.74-0.08-2.57-0.23c-0.01,0-0.02,0-0.03-0.01
			c-2.53-0.45-4.84-1.51-6.81-2.8v-4.89V1801.1c0-4.97-4.04-9.01-9.01-9.01h-0.6c-4.97,0-9.01,4.04-9.01,9.01v72.86
			c-2.77,2.02-6.37,3.65-10.32,3.65c-3.25,0-6.28-1.1-8.79-2.62v-6.66c0-4.97-4.04-9.01-9.01-9.01h-0.6c-4.97,0-9.01,4.04-9.01,9.01
			v57.77v8.75c-1.14,3.22-7.66,9.69-15.56,9.69c-3.54,0-6.79-1.3-9.42-3.03v-11.83v-152.24c0-4.97-4.04-9.01-9.01-9.01h-0.6
			c-4.97,0-9.01,4.04-9.01,9.01v128.86c-2.44,1.41-5.33,2.42-8.44,2.42c-2.48,0-4.82-0.65-6.9-1.63v-77.66
			c0-4.97-4.04-9.01-9.01-9.01h-0.6c-4.97,0-9.01,4.04-9.01,9.01v98.25v2.13c-1.05,3.19-7.62,9.77-15.59,9.77
			c-0.81,0-1.6-0.07-2.37-0.19c-0.01,0-0.03,0-0.04-0.01c-2.33-0.38-4.5-1.28-6.37-2.42v-14.17v-114.71c0-4.97-4.04-9.01-9.01-9.01
			h-0.6c-4.97,0-9.01,4.04-9.01,9.01v88.8c-2.77,2.02-6.37,3.65-10.32,3.65c-3.25,0-6.28-1.1-8.79-2.62v-75.41
			c0-4.97-4.04-9.01-9.01-9.01h-0.6c-4.97,0-9.01,4.04-9.01,9.01v80.44v29.41v0.02c0,4.97,4.04,9.01,9.01,9.01h0.6
			c4.97,0,9.01-4.04,9.01-9.01v-0.02v-21.58v-1.41c2.51-1.52,5.53-2.62,8.79-2.62c3.95,0,7.56,1.63,10.32,3.65v7.13v41.24v0.02
			c0,4.97,4.04,9.01,9.01,9.01h0.6c4.97,0,9.01-4.04,9.01-9.01v-0.02v-10.34c0.21-0.13,0.43-0.24,0.64-0.36
			c0.28-0.16,0.57-0.31,0.86-0.46c0.3-0.15,0.6-0.29,0.92-0.42c0.32-0.14,0.65-0.26,0.98-0.38c0.45-0.16,0.91-0.31,1.37-0.43
			c0.37-0.1,0.75-0.19,1.13-0.27c0.31-0.06,0.63-0.11,0.95-0.15c0.43-0.06,0.86-0.09,1.3-0.11c0.21-0.01,0.42-0.03,0.63-0.03
			c6.52,0,12.11,4.41,14.5,7.76c0.02,0.03,0.04,0.06,0.06,0.09c0.16,0.22,0.3,0.44,0.42,0.65c0.07,0.12,0.13,0.24,0.19,0.36
			c0.06,0.11,0.12,0.22,0.17,0.33c0.07,0.15,0.13,0.3,0.18,0.44c0.02,0.05,0.04,0.1,0.05,0.14v6.63c0,4.97,4.04,9,9.01,9h0.6
			c0.62,0,1.23-0.06,1.81-0.18c4.1-0.84,7.19-4.48,7.19-8.82v-32.46l0,0v-13.22c2.09-0.98,4.42-1.63,6.9-1.63
			c3.11,0,5.99,1.01,8.44,2.42v13.02v74.21v0.02c0,4.97,4.04,9.01,9.01,9.01h0.6c4.97,0,9.01-4.04,9.01-9.01v-0.02v-50.79
			c0.15-0.1,0.29-0.19,0.44-0.29c0.09-0.06,0.19-0.12,0.28-0.17c2.49-1.49,5.48-2.57,8.69-2.57c6.49,0,12.05,4.37,14.47,7.71
			c0.06,0.08,0.11,0.16,0.17,0.25c0.11,0.17,0.22,0.33,0.32,0.49c0.08,0.13,0.15,0.26,0.22,0.39c0.05,0.1,0.1,0.19,0.15,0.29
			c0.08,0.16,0.14,0.31,0.2,0.46c0.01,0.03,0.02,0.07,0.04,0.1v17.73v0.02c0,4.97,4.04,9.01,9.01,9.01h0.6
			c4.97,0,9.01-4.04,9.01-9.01v-0.02v-56.87v-34.88c2.51-1.52,5.53-2.62,8.79-2.62c3.95,0,7.56,1.63,10.32,3.65v26.87v37.45v0.02
			c0,4.96,4.04,9.01,9.01,9.01h0.6c4.97,0,9.01-4.04,9.01-9.01v-0.02v-29.27c0.15-0.1,0.3-0.2,0.46-0.3
			C421.2,1922.14,421.29,1922.09,421.37,1922.04z"/>
		
			<linearGradient id="SVGID_45_" gradientUnits="userSpaceOnUse" x1="361.57" y1="-1401.4399" x2="382.65" y2="-1401.4399" gradientTransform="matrix(1 0 0 -1 0 423.89)">
			<stop  offset="0" style="stop-color:#E01747"/>
			<stop  offset="0.5079" style="stop-color:#E10580"/>
			<stop  offset="0.9752" style="stop-color:#E01747"/>
			<stop  offset="1" style="stop-color:#E01747"/>
		</linearGradient>
		<path class="st45" d="M372.11,1835.87c5.82,0,10.54-4.72,10.54-10.54c0-5.82-4.72-10.54-10.54-10.54s-10.54,4.72-10.54,10.54
			C361.57,1831.15,366.29,1835.87,372.11,1835.87z"/>
		
			<linearGradient id="SVGID_46_" gradientUnits="userSpaceOnUse" x1="364.91" y1="-1353.51" x2="379.31" y2="-1353.51" gradientTransform="matrix(1 0 0 -1 0 423.89)">
			<stop  offset="0" style="stop-color:#E01747"/>
			<stop  offset="0.5079" style="stop-color:#E10580"/>
			<stop  offset="0.9752" style="stop-color:#E01747"/>
			<stop  offset="1" style="stop-color:#E01747"/>
		</linearGradient>
		<path class="st46" d="M372.11,1784.6c3.98,0,7.2-3.22,7.2-7.2s-3.22-7.2-7.2-7.2s-7.2,3.22-7.2,7.2
			C364.91,1781.37,368.14,1784.6,372.11,1784.6z"/>
		
			<linearGradient id="SVGID_47_" gradientUnits="userSpaceOnUse" x1="208.2" y1="-1541.08" x2="222.6" y2="-1541.08" gradientTransform="matrix(1 0 0 -1 0 423.89)">
			<stop  offset="0" style="stop-color:#E01747"/>
			<stop  offset="0.5079" style="stop-color:#E10580"/>
			<stop  offset="0.9752" style="stop-color:#E01747"/>
			<stop  offset="1" style="stop-color:#E01747"/>
		</linearGradient>
		<path class="st47" d="M215.4,1957.77c-3.98,0-7.2,3.22-7.2,7.2s3.22,7.2,7.2,7.2s7.2-3.22,7.2-7.2S219.37,1957.77,215.4,1957.77z"
			/>
		
			<linearGradient id="SVGID_48_" gradientUnits="userSpaceOnUse" x1="211.32" y1="-1325.3101" x2="219.48" y2="-1325.3101" gradientTransform="matrix(1 0 0 -1 0 423.89)">
			<stop  offset="0" style="stop-color:#E01747"/>
			<stop  offset="0.5079" style="stop-color:#E10580"/>
			<stop  offset="0.9752" style="stop-color:#E01747"/>
			<stop  offset="1" style="stop-color:#E01747"/>
		</linearGradient>
		<path class="st48" d="M215.4,1753.28c2.25,0,4.08-1.83,4.08-4.08s-1.83-4.08-4.08-4.08s-4.08,1.83-4.08,4.08
			C211.32,1751.46,213.14,1753.28,215.4,1753.28z"/>
		
			<linearGradient id="SVGID_49_" gradientUnits="userSpaceOnUse" x1="326.19" y1="-1309.51" x2="333.91" y2="-1309.51" gradientTransform="matrix(1 0 0 -1 0 423.89)">
			<stop  offset="0" style="stop-color:#E01747"/>
			<stop  offset="0.5079" style="stop-color:#E10580"/>
			<stop  offset="0.9752" style="stop-color:#E01747"/>
			<stop  offset="1" style="stop-color:#E01747"/>
		</linearGradient>
		<path class="st49" d="M330.05,1737.26c2.13,0,3.86-1.73,3.86-3.86s-1.73-3.86-3.86-3.86c-2.13,0-3.86,1.73-3.86,3.86
			C326.19,1735.54,327.92,1737.26,330.05,1737.26z"/>
		
			<linearGradient id="SVGID_50_" gradientUnits="userSpaceOnUse" x1="437.97" y1="-1390.71" x2="459.05" y2="-1390.71" gradientTransform="matrix(1 0 0 -1 0 423.89)">
			<stop  offset="0" style="stop-color:#E01747"/>
			<stop  offset="0.5079" style="stop-color:#E10580"/>
			<stop  offset="0.9752" style="stop-color:#E01747"/>
			<stop  offset="1" style="stop-color:#E01747"/>
		</linearGradient>
		<path class="st50" d="M448.51,1825.14c5.82,0,10.54-4.72,10.54-10.54c0-5.82-4.72-10.54-10.54-10.54s-10.54,4.72-10.54,10.54
			S442.69,1825.14,448.51,1825.14z"/>
		
			<linearGradient id="SVGID_51_" gradientUnits="userSpaceOnUse" x1="437.97" y1="-1537.9399" x2="459.05" y2="-1537.9399" gradientTransform="matrix(1 0 0 -1 0 423.89)">
			<stop  offset="0" style="stop-color:#E01747"/>
			<stop  offset="0.5079" style="stop-color:#E10580"/>
			<stop  offset="0.9752" style="stop-color:#E01747"/>
			<stop  offset="1" style="stop-color:#E01747"/>
		</linearGradient>
		<circle class="st51" cx="448.51" cy="1961.83" r="10.54"/>
		
			<linearGradient id="SVGID_52_" gradientUnits="userSpaceOnUse" x1="444.46" y1="-1341.7799" x2="452.56" y2="-1341.7799" gradientTransform="matrix(1 0 0 -1 0 423.89)">
			<stop  offset="0" style="stop-color:#E01747"/>
			<stop  offset="0.5079" style="stop-color:#E10580"/>
			<stop  offset="0.9752" style="stop-color:#E01747"/>
			<stop  offset="1" style="stop-color:#E01747"/>
		</linearGradient>
		<path class="st52" d="M448.51,1769.72c2.24,0,4.05-1.81,4.05-4.05s-1.81-4.05-4.05-4.05s-4.05,1.81-4.05,4.05
			C444.46,1767.9,446.27,1769.72,448.51,1769.72z"/>
		
			<linearGradient id="SVGID_53_" gradientUnits="userSpaceOnUse" x1="285.31" y1="-1570.01" x2="306.39" y2="-1570.01" gradientTransform="matrix(1 0 0 -1 0 423.89)">
			<stop  offset="0" style="stop-color:#E01747"/>
			<stop  offset="0.5079" style="stop-color:#E10580"/>
			<stop  offset="0.9752" style="stop-color:#E01747"/>
			<stop  offset="1" style="stop-color:#E01747"/>
		</linearGradient>
		<path class="st53" d="M295.85,1983.36c-5.82,0-10.54,4.72-10.54,10.54c0,5.82,4.72,10.54,10.54,10.54s10.54-4.72,10.54-10.54
			C306.39,1988.07,301.67,1983.36,295.85,1983.36z"/>
		
			<linearGradient id="SVGID_54_" gradientUnits="userSpaceOnUse" x1="204.86" y1="-1360.71" x2="225.94" y2="-1360.71" gradientTransform="matrix(1 0 0 -1 0 423.89)">
			<stop  offset="0" style="stop-color:#E01747"/>
			<stop  offset="0.5079" style="stop-color:#E10580"/>
			<stop  offset="0.9752" style="stop-color:#E01747"/>
			<stop  offset="1" style="stop-color:#E01747"/>
		</linearGradient>
		<path class="st54" d="M215.4,1795.14c5.82,0,10.54-4.72,10.54-10.54c0-5.82-4.72-10.54-10.54-10.54
			c-5.82,0-10.54,4.72-10.54,10.54S209.58,1795.14,215.4,1795.14z"/>
		
			<linearGradient id="SVGID_55_" gradientUnits="userSpaceOnUse" x1="407.07" y1="-1561.5801" x2="415.65" y2="-1561.5801" gradientTransform="matrix(1 0 0 -1 0 423.89)">
			<stop  offset="0" style="stop-color:#E01747"/>
			<stop  offset="0.5079" style="stop-color:#E10580"/>
			<stop  offset="0.9752" style="stop-color:#E01747"/>
			<stop  offset="1" style="stop-color:#E01747"/>
		</linearGradient>
		<path class="st55" d="M411.36,1981.18c-2.37,0-4.29,1.92-4.29,4.29s1.92,4.29,4.29,4.29s4.29-1.92,4.29-4.29
			C415.65,1983.1,413.73,1981.18,411.36,1981.18z"/>
		
			<linearGradient id="SVGID_56_" gradientUnits="userSpaceOnUse" x1="250.4944" y1="-1346.8971" x2="256.8601" y2="-1346.8971" gradientTransform="matrix(1 0 0 -1 0 423.89)">
			<stop  offset="0" style="stop-color:#E01747"/>
			<stop  offset="0.5079" style="stop-color:#E10580"/>
			<stop  offset="0.9752" style="stop-color:#E01747"/>
			<stop  offset="1" style="stop-color:#E01747"/>
		</linearGradient>
		<path class="st56" d="M255.58,1773.34c1.41-1.05,1.7-3.04,0.66-4.45c-1.05-1.41-3.04-1.7-4.45-0.66c-1.41,1.05-1.7,3.04-0.66,4.45
			C252.17,1774.09,254.17,1774.39,255.58,1773.34z"/>
	</g>
	<g class="st0">
		<path d="M123.41,2149.51c0,1.89-0.68,3.51-2.04,4.87c-1.36,1.36-2.98,2.04-4.87,2.04c-1.89,0-3.52-0.68-4.87-2.04
			c-1.36-1.36-2.04-2.98-2.04-4.87v-55.31c0-5.71-2.03-10.6-6.08-14.66c-4.06-4.05-8.94-6.08-14.66-6.08
			c-1.89,0-3.52-0.68-4.87-2.04c-1.36-1.36-2.04-2.98-2.04-4.87c0-1.94,0.68-3.57,2.04-4.91c1.36-1.34,2.98-2,4.87-2
			c9.54,0,17.7,3.36,24.47,10.09c1.15,1.2,2.21,2.42,3.18,3.66c0.97-1.25,2.05-2.46,3.25-3.66c6.73-6.73,14.86-10.09,24.4-10.09
			c1.89,0,3.51,0.67,4.87,2c1.36,1.34,2.04,2.97,2.04,4.91c0,1.89-0.68,3.52-2.04,4.87c-1.36,1.36-2.98,2.04-4.87,2.04
			c-5.72,0-10.6,2.03-14.66,6.08c-4.06,4.06-6.08,8.94-6.08,14.66V2149.51z"/>
		<path d="M185.29,2156.42c-13.37,0-24.77-4.72-34.22-14.17c-9.45-9.45-14.17-20.85-14.17-34.22c0-13.37,4.72-24.77,14.17-34.22
			c9.45-9.45,20.85-14.17,34.22-14.17c13.37,0,24.77,4.72,34.22,14.17c9.45,9.45,14.17,20.86,14.17,34.22
			c0,13.37-4.72,24.77-14.17,34.22C210.06,2151.7,198.65,2156.42,185.29,2156.42z M185.29,2142.59c9.54,0,17.69-3.38,24.44-10.13
			c6.75-6.75,10.13-14.9,10.13-24.44c0-9.54-3.38-17.69-10.13-24.44c-6.75-6.75-14.9-10.13-24.44-10.13s-17.69,3.38-24.44,10.13
			c-6.75,6.75-10.13,14.9-10.13,24.44c0,9.54,3.38,17.69,10.13,24.44C167.6,2139.22,175.75,2142.59,185.29,2142.59z"/>
		<path d="M300.05,2059.63c1.89,0,3.51,0.68,4.87,2.04c1.36,1.36,2.04,2.99,2.04,4.87c0,1.89-0.68,3.52-2.04,4.87
			c-1.36,1.36-2.98,2.04-4.87,2.04h-13.83c-9.54,0-17.69,3.38-24.44,10.13c-6.75,6.75-10.13,14.9-10.13,24.44
			c0,9.54,3.38,17.69,10.13,24.44c6.75,6.75,14.9,10.13,24.44,10.13h13.83c1.89,0,3.51,0.68,4.87,2.04
			c1.36,1.36,2.04,2.98,2.04,4.87s-0.68,3.51-2.04,4.87c-1.36,1.36-2.98,2.04-4.87,2.04h-13.83c-13.37,0-24.77-4.72-34.22-14.17
			c-9.45-9.45-14.17-20.85-14.17-34.22c0-13.37,4.72-24.77,14.17-34.22c9.45-9.45,20.85-14.17,34.22-14.17H300.05z"/>
		<path d="M322.38,2149.51c0,1.89-0.68,3.51-2.04,4.87c-1.36,1.36-2.98,2.04-4.87,2.04c-1.89,0-3.52-0.68-4.87-2.04
			c-1.36-1.36-2.04-2.98-2.04-4.87v-55.31c0-9.54,3.38-17.69,10.13-24.44c6.75-6.75,14.9-10.13,24.44-10.13
			c9.54,0,17.69,3.38,24.44,10.13c6.75,6.75,10.13,14.9,10.13,24.44v55.31c0,1.89-0.68,3.51-2.04,4.87
			c-1.36,1.36-2.99,2.04-4.87,2.04c-1.89,0-3.52-0.68-4.87-2.04c-1.36-1.36-2.04-2.98-2.04-4.87v-20.74h-41.48V2149.51z
			 M322.38,2094.2v20.74h41.48v-20.74c0-5.71-2.03-10.6-6.08-14.66c-4.06-4.05-8.94-6.08-14.66-6.08c-5.72,0-10.6,2.03-14.66,6.08
			C324.41,2083.6,322.38,2088.48,322.38,2094.2z"/>
		<path d="M460.51,2146.81c-8.39,6.41-18.09,9.61-29.11,9.61c-13.37,0-24.77-4.72-34.22-14.17c-9.45-9.45-14.17-20.85-14.17-34.22
			c0-13.37,4.72-24.77,14.17-34.22c9.45-9.45,20.85-14.17,34.22-14.17c13.37,0,24.77,4.72,34.22,14.17s14.17,20.86,14.17,34.22
			c0,10.97-3.2,20.63-9.61,28.97l7.6,7.6c1.34,1.38,2,3.02,2,4.91s-0.68,3.51-2.04,4.87c-1.36,1.36-2.99,2.04-4.87,2.04
			c-1.89,0-3.5-0.69-4.84-2.07c-0.23-0.18-0.44-0.39-0.62-0.62L460.51,2146.81z M460.31,2127.11c3.78-5.58,5.67-11.94,5.67-19.08
			c0-9.54-3.38-17.69-10.13-24.44s-14.9-10.13-24.44-10.13c-9.54,0-17.69,3.38-24.44,10.13c-6.75,6.75-10.13,14.9-10.13,24.44
			c0,9.54,3.38,17.69,10.13,24.44c6.75,6.75,14.9,10.13,24.44,10.13c7.19,0,13.57-1.91,19.15-5.74l-9.54-9.54
			c-0.23-0.18-0.44-0.39-0.62-0.62c-1.38-1.34-2.07-2.95-2.07-4.84c0-1.89,0.68-3.51,2.04-4.87c1.36-1.36,2.98-2.04,4.87-2.04
			s3.53,0.67,4.91,2L460.31,2127.11z"/>
		<path d="M540.5,2066.54c0-1.94,0.67-3.57,2-4.91c1.34-1.34,2.97-2,4.91-2c1.89,0,3.51,0.67,4.87,2c1.36,1.34,2.04,2.97,2.04,4.91
			v55.31c0,7.14-1.89,13.5-5.67,19.08l3.66,3.66c1.34,1.38,2,3.02,2,4.91s-0.67,3.53-2,4.91c-1.38,1.34-3.02,2-4.91,2
			s-3.53-0.67-4.91-2l-3.66-3.66c-5.58,3.78-11.94,5.67-19.08,5.67c-9.54,0-17.69-3.38-24.44-10.13s-10.13-14.9-10.13-24.44v-55.31
			c0-1.94,0.67-3.57,2-4.91c1.34-1.34,2.97-2,4.91-2c1.89,0,3.51,0.67,4.87,2c1.36,1.34,2.04,2.97,2.04,4.91v55.31
			c0,5.72,2.03,10.6,6.08,14.66c4.05,4.06,8.94,6.08,14.66,6.08c5.71,0,10.6-2.03,14.66-6.08c4.06-4.05,6.08-8.94,6.08-14.66
			V2066.54z"/>
		<path d="M575.07,2149.51c0,1.89-0.68,3.51-2.04,4.87s-2.98,2.04-4.87,2.04s-3.51-0.68-4.87-2.04s-2.04-2.98-2.04-4.87v-82.96
			c0-1.89,0.68-3.51,2.04-4.87c1.36-1.36,2.98-2.04,4.87-2.04s3.51,0.68,4.87,2.04c1.36,1.36,2.04,2.99,2.04,4.87V2149.51z"/>
	</g>
</g>
</svg>
