<?xml version="1.0" encoding="utf-8"?>
<!-- Generator: Adobe Illustrator 25.3.1, SVG Export Plug-In . SVG Version: 6.00 Build 0)  -->
<svg version="1.1" id="Camada_1" xmlns="http://www.w3.org/2000/svg" xmlns:xlink="http://www.w3.org/1999/xlink" x="0px" y="0px"
	 viewBox="0 0 394 383" style="enable-background:new 0 0 394 383;" xml:space="preserve">
<style type="text/css">
	.st0{fill:#666666;}
</style>
<g>
	<path class="st0" d="M183.6,214.9c-3.6,3.7-7.1,7.2-10.5,10.8c-0.7,0.8-1,2.1-1.1,3.1c-0.3,6.4-0.7,12.9-0.7,19.3
		c0,3.1-1.1,5.4-3.3,7.5c-26.4,26.4-52.8,52.8-79.2,79.2c-2.7,2.7-5.3,5.5-8.1,8c-9.1,8.3-22.7,8-31.2-0.6s-8.8-22.4-0.1-31.2
		c20.7-20.9,41.5-41.6,62.3-62.4c2.5-2.5,5.2-2.7,7.3-0.7c2.2,2.1,2,4.9-0.6,7.5c-11.9,12-23.9,24-35.9,35.9
		c-0.8,0.8-1.8,1.5-2.5,2.1c6.3,6.3,12.3,12.3,18.3,18.4c0.5-0.5,1.3-1.2,2-1.9c19.8-19.8,39.5-39.5,59.3-59.2
		c1.5-1.5,2.4-3,2.3-5.2c-0.1-5.1,0-10.3,0-15.2c-5.7,0-11.6,0-17.6,0.1c-0.7,0-1.4,0.8-2,1.3c-2.4,2.4-4.8,4.8-7.2,7.2
		c-2.3,2.2-5.1,2.4-7.1,0.5c-2.1-2-2-4.7,0.4-7.3c0.1-0.1,0.3-0.3,0.4-0.4c10.6-10.9,10.6-11.3,26.2-11.2c7.6,0,13.5-1.7,18-7.9
		c1.1-1.5,2.8-2.6,4.3-3.9c-23.6-27.1-33-58.1-27.3-93.2c4.4-27.3,17.9-49.8,39.4-67.1C233,13,296,16.5,335.8,56.2
		c39.5,39.5,43.2,102.6,8.2,146.3c-19.8,24.7-45.8,38.5-77.3,40.9C235.1,245.9,207.5,236,183.6,214.9z M258,234.2
		c55.5,0.1,100.3-44.6,100.4-100.1c0.1-55.5-44.8-100.6-100.3-100.6c-55.4,0-100.2,44.6-100.4,100.2
		C157.6,189.3,202.4,234.2,258,234.2z M65,309.3c6,6,11.9,11.9,17.6,17.6c2.6-2.5,5.4-5.3,8.2-8c-5.9-5.9-11.8-11.8-17.7-17.8
		C70.3,303.9,67.5,306.7,65,309.3z M57.1,316.9c-5.8,5.2-6.2,13.4-0.8,18.8c5.4,5.4,13.6,5,18.8-0.9C69.2,328.9,63.3,323,57.1,316.9
		z"/>
	<path class="st0" d="M258,225c-45.3-0.4-83.8-33.7-89.7-78.3c-3.8-28.7,4.3-53.9,23.9-75.3c0.4-0.5,0.9-0.9,1.3-1.4
		c2.3-2.2,5.1-2.3,7.1-0.4c1.8,1.8,1.8,4.6-0.1,6.8c-2.4,2.8-5,5.5-7.2,8.4c-36.6,47.8-8.8,118.7,50.5,128.9c46,7.9,88.6-23,95-69
		c6.3-45.5-26.8-87.3-72.5-91.8c-17.6-1.7-34,2-49.3,10.8c-0.5,0.3-0.9,0.5-1.4,0.8c-2.8,1.4-5.5,0.7-6.8-1.7
		c-1.3-2.4-0.6-4.8,2.1-6.5c8.2-5.1,17.1-8.7,26.6-10.9c52.8-12.2,103.8,23.2,110.9,76.8c6.4,48-27.2,93.4-74.8,100.9
		C268.3,224.2,263.1,224.5,258,225z"/>
	<path class="st0" d="M259.4,69.2c34.9,1.5,61.7,28.2,63.3,62.2c0,0.9,0.1,1.9,0,2.9c-0.4,2.6-2.6,4.6-5,4.3
		c-2.6-0.3-4.1-1.8-4.5-4.5c-0.8-5.7-1.1-11.6-2.9-17.1c-7-22.3-26.9-37.1-50.7-38.2c-0.8,0-1.7,0-2.5-0.2c-2.4-0.5-4-2.2-3.7-4.4
		c0.3-1.7,1.8-3.3,3.1-4.5C257.4,69,259,69.3,259.4,69.2z"/>
	<path class="st0" d="M319,155.5c-0.1,0.6-0.2,1.3-0.5,1.8c-2.5,5-5,10-7.8,14.8c-1.5,2.6-4.4,3-6.6,1.5c-2.4-1.6-2.7-4.1-1.1-7
		c2.3-4.1,4.5-8.3,6.6-12.6c1.2-2.4,3-3.9,5.5-3c1.7,0.6,3,2.4,4.4,3.7C319.4,155,319.2,155.2,319,155.5z"/>
</g>
</svg>
