<?xml version="1.0" encoding="utf-8"?>
<!-- Generator: Adobe Illustrator 25.3.1, SVG Export Plug-In . SVG Version: 6.00 Build 0)  -->
<svg version="1.1" id="Camada_1" xmlns="http://www.w3.org/2000/svg" xmlns:xlink="http://www.w3.org/1999/xlink" x="0px" y="0px"
	 viewBox="0 0 568.7 580.6" style="enable-background:new 0 0 568.7 580.6;" xml:space="preserve">
<style type="text/css">
	.st0{fill:#E01747;}
</style>
<g>
	<path class="st0" d="M236.8,336.5c-2.3-11-0.9-21,4.9-30.1c6.5-10.3,15.9-16,27.9-17.9c1.4-0.2,3.2-1,3.8-2.1
		c10.1-16.9,20.1-33.9,30.2-50.9c0.2-0.4,0.4-0.9,0.9-2.4c-7.9-0.8-15.3-1.7-22.8-2.3c-3.1-0.2-5.7-0.9-6.6-4.2
		c-1.1-3.6,1.7-7.3,5.9-7c9.7,0.8,19.4,2.1,29.8,3.2c8.3-14,17.2-29.1,25.7-43.4c-2.2-5-5.3-9.3-6-14.1c-0.7-4.8,0.9-9.9,1.5-15.6
		c-1.6-0.9-4.2-2.4-6.7-4c-3.5-2.2-4.5-5.2-2.8-8.1c1.8-3.1,4.8-3.6,8.7-1.4c2,1.2,4.1,2.3,6.1,3.5c0.2,0.1,0.5,0,1,0.1
		c1.3-2.7,2.6-5.4,4.1-8.6c-2.3-1.4-4.5-2.6-6.7-4c-3.2-2-4.1-5.1-2.4-7.9c1.6-2.7,4.7-3.5,7.8-1.9c2,1,3.8,2.2,5.8,3.4
		c1.7-2.3,3-4.6,4.7-6.4c5.3-5.6,13.5-7,20.1-3.1c15,8.7,30,17.5,44.8,26.5c7.9,4.8,10.2,14.9,5.5,22.8c-0.6,1.1-1.2,2.1-2,3.4
		c1.8,1,3.5,2,5.1,3c3.6,2.2,4.7,5.5,2.9,8.4c-1.8,2.8-5,3.2-8.5,1.2c-1.8-1-3.6-2.1-5.5-3.1c-0.2-0.1-0.5-0.1-1-0.2
		c-1.7,2.4-3.5,4.8-5.8,7.8c2.6,1.6,5.1,2.9,7.4,4.4c3.2,2,4.2,5.1,2.7,7.8c-1.5,2.7-5.1,4-8.1,1.8c-5.5-4.2-9.4-4.6-14.4,1.5
		c-4,4.9-10.6,5.6-16.9,4.5c-1.2-0.2-2.4-0.5-3.7-0.8c-8.7,14.7-17.3,29.3-26,43.9c-1.4,2.4,0.6,3.1,1.7,4.2
		c9.1,9.2,16.1,19.8,20.2,32.1c7.6,22.9,0,46.5-20.1,59.8c-8.7,5.8-13.4,15.4-10.2,26.6c2.1,7.4,3.8,14.9,4.8,22.5
		c3.8,29.7-13.3,69.2-54,78.8c-1.1,0.3-2.2,0.6-3.3,0.6c-2.8,0.1-4.8-1.4-5.5-4.1c-0.7-2.7,0.3-4.9,2.7-6.3c0.9-0.5,2.1-0.8,3.2-1.1
		c36.5-8.5,51-45.8,44.8-73c-1.4-6.3-3.2-12.5-4.3-18.9c-2.5-13.8,2-25.1,13.6-32.9c19.2-12.8,24.6-33,15.8-53.6
		c-3.6-8.5-10.5-18.4-16.3-23c-2.3,3.9-4.5,7.7-6.8,11.5c-7.8,13.2-15.7,26.4-23.4,39.7c-0.8,1.3-1.1,3.3-0.7,4.7
		c8,22.6-1.8,43.5-24.4,51.7c-0.4,0.2-0.8,0.4-1.1,0.5c1.8,2,3.9,3.6,5.2,5.8c2.1,3.4,2.2,7.1,0.4,10.6c-1.4,2.7-3,5.4-4.7,8
		c-3.6,5.7-10,7.7-15.8,4.3c-17.2-9.9-34.2-20-51.2-30.3c-5.8-3.5-7.2-9.9-4.1-15.9c0.9-1.8,2-3.4,3-5.1
		C222.4,333.8,227.7,332.2,236.8,336.5z M388.6,134.4c-7.1-4.2-14.3-8.5-21.5-12.7c-3.9-2.2-7-1.4-8.9,2.5
		c-5.3,10.9-10.6,21.8-15.8,32.8c-2.8,6.1-1.4,10.9,4.3,14.3c9.6,5.9,19.3,11.6,29.1,17.2c5.9,3.4,10.4,2.3,14.6-3.1
		c0.7-0.9,1.4-1.8,2-2.7c6.3-8.8,12.5-17.6,18.8-26.3c3-4.1,2.4-7.3-1.9-9.9C402.5,142.5,395.5,138.5,388.6,134.4z M288.5,303.4
		c-13.1-7.7-29.9-3.5-37.6,9.5c-7.9,13.2-3.6,30.1,9.5,37.9c13,7.7,29.9,3.5,37.7-9.5C305.9,328.1,301.6,311.1,288.5,303.4z
		 M324.5,262c7.1-12,14-23.6,20.8-35.2c-6-3.5-11.7-6.9-17.3-10.2c-7,11.9-13.9,23.4-20.8,35.2C313.1,255.2,318.7,258.5,324.5,262z
		 M285.1,289c5.9,3.5,11.6,6.9,17.4,10.3c5.3-9,10.7-18.1,16.1-27.2c-5.9-3.5-11.6-6.9-17.4-10.3C295.8,271,290.4,280,285.1,289z
		 M224.3,353.1c17.2,10.2,34.3,20.3,51.4,30.4c1.6-2.7,3.1-5.2,4.6-7.8c-17.2-10.2-34.2-20.3-51.4-30.4
		C227.3,348,225.8,350.5,224.3,353.1z M351.3,216.8c4.4-7.4,8.6-14.5,12.9-21.8c-5.9-3.5-11.5-6.8-17.4-10.3
		c-4.3,7.4-8.6,14.5-12.9,21.8C339.8,210,345.4,213.3,351.3,216.8z"/>
	<path class="st0" d="M201.2,453.4c-25.6-15.8-44.9-35.2-55.4-62.4c-7-18.2-8.6-36.8-0.4-55c10.3-23,27.6-38,52.2-44.3
		c4.3-1.1,8.6-2.2,12.9-3.5c9.3-2.9,14.4-9.3,15.2-18.9c1.4-15.6,7.6-28.6,20-38.3c2-1.6,4.3-2.9,6.6-4.2c3.3-1.8,6.5-0.9,8,1.9
		c1.6,2.9,0.7,6-2.7,7.8c-10,5.4-16,13.9-19.2,24.4c-1,3.1-1.2,6.5-1.6,9.9c-1.4,13.6-9.9,24.1-23,28.1c-5.7,1.7-11.4,3.3-17.2,4.8
		c-28.3,7.7-56.8,40.8-40.9,82.3c7.8,20.4,21.2,36.5,38.6,49.3c19.8,14.6,41.8,23.4,66.6,24.9c3.8,0.2,6,2.6,5.9,5.9
		c-0.1,3.4-2.7,5.5-6.7,5.3c-16.4-0.9-32-5-46.9-11.9C208.8,457.4,204.4,455,201.2,453.4z"/>
	<path class="st0" d="M224,412.2c-4.3-2.8-7.3-6.7-8.5-11.7c-0.9-3.7,0.6-6.5,3.8-7.3c3-0.8,5.6,0.7,6.9,4.1c2.1,5.6,4,6.7,10.2,5.9
		c3.5-0.4,6.1,1.2,6.8,4.2c0.6,3.1-1,5.7-4.4,6.7C233.5,415.5,228.6,414.7,224,412.2z"/>
	<path class="st0" d="M203.3,384.6c-0.6,1-1.1,2-1.7,2.9c-1.8,2.4-4.2,3-6.9,1.6c-2.7-1.4-3.8-3.8-2.7-6.5c1-2.6,2.6-5.1,4.3-7.3
		c1.8-2.3,4.6-2.6,7-1c2.6,1.7,3.3,4.3,1.9,7.2C204.7,382.6,204,383.6,203.3,384.6C203.3,384.7,203.3,384.7,203.3,384.6z"/>
	<path class="st0" d="M258.3,416.8c3-5.1,6-6.6,9.2-4.7c3.2,2,3.4,5.3,0.3,10.4c-0.4,0.8-0.9,1.5-1.4,2.2c-2.2,3.1-5.2,3.9-8,2.1
		c-2.6-1.7-3.2-4.5-1.5-7.8C257.3,418.3,257.8,417.6,258.3,416.8z"/>
</g>
<path class="st0" d="M284.4,38.6c-139,0-251.7,112.7-251.7,251.7S145.4,542,284.4,542S536,429.3,536,290.3S423.4,38.6,284.4,38.6z
	 M284.4,526.9C153.7,526.9,47.8,421,47.8,290.3S153.7,53.7,284.4,53.7S521,159.6,521,290.3S415,526.9,284.4,526.9z"/>
</svg>
