<?xml version="1.0" encoding="utf-8"?>
<!-- Generator: Adobe Illustrator 25.3.1, SVG Export Plug-In . SVG Version: 6.00 Build 0)  -->
<svg version="1.1" id="Camada_1" xmlns="http://www.w3.org/2000/svg" xmlns:xlink="http://www.w3.org/1999/xlink" x="0px" y="0px"
	 viewBox="0 0 280.3 295.9" style="enable-background:new 0 0 280.3 295.9;" xml:space="preserve">
<style type="text/css">
	.st0{fill:#E01747;}
</style>
<g>
	<path class="st0" d="M142.5,264.4c-27.8,0-55.7,0-83.5,0c-21.1,0-36.5-15.3-36.5-36.4c0-55.7,0-111.5,0-167.2
		c0-21.1,15.3-36.4,36.4-36.4c55.7,0,111.5,0,167.2,0c20.9,0,36.4,15.3,36.4,36.2c0,55.8,0,111.6,0,167.5
		c0,20.9-15.4,36.3-36.3,36.3C198.3,264.4,170.4,264.4,142.5,264.4z M142.6,248.4c27.7,0,55.3,0,83,0c12.9,0,20.9-8,20.9-20.8
		c0-55.4,0-110.8,0-166.2c0-12.9-8-20.9-20.8-20.9c-55.4,0-110.8,0-166.2,0c-12.9,0-20.9,8-20.9,20.8c0,55.4,0,110.8,0,166.2
		c0,12.9,8,20.9,20.8,20.9C87.1,248.4,114.8,248.4,142.6,248.4z"/>
	<path class="st0" d="M196.4,87.9c-26.7,4.5-53.2,8.9-79.8,13.3c0,1.2,0,2.1,0,3.1c0,27.8,0,55.7,0,83.5c0,15.6-10.5,27.7-25.8,30.2
		c-15.2,2.5-30.7-8.4-33.6-23.6c-3.7-19.4,11.2-36.9,30.9-35.9c4.1,0.2,8.2,1.7,12.5,2.6c0-0.5,0-1.4,0-2.3c0-20.9,0-41.8,0-62.7
		c0-6.3,2.1-8.8,8.2-9.8c31.4-5.3,62.7-10.5,94.1-15.7c5.3-0.9,9.7,2.7,9.7,8.1c0,37,0.1,74-0.1,111c-0.1,15.1-13,28-28,28.8
		c-15.6,0.8-29.3-10.1-31.5-25.1c-1.7-11.6,2-21.3,11.3-28.5s19.7-8.3,30.6-3.7c0.4,0.2,0.8,0.3,1.2,0.5c0.1,0,0.2,0,0.4-0.1
		C196.4,137.1,196.4,112.6,196.4,87.9z M86.5,202.4c7.7,0,14-6.3,14-13.9c0-7.7-6.3-14-13.9-14c-7.7,0-14,6.3-14,13.9
		C72.5,196,78.8,202.4,86.5,202.4z M182.4,202.4c7.7,0,14-6.2,14.1-13.9s-6.2-14-13.9-14.1s-14,6.2-14.1,13.9
		C168.5,196,174.7,202.3,182.4,202.4z"/>
</g>
</svg>
