<?xml version="1.0" encoding="utf-8"?>
<!-- Generator: Adobe Illustrator 25.3.1, SVG Export Plug-In . SVG Version: 6.00 Build 0)  -->
<svg version="1.1" id="Camada_1" xmlns="http://www.w3.org/2000/svg" xmlns:xlink="http://www.w3.org/1999/xlink" x="0px" y="0px"
	 viewBox="0 0 259.3 271.9" style="enable-background:new 0 0 259.3 271.9;" xml:space="preserve">
<style type="text/css">
	.st0{fill:#666666;}
</style>
<g>
	<path class="st0" d="M123.5,248.6c-22.3,0-44.5,0-66.8,0c-14,0-25.3-8.7-28.5-22.1c-0.5-2.2-0.8-4.6-0.8-6.9
		c0-44.8-0.1-89.5,0-134.3c0-16.4,12.6-29,29-29c24.7,0,49.3,0,74,0c5.3,0,9,3.2,9,7.9c0,4.8-3.6,8.1-9.1,8.1c-24.3,0-48.5,0-72.8,0
		c-9.2,0-14.2,5-14.2,14.3c0,43.9,0,87.9,0,131.8c0,9.2,4.9,14.2,14.2,14.2c44,0,88,0,132,0c9.1,0,14-5,14-14.1
		c0-24.2,0-48.3,0-72.5c0-5.3,2.4-8.6,6.8-9.3c4.3-0.7,8.4,2.3,9,6.6c0.1,0.8,0.2,1.7,0.2,2.5c0,24.5,0.1,49,0,73.5
		c-0.1,14.7-9.5,26.1-23.5,28.8c-2.2,0.4-4.5,0.5-6.7,0.5C167.5,248.6,145.5,248.6,123.5,248.6z"/>
	<path class="st0" d="M204.9,35.9c1-1.4,1.8-2.8,2.8-4c5.7-6.6,13-9.1,21.5-7.1c11,2.5,20.7,14.7,20.3,25.5
		c-0.2,6.5-3.1,11.7-8.2,15.6c-1.2,1-1.6,1.7-1.1,3.3c1,3.3-0.5,5.9-2.7,8.3c-10.2,11.2-20.4,22.4-30.6,33.7
		c-17.4,19.2-34.9,38.3-52.2,57.6c-2.6,2.8-5.4,4.7-9.1,5.7c-11.7,3.4-23.4,7.1-35.1,10.5c-5.1,1.5-9.9-1.7-10.4-6.8
		c-0.1-1.5,0.2-3,0.5-4.4c2.4-12,4.8-24,7.4-35.9c0.5-2.2,1.5-4.5,3-6.1c28-31,56-61.8,84-92.7C197.7,36.1,200.8,34.5,204.9,35.9z
		 M202.5,54.7c-0.7,0.8-1.2,1.3-1.7,1.9c-23.9,26.3-47.7,52.6-71.7,78.7c-4,4.3-6.8,8.7-7.5,14.6c-0.6,5.2-2,10.4-3,15.9
		c7.8-2.3,15.2-4.5,22.6-6.8c0.9-0.3,1.7-1,2.3-1.7c25.3-27.9,50.6-55.8,75.9-83.7c0.6-0.6,1.1-1.3,1.6-1.9
		C214.8,66,208.7,60.4,202.5,54.7z M227.3,54.5c2.8,0,4.5-1,5.5-2.9c1.1-2,0.8-4.1-0.7-5.8s-3.1-3.2-4.9-4.6
		c-2.2-1.8-5.3-1.4-7.2,0.7c-2,2.1-2.1,5-0.1,7.2c1.5,1.6,3.1,3,4.8,4.3C225.6,54.1,226.8,54.3,227.3,54.5z"/>
</g>
</svg>
