<?xml version="1.0" encoding="utf-8"?>
<!-- Generator: Adobe Illustrator 25.3.1, SVG Export Plug-In . SVG Version: 6.00 Build 0)  -->
<svg version="1.1" id="Camada_1" xmlns="http://www.w3.org/2000/svg" xmlns:xlink="http://www.w3.org/1999/xlink" x="0px" y="0px"
	 viewBox="0 0 568.7 580.6" style="enable-background:new 0 0 568.7 580.6;" xml:space="preserve">
<style type="text/css">
	.st0{fill:#FFFFFF;}
</style>
<g id="_x36_C8HrJ.tif">
	<g>
		<path class="st0" d="M283.3,517.7C170.2,518,72.9,436.3,53.7,324.8c-20.4-118.1,51-231.6,166.2-264.4
			C351.2,23,487.8,107.8,512.2,242.1c11.1,61.4-0.9,118.4-34.8,170.8c-5.2,8-13.3,11-21.5,8.4c-7.9-2.6-13.4-10.2-12.4-18.5
			c0.4-3.6,2-7.3,4-10.4c15.2-23.7,25.6-49.2,29.7-77c8.7-59.1-6-112-44.4-157.7c-31.6-37.6-72.2-60.7-120.8-67.1
			C239,80.8,178,104.7,130.8,161.1C98.9,199.2,85,244,86.8,293.5c3,82.7,61.6,157.3,141.4,179.8c54.6,15.4,106.4,8.6,155.6-19.7
			c8.9-5.1,17.9-4.1,24,2.7c5.7,6.4,6.5,15.8,1.3,22.6c-2,2.6-4.7,4.7-7.5,6.4C366,506.5,325.1,517.6,283.3,517.7z"/>
		<path class="st0" d="M205.8,284.3c0-17,0-34,0-50.9c0.1-31.3,31.3-49.5,58.5-33.9c29.4,16.9,58.8,33.9,88,51
			c28.2,16.5,28.2,52.1,0,68.6c-29.2,17-58.4,33.9-87.7,50.8c-27.7,15.9-58.8-2.2-58.8-34.1C205.8,318.5,205.8,301.4,205.8,284.3z
			 M242.2,284.7c0,16.7,0,33.3,0,50c0,5,0.8,5.5,5.1,3c28.7-16.6,57.4-33.2,86.1-49.8c4.6-2.7,4.6-3.7,0-6.3
			c-28.7-16.6-57.4-33.2-86.1-49.8c-4.4-2.5-5.2-2.1-5.2,2.9C242.2,251.4,242.2,268,242.2,284.7z"/>
	</g>
</g>
</svg>
