<?xml version="1.0" encoding="utf-8"?>
<!-- Generator: Adobe Illustrator 25.3.1, SVG Export Plug-In . SVG Version: 6.00 Build 0)  -->
<svg version="1.1" id="Camada_1" xmlns="http://www.w3.org/2000/svg" xmlns:xlink="http://www.w3.org/1999/xlink" x="0px" y="0px"
	 viewBox="0 0 306.3 250.9" style="enable-background:new 0 0 306.3 250.9;" xml:space="preserve">
<style type="text/css">
	.st0{fill:#E01747;}
</style>
<g>
	<path class="st0" d="M275,76.1c-80.4,0-160.5,0-241,0c0,2.1,0,4.1,0,6.1c-0.1,2.7-1.5,4.3-3.8,4.3c-2.2,0-3.7-1.6-3.7-4.2
		c0-12.7-0.1-25.5,0.1-38.2c0.2-9.8,8.4-17.8,18.1-18.2c1,0,2-0.1,3-0.1c71.2,0,142.5,0,213.7,0c4.7,0,9.1,0.7,13,3.6
		c5.1,3.7,8.1,8.8,8.1,15.1c0.1,33.2,0.1,66.5,0.1,99.7c0,2.7-1.4,4.3-3.7,4.4c-2.4,0-3.8-1.7-3.8-4.6c0-21.6,0-43.2,0-64.7
		C275,78.2,275,77.2,275,76.1z M34,68.3c80.5,0,160.6,0,240.9,0c0-8.3,0.1-16.3-0.1-24.4c-0.1-3.5-1.9-6.3-4.8-8.4
		c-2.6-1.9-5.5-2.2-8.5-2.2c-71.4,0-142.8,0-214.2,0c-0.7,0-1.5,0-2.2,0c-5.8,0.3-10.8,4.8-11,10.6C33.8,52,34,60,34,68.3z"/>
	<path class="st0" d="M260.3,221.2c1.9,4,0.7,6.9-2.1,9.4c-2.1,1.9-4,4-6,6c-3.4,3.3-6.7,3.3-10,0c-4.1-4-8.1-8.1-12.3-12.3
		c-4.1,4.1-8,8-11.9,12c-3.9,3.9-8.6,2.9-10.5-2.3c-6.3-17-12.7-34-18.9-51c-0.7-1.9-1.6-2.7-3.7-2.6c-3.8,0.2-7.7,0.1-11.5,0
		c-10.2-0.2-17.9-8-17.9-18c0-9.9,7.8-17.9,17.9-18c17.6-0.1,35.2,0,52.7,0c3.5,0,7-0.2,10.5,0.2c8.1,1.1,14.2,7,15.4,14.5
		c1.3,8-2.3,15.3-9.5,19.2c-0.4,0.2-0.7,0.4-1.5,0.8c2.4,0.9,4.6,1.7,6.7,2.5c3.1,1.2,6.3,2.3,9.3,3.5c4.4,1.8,5.3,6.3,2.1,9.7
		c-3.5,3.6-7.1,7.1-10.6,10.6c-0.6,0.6-1.1,1.2-2,2.1c1.9,1.7,3.6,3.4,5.5,5c0.6,0.5,1.5,0.7,2.3,0.7c3,0.1,6,0.1,9,0
		c6.9-0.2,11.7-5.1,11.8-12c0.1-11.4,0-22.8,0-34.2c0-0.7,0-1.5,0-2.2c0-2.9,1.5-4.6,3.8-4.6c2.2,0,3.6,1.7,3.7,4.5c0,0.3,0,0.7,0,1
		c0,11.5-0.2,23,0.1,34.5c0.3,12-9.1,21.1-20.2,20.6C261.8,221,261.3,221.1,260.3,221.2z M253.2,224.6c-4.4-4.4-8.8-8.7-13.1-13
		c-3.4-3.4-3.4-4.7,0.1-8.2c3.9-3.9,7.8-7.7,12-11.9c-20.4-7.6-40.4-15-61-22.7c7.7,20.6,15.1,40.6,22.7,61
		c4.2-4.3,8.2-8.2,12.1-12.1c3.2-3.2,4.6-3.2,7.9,0c4.4,4.4,8.8,8.9,13.2,13.3C249.1,228.8,251,226.9,253.2,224.6z M184.5,172.8
		c-0.4-1-0.6-1.9-1-2.7c-1.2-2.8-1.3-5.5,1-7.9c2.3-2.3,5-2.1,7.9-1c7.8,3,15.9,5.5,23.6,8.9c6.1,2.7,12.3,3,18.7,2.8
		c3.2-0.1,5.8-1.5,7.7-4c2.6-3.4,3-7.2,1.1-11c-1.9-4-5.3-5.9-9.7-5.9c-14.3,0-28.6,0-43,0c-5.9,0-11.8-0.1-17.7,0
		c-5.6,0.1-10,4.3-10.3,9.6c-0.4,5.5,3.2,10.6,8.5,11.2C175.7,173.2,180,172.8,184.5,172.8z"/>
	<path class="st0" d="M117.6,145.2c9.6,3.3,17.3,9.1,22.7,17.6c1.8,2.8,3.2,5.8,4.4,8.9c2,5-0.9,9-6.3,9.1c-5.1,0.1-10.2,0-15.2,0
		c-22.8,0-45.6,0-68.5,0c-0.7,0-1.5,0-2.2,0c-5.3-0.2-8.1-4.1-6.2-9c4.6-12.3,13-20.9,25.2-25.8c0.7-0.3,1.4-0.5,2.1-0.8
		c-1-2.5-1.9-5-3-7.4c-0.3-0.6-1-1-1.6-1.4c-4.4-3.4-6.5-7.9-6-13.5c0.3-3.2,2.1-5.7,5-6.9c1.5-0.6,1.8-1.6,2-3
		c1.8-10.7,7.9-17.9,18.2-21.1c10.1-3.1,19.1-0.5,26.5,7.1c4,4.1,6.1,9.1,6.9,14.6c0.1,0.8,0.8,1.8,1.4,2.2c3.9,2.1,5.5,5.4,5.2,9.7
		c-0.4,4.5-2.4,8-5.9,10.9c-0.9,0.8-1.5,2.1-2.1,3.2C119.3,141.2,118.5,143.1,117.6,145.2z M95.6,149.4c8.6,0,16-5.9,18-14.5
		c0.5-2.3,1.2-4.2,3.9-4.8c1.8-0.4,3.2-3.7,3.1-5.9c-0.1-2.3-1.9-1.9-3.3-2.2c-2.1-0.5-3.1-1.8-3.2-3.9c-0.1-1.7,0-3.5-0.4-5.2
		c-1.9-9.1-10.3-15.6-19.2-14.8c-9.9,0.8-17.2,8.4-17.5,18.2c-0.2,4.8-0.3,4.9-4.8,6c-0.7,0.2-1.7,0.9-1.9,1.5c-0.7,2,1.3,6,3.3,6.3
		c2.7,0.5,3.4,2.2,3.9,4.5C79.3,143.2,86.9,149.4,95.6,149.4z M53.6,173.1c28.1,0,55.7,0,83.5,0c-0.3-0.9-0.5-1.6-0.8-2.2
		c-4.7-9.5-12.2-15.8-22.4-18.9c-1.5-0.5-2.7-0.3-4.1,0.6c-9,5.6-18.2,6-27.4,0.6c-2.6-1.5-4.6-1.6-7.1-0.7
		C65.2,156.1,58.1,162.8,53.6,173.1z"/>
	<path class="st0" d="M114,221c-22.2,0-44.3-0.3-66.5,0.1c-12.6,0.2-21.2-9.3-21.1-21.1c0.3-32.1,0.1-64.2,0.1-96.2
		c0-0.8-0.1-1.7,0.1-2.5c0.3-2,1.6-3.2,3.6-3.2c2.1-0.1,3.4,1.1,3.8,3.2c0.1,0.8,0.1,1.7,0.1,2.5c0,32.1,0.1,64.2-0.1,96.2
		c-0.1,7.3,4.6,13.6,13.6,13.6c44.9-0.2,89.8-0.1,134.7-0.1c1.1,0,2.2,0,3.2,0.2c2,0.5,3,1.9,2.8,3.8c-0.2,1.9-1.3,3.2-3.4,3.4
		c-0.9,0.1-1.8,0.1-2.7,0.1C159.5,221,136.7,221,114,221z"/>
	<path class="st0" d="M203.8,136.4c-10.2,0-20.5,0.1-30.7,0c-8.8-0.1-16.4-6.7-17.5-15.2c-1.3-9.2,4-17.7,12.8-20
		c3-0.8,6.3-0.7,9.4-0.8c2.1,0,3.7,1.7,3.7,3.7c0,2.1-1.6,3.6-3.9,3.7c-1.3,0.1-2.7,0-4,0c-6.2,0.2-10.7,4.6-10.7,10.6
		c0,5.9,4.6,10.4,10.8,10.4c20.1,0,40.1,0,60.2,0c6.2,0,10.8-4.4,10.8-10.3c0.1-6-4.5-10.6-10.9-10.6c-11.8-0.1-23.7,0-35.5-0.1
		c-1.1,0-2.4-0.2-3.3-0.7c-2.4-1.5-2-5.1,0.6-6.3c0.7-0.3,1.4-0.4,2.2-0.4c12.2,0,24.5-0.1,36.7,0c9.4,0.1,16.9,7.3,17.6,16.5
		c0.7,9.3-5.3,17.3-14.6,19.2c-1.4,0.3-2.8,0.3-4.2,0.3C223.5,136.4,213.6,136.4,203.8,136.4L203.8,136.4z"/>
	<path class="st0" d="M101,43.9c3.8,0,7,3.2,7,7s-3.2,7-7,6.9c-3.7,0-6.8-3.2-6.9-6.9S97.2,44,101,43.9z"/>
	<path class="st0" d="M65.2,51c0,3.8-3.2,7-7,6.9s-6.8-3.3-6.7-7.2c0.1-3.7,3.2-6.8,6.9-6.7C62.1,43.9,65.3,47.1,65.2,51z"/>
	<path class="st0" d="M86.6,51c0,3.8-3.2,7-7,6.9c-3.7-0.1-6.7-3.2-6.8-6.9c0-3.8,3.1-7,6.9-7C83.5,43.9,86.6,47.1,86.6,51z"/>
	<path class="st0" d="M95.7,140.2c-2.2-0.8-4.1-1.4-5.9-2.3c-0.5-0.3-1-1.3-0.9-1.9c0-0.4,1.1-1,1.7-1c3.6-0.1,7.3-0.1,10.9,0
		c0.6,0,1.4,0.7,1.6,1.2c0.1,0.5-0.4,1.6-0.8,1.8C100,138.7,97.9,139.4,95.7,140.2z"/>
	<path class="st0" d="M89.9,123.1c0,1.9-1.8,3.7-3.7,3.7c-2,0-3.8-1.8-3.7-3.8c0.1-2,1.8-3.6,3.8-3.5
		C88.2,119.5,89.9,121.2,89.9,123.1z"/>
	<path class="st0" d="M105.5,126.8c-2-0.1-3.6-1.8-3.5-3.8s1.8-3.6,3.7-3.6c2,0.1,3.6,1.8,3.5,3.8
		C109.2,125.2,107.4,126.9,105.5,126.8z"/>
</g>
</svg>
