<?xml version="1.0" encoding="utf-8"?>
<!-- Generator: Adobe Illustrator 25.3.1, SVG Export Plug-In . SVG Version: 6.00 Build 0)  -->
<svg version="1.1" id="Camada_1" xmlns="http://www.w3.org/2000/svg" xmlns:xlink="http://www.w3.org/1999/xlink" x="0px" y="0px"
	 viewBox="0 0 568.7 580.6" style="enable-background:new 0 0 568.7 580.6;" xml:space="preserve">
<style type="text/css">
	.st0{fill:#E01747;}
</style>
<g>
	<path class="st0" d="M290.3,340.8c-9.2,0.4-16.2-2.9-21.5-10.4c-6.5,5.4-13.8,7.1-21.8,5.4c-10.4-2.3-16.6-10.1-16.9-20.8
		c0-1.2,0-2.4,0-3.5c0-37.7-0.2-75.4,0.1-113c0.1-10.9-9.6-14.9-17.5-12.3c-5,1.6-7.8,5.4-7.9,10.6c-0.1,5.7,0.1,11.4-0.1,17.1
		c-0.1,1.6-0.7,3.7-1.8,4.5c-1.2,0.9-3.7,1.2-5,0.6c-1.3-0.6-2.6-2.7-2.7-4.2c-0.3-6.7-0.3-13.4,0-20c0.4-9.4,7.5-16.4,17.9-18.4
		c12.6-2.4,24.2,5,26.4,16.8c0.3,1.8,0.3,3.6,0.3,5.5c0,11.7,0,23.5,0,35.2c0,1.1,0,2.1,0,3.6c5.1-2.6,10-4.1,15.4-3.4
		c5.3,0.7,9.8,3,13.9,6.8c3.7-4.9,8.4-8,14.4-9.2c5.9-1.1,11.3,0,16.8,3.2c0.1-1.4,0.1-2.5,0.1-3.6c0-27.6,0.1-55.1,0-82.7
		c0-8.6,2.6-15.8,10.5-20c8.3-4.4,16.8-4.2,25,0.6c5.8,3.4,8.8,8.7,9.3,15.4c0.2,2.7,0.1,5.4,0.1,8.1c0,35.6,0,71.3,0,106.9
		c0,2.3,0.7,3.6,2.5,5c3.2,2.5,6,5.5,8.9,8.4c6.7,6.7,13.3,13.5,20,20.2c9.2,9.4,11,20.7,5.5,32.6c-3.5,7.5-6.5,15.2-9.9,22.8
		c-1.6,3.7-5.4,4.4-8.1,1.7c-1.7-1.7-1.7-3.6-0.8-5.7c3.4-7.8,6.6-15.6,10.2-23.4c3.5-7.6,2.5-14.8-3.4-20.8
		c-8.6-8.9-17.4-17.6-26.1-26.4c-2.8-2.8-6.2-4.2-10.1-4.2c-9.9,0-19.8,0-29.7,0c-7.5,0-12.6,5.1-12.6,12.2
		c0,7.3,4.8,12.4,12.3,12.6c7.1,0.2,14.2,0.1,21.3,0c2.8,0,4.9,0.7,6.9,2.8c3.6,3.8,7.5,7.5,11.3,11.1c1.8,1.8,2.6,3.7,1.6,6.1
		c-1,2.2-3,2.7-5.3,3c-5.9,0.8-12.1,1.1-17.7,3c-14.7,5-21.6,16.5-24,31.2c-0.3,1.6-0.3,3.2-0.5,4.8c-0.4,3-2.3,4.7-5.2,4.5
		c-2.8-0.2-4.7-2.2-4.4-5.3c0.5-4.4,1.4-8.7,2.1-13C290,342.2,290.1,341.7,290.3,340.8z M335.6,259.9c0-1.5,0-2.8,0-4.1
		c0-35.5,0-71,0-106.5c0-1.2,0-2.4-0.1-3.6c-0.3-4.9-2.8-8.2-7.4-10c-8-3.1-18.1,1.1-18.1,12.1c0.3,36.2,0.1,72.5,0.1,108.7
		c0,1,0.1,2.1,0.1,3.2C318.7,259.9,326.9,259.9,335.6,259.9z M239.8,285.2c0,9.7,0,19.4,0,29c0.1,7.4,4.9,12.4,12.3,12.5
		c8,0.2,13.1-4.2,13.2-12.1c0.1-19.6,0.1-39.1,0-58.7c0-3.7-1.2-7-4.3-9.3c-4.6-3.4-9.6-3.7-14.6-1.4c-4.7,2.2-6.6,6.2-6.6,11.3
		C239.8,266.1,239.8,275.6,239.8,285.2z M300.4,304.2c-12-3.4-18.5-10.8-18.9-21.2c-0.4-10.9,5.5-18.3,18.8-23
		c0-2.8,0.3-5.7-0.1-8.6c-0.6-4.8-3.4-8-8-9.5c-7.6-2.4-17.6,1.2-17.3,12.5c0.3,11.5,0.1,23,0.1,34.5c0,10.1-0.1,20.2,0.1,30.3
		c0.2,6.9,5.2,11.3,12.3,11.4c7.1,0.1,12.6-4.5,12.9-11.2C300.6,314.4,300.4,309.4,300.4,304.2z M310.3,314.5
		c6.3-2.2,12.4-4.3,18.9-6.6c-1.7-1.3-3.1-3.2-4.7-3.4c-4.6-0.4-9.4-0.1-14.2-0.1C310.3,308.1,310.3,311.4,310.3,314.5z"/>
	<path class="st0" d="M233.8,397.1c0,2.4,0,4.9,0,7.5c30.4,0,60.6,0,91,0c0-2.6,0-5,0-7.5c-1-0.5-2.5-0.7-3-1.6
		c-0.9-1.5-1.7-3.5-1.5-5.2c0.2-2.3,2.2-3.2,4.5-3.3c10.4-0.5,18.8-4.9,25-13.2c1.1-1.5,2.1-3.3,3-5c1.9-3.7,4.3-4.9,7.1-3.6
		c2.9,1.4,3.5,4.2,1.6,8c-5,10-12.7,17.1-23.2,20.8c-3.1,1.1-4,2.5-3.6,5.5c0.2,1.6,0,3.2,0,4.8c5.6,1.5,6.6,2.3,6,7.8
		c-0.5,5.4,1.3,8.7,6.3,10.6c1.9,0.7,3.6,1.9,5.3,3.1c3.4,2.3,3.4,6.2-0.1,8.5c-3.1,2-6.4,3.6-9.4,5.6c-0.9,0.6-1.6,2.1-1.9,3.2
		c-0.3,1.8-0.1,3.6-0.1,5.5c0,5.1-1.5,6.6-6.5,6.6c-10.1,0-20.2,0-30.4,0c-26.4,0-52.7,0-79.1,0c-5.9,0-7.6-1.3-7-7.2
		c0.5-5.5-1.2-8.9-6.4-10.8c-1.8-0.7-3.4-1.8-5-2.9c-3.5-2.3-3.5-6.4,0.1-8.6c3-1.9,6.2-3.4,9.1-5.4c1-0.7,1.7-2.2,2-3.5
		c0.3-1.4,0.1-3,0.1-4.5c0-5.7,0.5-6.4,6.1-8c0-2.7,0.2-5.5-0.1-8.2c-0.1-0.9-1.6-2-2.7-2.4c-11.6-4.3-20.3-11.7-24.1-23.8
		c-1.2-3.7-1.8-7.8-1.8-11.7c-0.1-39-0.1-77.9-0.1-116.9c0-4.2,1.6-6.1,4.9-6.1c3.2,0.1,4.8,2.1,4.8,6.3c0,37.6,0,75.1,0,112.7
		c0,2.8,0,5.6,0.3,8.4c1.6,12.8,9.9,19.7,21.7,22.6c5.7,1.4,11.7,1.6,17.5,2.2c3.7,0.4,5.6,1.9,5.6,4.9c0,2.8-1.9,4.8-4.9,4.8
		C241.4,397.2,237.8,397.1,233.8,397.1z M330.9,445.4c0-10.4,0-20.5,0-30.6c-34.6,0-68.9,0-103.2,0c0,10.3,0,20.4,0,30.6
		C262.1,445.4,296.4,445.4,330.9,445.4z"/>
	<path class="st0" d="M141.1,293.1c-5.4,0-10.5,0-15.7,0c-5.8,0-7.8-3.1-5.3-8.4c8.9-19,17.9-37.9,26.9-56.8
		c1.6-3.4,3.5-4.5,6.2-3.7c3.2,1,3.7,3.4,3.5,6.4c-0.6,11.6-1.2,23.2-1.8,35.2c5.4,0,10.5,0,15.6,0c1.5,0,3-0.1,4.5,0.1
		c3.5,0.5,5.3,3.6,4,6.9c-0.2,0.4-0.4,0.8-0.6,1.1c-10.4,18.7-20.8,37.4-31.1,56.1c-1.4,2.6-3.4,3.9-6.4,2.9c-3-1-3.4-3.4-3.1-6.3
		c1.1-10.5,2.1-21,3.2-31.5C141.1,294.8,141.1,294.2,141.1,293.1z M166.4,275.9c-0.8-0.1-1-0.2-1.2-0.2c-4.2,0-8.4,0-12.6,0
		c-6.6,0-7.9-1.5-7.4-8.1c0.3-4.1,0.4-8.1,0.6-12.2c-0.3,0-0.6-0.1-0.8-0.1c-4.4,9.3-8.8,18.5-13.4,28.3c4.9,0,9.1,0,13.4,0
		c5.2,0,6.9,1.8,6.4,6.8c-0.4,4.6-0.9,9.2-1.3,13.8c0.2,0,0.4,0.1,0.6,0.1C155.9,294.9,161,285.5,166.4,275.9z"/>
	<path class="st0" d="M411.4,293.1c-5.6,0-10.8,0-15.9,0c-5.8,0-7.8-3.1-5.2-8.4c8.9-18.9,17.8-37.7,26.7-56.6
		c1.2-2.6,2.8-4.7,6.1-4c3,0.6,4,2.8,3.8,6.8c-0.6,10.3-1.1,20.6-1.6,31c-0.1,1.2,0,2.3,0,3.9c6.1,0,12.1-0.1,18.1,0
		c1.5,0,3.1,0.3,4.3,1c2.5,1.4,2.7,4.1,0.9,7.4c-6.8,12.3-13.7,24.6-20.5,37c-3.4,6.2-6.9,12.4-10.3,18.6c-1.8,3.1-3.9,4.2-6.5,3.2
		c-2.9-1.1-3.4-3.4-3.1-6.3C409.2,315.7,410.3,304.7,411.4,293.1z M420.1,304.2c0.2,0.1,0.3,0.2,0.5,0.3c5.2-9.5,10.5-19,16-28.9
		c-5.7,0-10.6,0-15.6,0c-4.5,0-6.1-1.9-5.9-6.5c0.3-4.8,0.5-9.7,0.7-14.5c-0.2-0.1-0.4-0.1-0.5-0.1c-4.5,9.5-9,19-13.7,29
		c5,0,9.4,0,13.8,0c4.7,0,6.5,2,6,6.6C421,294.8,420.5,299.5,420.1,304.2z"/>
	<path class="st0" d="M286.4,430.1c0,3.9-3,6.9-6.9,7c-4,0-7.2-3.1-7.2-7.1c0-3.8,3.2-7,7-7C283.2,422.9,286.5,426.2,286.4,430.1z"
		/>
	<path class="st0" d="M248.1,437.1c-4,0-7.1-3.2-7.1-7.2c0.1-3.8,3.2-7,7-7c3.9,0,7.2,3.4,7.1,7.3
		C255.1,434,251.9,437.1,248.1,437.1z"/>
	<path class="st0" d="M317.5,430.1c0,4-3.2,7.1-7.3,7c-3.9-0.1-6.9-3.2-6.8-7.1c0-3.8,3.1-7,6.9-7.1
		C314.3,422.9,317.6,426.2,317.5,430.1z"/>
</g>
<path class="st0" d="M284.4,38.6c-139,0-251.7,112.7-251.7,251.7S145.4,542,284.4,542S536,429.3,536,290.3S423.4,38.6,284.4,38.6z
	 M284.4,526.9C153.7,526.9,47.8,421,47.8,290.3S153.7,53.7,284.4,53.7S521,159.6,521,290.3S415,526.9,284.4,526.9z"/>
</svg>
