<?xml version="1.0" encoding="utf-8"?>
<!-- Generator: Adobe Illustrator 25.3.1, SVG Export Plug-In . SVG Version: 6.00 Build 0)  -->
<svg version="1.1" id="Camada_1" xmlns="http://www.w3.org/2000/svg" xmlns:xlink="http://www.w3.org/1999/xlink" x="0px" y="0px"
	 viewBox="0 0 568.7 580.6" style="enable-background:new 0 0 568.7 580.6;" xml:space="preserve">
<style type="text/css">
	.st0{fill:#E01747;}
</style>
<g>
	<path class="st0" d="M214.7,173.4c0-2.5,0-4.7,0-7.3c1.9,0,3.7,0,5.4,0c1.6,0,3.3,0,5.1,0c0.1,1.9,0.2,3.5,0.3,5.3
		c39.2-7.1,78.3-7.1,117.6,0c0.1-1.8,0.2-3.4,0.3-5.1c0.6-0.1,1-0.2,1.4-0.2c2.9,0,5.8,0,8.9,0c0.1,1,0.2,1.8,0.3,2.7
		c0.2,1.8-0.2,4.6,0.7,5.2c2.3,1.4,5.2,2,7.9,2.5c0.7,0.1,1.8-1.1,2.6-1.8c10.2-10.2,20.4-20.4,30.6-30.6c0.9-0.9,1.4-2,2.2-3.1
		c3,3,5.4,5.4,7.7,7.7c-10.2,10.2-20.4,20.4-31.1,31c1.9,0.8,3.1,1.3,4.2,1.8c10.1,4,19.8,8.8,28,16.1c7.5,6.7,12.2,14.7,11.5,25.2
		c0,0.6,0.1,1.3,0.1,2.1c1.7,0,3.2,0,5.1,0c0.1-1.6,0.2-3.2,0.3-5c3.4,0,6.7,0,10.3,0c0,55.1,0,110.4,0,165.8c-3.3,0-6.7,0-10.3,0
		c-0.1-1.6-0.2-3.2-0.3-5c-1.7,0-3.2,0-5,0c-0.1,0.8-0.3,1.7-0.2,2.5c0.6,9.7-3.6,17.3-10.4,23.7c-10,9.5-22.3,15.1-35.1,19.6
		c-5,1.8-10.2,3.4-15.4,4.5c-3,0.6-3.9,2-3.5,4.7c0.1,1.1,0,2.2,0,3.5c-3.6,0-7,0-10.6,0c-0.1-1.6-0.2-3.3-0.3-5.1
		c-39.2,7-78.3,7.1-117.6,0c-0.1,1.8-0.2,3.4-0.2,5.1c-0.6,0.1-1,0.2-1.4,0.2c-2.9,0-5.8,0-8.7,0c-0.2-0.4-0.4-0.7-0.4-1
		c-0.4-6.5-0.4-6.5-6.7-8.3c-15.4-4.2-30.2-9.7-43-19.6c-7-5.4-12.8-11.9-14.4-21c-0.5-2.8-0.4-5.8-0.6-8.9c-1.6,0-3.1,0-5,0
		c-0.1,1.6-0.2,3.2-0.4,4.9c-3.4,0-6.8,0-10.3,0c0-55.2,0-110.4,0-165.9c3.4,0,6.8,0,10.4,0c0,1.6,0,3.1,0,4.9c1.8,0,3.4,0,5.2,0
		c0.1-0.3,0.3-0.8,0.2-1.2c-1-12.9,5.4-22.2,15.4-29.1c7.7-5.3,16.3-9.2,24.5-13.6c1-0.5,2-0.9,3.5-1.5
		c-10.5-10.4-20.8-20.5-31.1-30.7c2.8-2.9,5.2-5.2,7.7-7.7c0.9,0.9,1.9,1.7,2.7,2.6c10.1,10.1,20.3,20.2,30.3,30.4
		c1.7,1.8,3.2,2.3,5.5,1.3C210.4,174.4,212.4,174.1,214.7,173.4z M343.2,294.9c-39.3,7.1-78.4,7.1-117.6,0c0,34.2,0,68,0,101.9
		c39.3,7.1,78.4,7.1,117.6,0C343.2,362.6,343.2,328.8,343.2,294.9z M354.4,254.5c1.8-0.4,3.4-0.8,5-1.3c13.6-3.9,26.9-8.5,38.1-17.3
		c13.5-10.7,13.5-21.7-0.1-32.3c-8.8-6.9-19-11.2-29.5-14.8c-0.7-0.2-2,0-2.6,0.5c-7,6.9-13.9,13.8-20.9,20.7c0.7,1.6,1.4,2.8,2,4.2
		c5.4,12.9,0.7,27.3-11,34.1c-11.6,6.7-26.5,3.9-34.7-6.5c-8.2-10.4-7.5-25.8,1.7-35.3c8.2-8.6,20.7-10.6,32.1-5.2
		c0.9,0.4,2.6,0.8,3.1,0.3c5.5-5.3,10.9-10.8,16.9-16.8c-47.1-10.6-93.4-10.6-140.8,0.1c5.2,5.1,9.9,9.3,14.2,14
		c2.5,2.6,4.2,3.6,8,1.8c11.6-5.3,25.1-1.5,32.4,8.4c7.3,9.9,7,23.9-0.9,33.3c-7.9,9.4-21.3,12.3-32.5,6.9
		c-11.2-5.4-17-17.7-14.2-30.3c0.7-3.1,2.1-6,3.2-9.3c-6.8-6.7-13.5-13.5-20.4-20.2c-0.6-0.6-2.3-0.9-3.1-0.6
		c-8.2,3.7-16.7,7-24.4,11.5c-4.6,2.6-8.6,6.8-12,10.9c-4.2,5.2-4.2,11.4-0.1,16.7c2.8,3.6,6.1,6.9,9.7,9.6
		c12.2,8.7,26.2,13.2,40.7,16.9c0.2-0.9,0.4-1.7,0.6-2.4c3.5,0,6.8,0,10.3,0c0.1,1.8,0.2,3.4,0.3,5.2c39.3,7.1,78.5,7.1,117.9-0.1
		c0-2,0-3.5,0-5.2c3.6,0,7,0,10.4,0C354.1,252.9,354.2,253.7,354.4,254.5z M214.7,394c0-16,0-31.6,0-47.1c0-17.1-0.1-34.2,0.1-51.2
		c0-2.3-0.5-3.4-2.9-3.9c-2.9-0.6-5.8-1.5-8.7-2.4c-13.2-4.1-26.1-9.1-37.4-17.5c-1.5-1.1-2.9-2.2-4.7-3.7c0,1.8,0,3,0,4.2
		c0,27.5,0.2,54.9-0.1,82.4c-0.1,8.6,3.3,14.8,9.6,19.8C183.4,385,198.7,389.8,214.7,394z M407.7,268c-7.9,7.1-16.3,11.8-25.2,15.3
		c-8.2,3.2-16.6,5.8-25,8.4c-2.6,0.8-3.5,1.7-3.4,4.5c0.1,31.4,0.1,62.7,0.1,94.1c0,1.2,0,2.3,0,4c6.1-1.9,11.7-3.4,17.1-5.3
		c11-3.9,21.6-8.6,30.1-16.9c4.3-4.2,6.5-9.2,6.5-15.5c-0.2-28-0.1-56-0.1-84.1C407.7,271.2,407.7,270,407.7,268z M225.5,268.2
		c0,5.4,0,10.5,0,15.9c39.3,7.2,78.5,7.1,117.6,0c0-5.5,0-10.7,0-15.9C286.5,275.2,284.4,275.2,225.5,268.2z M225.6,423.5
		c39.3,7.1,78.5,7.1,117.5,0c0-5.6,0-10.8,0-16c-19.6,3.5-39.2,5.3-58.9,5.3c-19.7,0-39.2-1.9-58.7-5.3
		C225.6,412.8,225.6,417.9,225.6,423.5z M246.9,209c-9.1,0-16.1,7-16.1,16.1c0,9,6.9,15.9,15.8,16.1c9.1,0.1,16.2-6.8,16.3-15.9
		C263,216.1,256,209.1,246.9,209z M338,225.1c0-9.1-7-16.1-16.1-16.1c-9,0-15.9,6.9-16,15.9c-0.1,9.1,6.9,16.2,15.9,16.3
		C330.9,241.2,338,234.2,338,225.1z M214.7,281.4c0-3.8-0.3-7.4,0.1-10.9c0.4-3.8-1.1-5-4.6-5.9c-17.4-4.7-34.2-10.7-48.3-22.5
		c-0.1-0.1-0.4,0.1-0.5,0.1c-1.1,6.5,1,11.9,5.5,16.5c1.9,1.9,3.9,3.7,6,5.3C185.3,272.9,199.6,277.5,214.7,281.4z M161.4,381
		c-1.6,9,2.6,15.1,8.7,20.2c8.4,7,18.3,11.4,28.6,14.9c5.2,1.8,10.5,3.2,15.8,4.8c0-5.6,0-10.5,0-15.1c-9.4-3.3-18.7-6.2-27.7-9.7
		C177.6,392.6,169.1,387.7,161.4,381z M354.1,281.3c11.6-2.8,22.7-6.2,32.8-11.9c5.4-3.1,10.4-6.8,15.1-10.9
		c4.8-4.3,6.7-10,5.5-16.1c-6,3.6-11.6,8-17.9,10.7c-10.7,4.6-21.9,8.1-32.8,12.2c-1,0.4-2.5,1.4-2.5,2.2
		C354,272,354.1,276.6,354.1,281.3z M407.5,381.7c-5.9,3.6-11.5,8-17.7,10.7c-10.8,4.6-22.1,8.2-33.1,12.3c-1,0.4-2.4,1.3-2.5,2
		c-0.2,4.6-0.1,9.3-0.1,14.2c3.6-1,6.9-1.8,10-2.8c12.4-3.9,24.5-8.5,34.6-16.9C404.8,396,409,390,407.5,381.7z M150.1,369.7
		c0-44.7,0-89.2,0-133.6c-1.8,0-3.4,0-5,0c0,44.7,0,89.1,0,133.6C146.8,369.7,148.3,369.7,150.1,369.7z M418.6,236
		c0,44.7,0,89.2,0,133.6c1.8,0,3.4,0,5,0c0-44.7,0-89,0-133.6C422,236,420.4,236,418.6,236z"/>
</g>
<path class="st0" d="M284.4,38.6c-139,0-251.7,112.7-251.7,251.7S145.4,542,284.4,542S536,429.3,536,290.3S423.4,38.6,284.4,38.6z
	 M284.4,526.9C153.7,526.9,47.8,421,47.8,290.3S153.7,53.7,284.4,53.7S521,159.6,521,290.3S415,526.9,284.4,526.9z"/>
</svg>
