<?xml version="1.0" encoding="utf-8"?>
<!-- Generator: Adobe Illustrator 25.3.1, SVG Export Plug-In . SVG Version: 6.00 Build 0)  -->
<svg version="1.1" id="Camada_1" xmlns="http://www.w3.org/2000/svg" xmlns:xlink="http://www.w3.org/1999/xlink" x="0px" y="0px"
	 viewBox="0 0 300.3 282.9" style="enable-background:new 0 0 300.3 282.9;" xml:space="preserve">
<style type="text/css">
	.st0{fill:#E01747;}
</style>
<g>
	<path class="st0" d="M266.8,202.3c2.5,0,4.7-0.1,7,0c2.7,0.1,4.7,1.9,4.7,4.6c0,7.7,0.4,15.6-0.5,23.2
		c-1.7,14.7-15.2,26.6-30.1,26.7c-24.7,0.2-49.5,0.1-74.2,0.1c-3.2,0-5.4-2.1-5.5-4.9c0-3,2.3-5,5.9-5c24,0,48,0,72,0
		c10.9,0,20.4-7.2,21.9-17.5c0.8-5.5,0.1-11.2,0.1-17c-22.4,0-45,0-67.9,0c0,1.4,0,2.8,0,4.1c-0.1,8.5-5.5,13.9-13.9,13.9
		c-13.7,0-27.3,0-41,0c-10,0-20,0-30,0c-9,0-14.3-5.3-14.3-14.3c0-1.2,0-2.3,0-3.6c-22.8,0-45.5,0-68.7,0c0.4,6.1,0,12.2,1.3,18.1
		c2.1,9.9,11,16.3,21.5,16.4c23.6,0,47.2,0,70.7,0c0.8,0,1.7,0,2.5,0c2.7,0.2,4.7,2.4,4.7,4.9s-2,4.7-4.6,5c-0.7,0.1-1.5,0-2.2,0
		c-23.4,0-46.8,0-70.2,0c-19.5,0-33.3-13.9-33.3-33.4c0-5.2,0-10.3,0-15.5c0-3.8,1.8-5.6,5.7-5.7c6.1-0.2,6.1-0.2,6.1-6.2
		c0-41.8,0-83.7,0-125.5c0-6.4,1.6-12,6.2-16.6c4.2-4.2,9.4-6.2,15.3-6.2c21.1,0,42.2,0,63.2,0.1c2,0,2.8-0.5,3.3-2.5
		C126,32.6,137.8,23.9,151,24c13.1,0.1,24.7,9,28,21.9c0.5,1.8,1.2,2.1,2.9,2.1c20.8-0.1,41.7,0,62.5,0c13.9,0,22.6,8.7,22.6,22.6
		c0,42.7,0,85.3,0,128C266.8,199.6,266.8,200.8,266.8,202.3z M173.6,72.4c0.4,0,1.1,0.1,1.8,0.1c9.1,0.1,14.6,5.7,14.6,14.8
		c0,9.7,0,19.3,0,29c0,4-1.9,6-6,6c-22.3,0-44.7,0-67,0c-3.9,0-5.9-2-5.9-5.9c0-10-0.1-20,0-30c0.1-8,5.7-13.7,13.7-13.9
		c1,0,2,0,2.7,0c-2.3-4.9-4.4-9.6-6.7-14.7c-0.4,0-1.3,0-2.2,0c-20.5,0-41,0-61.5,0c-8.7,0-12.8,4.1-12.8,12.9
		c0,42.7,0,85.5,0,128.2c0,1,0,2,0,3.2c1.3,0,2.3,0,3.2,0c18.9,0,37.8,0,56.7,0c5,0,6.6,1.6,6.7,6.5c0,2.2,0,4.5,0,6.7
		c0,4.1,0.7,4.8,4.8,4.8c16.5,0,33,0,49.5,0c6.9,0,13.8,0,20.7,0c3.2,0,4.1-1,4.2-4.2c0-2.3,0-4.7,0-7c0-5.4,1.5-6.9,7-6.9
		c18.9,0,37.8,0,56.7,0.1c2.3,0,2.9-0.6,2.9-2.9c-0.1-43.1,0-86.2-0.1-129.2c0-8-4.3-12.3-12.4-12.3c-20.7,0-41.3,0-62,0
		c-0.9,0-1.8,0-2,0C177.9,63,175.7,67.7,173.6,72.4z M121.1,112.2c19.8,0,39.2,0,58.7,0c0.1-0.4,0.2-0.8,0.2-1.1
		c0-8.2,0-16.3,0-24.5c0-2.8-1.4-4-4.5-4c-16.6,0-33.2,0-49.7,0c-3.3,0-4.5,1.2-4.6,4.5c0,4.2,0,8.5,0,12.7
		C121.1,103.9,121.1,108,121.1,112.2z M150.4,72.5c10.7,0,19.5-8.6,19.5-19.3c0-10.6-8.7-19.3-19.3-19.3c-10.7,0-19.5,8.7-19.5,19.3
		C131.2,63.8,139.8,72.5,150.4,72.5z"/>
	<path class="st0" d="M150.5,256.9c-2.6,0-4.9-2.3-4.9-4.9c0-2.7,2.3-5.1,5.1-5c2.8,0,5,2.4,4.9,5.2
		C155.4,254.8,153.2,256.9,150.5,256.9z"/>
	<path class="st0" d="M150.5,137.4c26.2,0,52.3,0,78.5,0c5,0,6.6,1.6,6.6,6.5c0,12.8,0,25.7,0,38.5c0,4.6-1.7,6.3-6.3,6.3
		c-52.5,0-104.9,0-157.4,0c-4.7,0-6.4-1.7-6.4-6.3c0-13,0-26,0-39c0-4.3,1.8-6.1,6.1-6.1C97.8,137.4,124.2,137.4,150.5,137.4z
		 M225.4,178.6c0-10.5,0-20.8,0-31.1c-50,0-99.9,0-149.7,0c0,10.4,0,20.7,0,31.1C125.6,178.6,175.4,178.6,225.4,178.6z"/>
	<path class="st0" d="M102.7,168c-2.1,0-4.2,0.1-6.2,0c-2.7-0.1-4.7-2.2-4.8-4.8c-0.1-2.5,1.7-4.9,4.3-5c4.6-0.2,9.2-0.2,13.7,0
		c2.6,0.1,4.4,2.5,4.3,5c-0.1,2.6-2,4.6-4.8,4.8C107,168.1,104.9,168,102.7,168z"/>
	<path class="st0" d="M198.2,168c-2.2,0-4.3,0.1-6.5,0c-2.7-0.1-4.5-2.1-4.7-4.6s1.5-5,4.1-5.1c4.6-0.3,9.3-0.3,14,0
		c2.6,0.1,4.4,2.6,4.2,5c-0.1,2.6-2.1,4.6-4.9,4.7C202.4,168.1,200.3,168,198.2,168L198.2,168z"/>
	<path class="st0" d="M134.6,168c-2.1,0-4.2,0.1-6.2,0c-2.9-0.1-4.8-2-4.9-4.7s1.7-5.1,4.6-5.2c4.3-0.2,8.7-0.2,13,0
		c2.9,0.1,4.8,2.4,4.7,5.2c-0.1,2.6-2,4.6-4.9,4.7C138.8,168.1,136.7,168,134.6,168z"/>
	<path class="st0" d="M166.5,168c-2.2,0-4.3,0.1-6.5,0c-2.7-0.1-4.5-2-4.7-4.6c-0.2-2.7,1.5-5.1,4.3-5.2c4.6-0.2,9.2-0.2,13.7,0
		c2.7,0.1,4.4,2.6,4.2,5.3c-0.2,2.5-2.1,4.4-4.8,4.5C170.6,168.1,168.6,168,166.5,168z"/>
</g>
</svg>
