<?xml version="1.0" encoding="utf-8"?>
<!-- Generator: Adobe Illustrator 25.3.1, SVG Export Plug-In . SVG Version: 6.00 Build 0)  -->
<svg version="1.1" id="Camada_1" xmlns="http://www.w3.org/2000/svg" xmlns:xlink="http://www.w3.org/1999/xlink" x="0px" y="0px"
	 viewBox="0 0 568.7 580.6" style="enable-background:new 0 0 568.7 580.6;" xml:space="preserve">
<style type="text/css">
	.st0{fill:#E01747;}
</style>
<path class="st0" d="M284.4,38.6c-139,0-251.7,112.7-251.7,251.7S145.4,542,284.4,542S536,429.3,536,290.3S423.4,38.6,284.4,38.6z
	 M284.4,526.9C153.7,526.9,47.8,421,47.8,290.3S153.7,53.7,284.4,53.7S521,159.6,521,290.3S415,526.9,284.4,526.9z"/>
<g>
	<path class="st0" d="M384.7,235.2c5.6-2.2,10.9-5.3,16.6-6.4c13-2.5,24.3,2.5,34.1,10.8c13.1,11,20.4,25.5,22.1,42.3
		c3.7,35.3-8.4,65.3-32.6,90.8c-3.1,3.3-7,3.4-9.9,0.7c-3-2.9-2.9-6.9,0.6-10.5c13.4-13.9,22.6-30.2,26.8-49.1
		c3.9-17.6,4-34.9-5.3-51c-6.2-10.8-14.8-18.9-27.8-20.7c-7.9-1.1-14.2,2.1-18.5,8.8c-0.7,1.1-0.8,3-0.5,4.4
		c4.2,17.7,7.8,35.5,9.3,53.7c1.1,13,0.7,13.9-11.6,17.4c-40.1,11.2-81,15.3-122.6,13.3c-30.1-1.4-59.6-6-88.5-14.5
		c-7.1-2.1-8.2-3.4-7.9-10.8c0.9-20,4.8-39.5,9.6-58.8c0.6-2.2,0.3-3.9-1-5.6c-5.6-7.7-14.4-10.1-24.3-6.4
		c-12.7,4.9-20.4,14.6-25.1,26.9c-6.3,16.2-4.9,32.7-0.2,49c9.2,32,30.6,53.5,59.9,67.7c19.7,9.5,40.7,14.4,62.2,16.7
		c27.4,2.9,54.7,2.7,81.9-2c10.5-1.8,20.8-5,31.3-7.6c1.5-0.4,3.1-0.9,4.6-0.9c3.2,0.2,5.7,2.8,6,5.9c0.4,3.1-1.4,6.2-4.9,7.2
		c-7,2.2-14,4.4-21.2,6.1c-28.5,6.5-57.3,7.7-86.4,5.8c-23-1.5-45.6-5.5-67.2-13.8c-28.9-11.2-52.9-28.5-68.6-55.9
		c-12.6-22-18.2-45.5-13.8-70.8c2.8-16.4,10.6-30.2,24.1-40.4c12.4-9.4,31-14.6,47.7-1.4c0.3-0.5,0.6-1,0.9-1.4
		c2.2-3.1,5.4-4.2,8.5-2.8c3.2,1.4,4.7,4.4,3.7,8.1c-2.1,8.3-4.6,16.6-6.5,24.9c-1.9,8.4-3.6,16.8-5.1,25.3
		c-1.2,7.2-1.9,14.6-2.9,22.5c68,18.5,135.7,18.4,204,0.1c-1-7.6-1.7-14.9-2.9-22.1c-4.8-29.2-12.1-57.8-24.5-84.7
		c-3.9-8.4-9.2-16.3-14.5-24c-3.8-5.5-9.4-8.7-16.5-6.2c-2.5,0.8-4.7,2.5-6.8,4.1c-1.3,1-2.1,2.6-3,4.1
		c-11.8,20.3-33.5,21.1-48.9,16.1c-7.2-2.4-12.6-7.4-16.9-13.6c-1.4-2.1-2.7-4.2-4.2-6.1c-4.8-6-13.8-7.1-19.7-2.2
		c-2.9,2.4-5.3,5.5-7.9,8.4c-1.9,2.1-4.4,3.4-6.9,2.2c-2-1-4-3-4.8-5c-0.6-1.5,0.2-4.1,1.3-5.6c2.3-3.2,5-6.1,7.8-8.9
		c13.1-13,34.5-8.1,42.4,4.6c0.5,0.8,1.1,1.4,1.5,2.2c6.3,11.9,16.8,14.2,28.9,12.5c5.4-0.8,9.8-3.4,13.1-7.8
		c1.4-1.8,2.7-3.6,3.8-5.6c8.6-14.8,31.5-19.6,45.6-4c9,9.9,15.2,21.4,20.2,33.5c3.9,9.5,7.1,19.3,10.6,28.9
		C384.4,234.4,384.7,235.2,384.7,235.2z"/>
	<path class="st0" d="M262,281.3c0.3-2.5,1-6.1,1.1-9.7c0.1-1.6-0.6-3.5-1.5-4.8c-2.3-2.9-5.1-5.5-7.5-8.3c-4-4.6-2.1-10.2,3.9-11.6
		c1.8-0.4,3.5-1,5.3-1c6.3-0.1,10.2-3.2,12.3-8.9c0.5-1.4,1.4-2.6,2.1-3.9c1.4-2.8,3.5-4.8,6.8-4.8s5.3,2.2,6.7,4.9
		c1.5,2.9,3,5.9,4.9,8.5c0.9,1.3,2.5,2.5,4,2.9c3.5,1,7.1,1.4,10.6,2.2c6.4,1.5,8.1,7.1,3.8,12c-1,1.2-2,2.5-3.2,3.5
		c-5.6,4.1-6.5,9.5-4.8,15.8c0.5,1.7,0.5,3.6,0.6,5.4c0.1,5.2-4.5,8.4-9.3,6.5c-3.4-1.3-6.7-2.8-9.9-4.5c-2.5-1.4-4.5-1.2-7,0.1
		c-2.8,1.5-5.7,2.8-8.6,4C266.3,292.3,261.6,289,262,281.3z M277,272.2c5.1-3.2,9.9-3,15.1,0.1c-2.2-6,0.2-10.4,5.1-14.6
		c-6.8,0.1-10.5-3.1-13-9.2c-2,6.7-6.1,9.1-12.5,9.4C276.7,261.9,278.8,266.2,277,272.2z"/>
	<path class="st0" d="M395.1,393.9c-3.7-0.1-6.6-3-6.6-6.7c0-3.7,3.2-6.9,7-6.8c3.6,0.1,6.6,3.2,6.6,6.8
		C402,391,399,393.9,395.1,393.9z"/>
	<path class="st0" d="M200.8,215.9c-3.9,0-6.8-3-6.8-6.9c0.1-3.6,3.1-6.6,6.7-6.6c3.7,0,6.9,3.3,6.8,6.9
		C207.5,213.1,204.6,215.9,200.8,215.9z"/>
</g>
</svg>
