<?xml version="1.0" encoding="utf-8"?>
<!-- Generator: Adobe Illustrator 25.3.1, SVG Export Plug-In . SVG Version: 6.00 Build 0)  -->
<svg version="1.1" id="Camada_1" xmlns="http://www.w3.org/2000/svg" xmlns:xlink="http://www.w3.org/1999/xlink" x="0px" y="0px"
	 viewBox="0 0 394 383" style="enable-background:new 0 0 394 383;" xml:space="preserve">
<style type="text/css">
	.st0{fill:#666666;}
</style>
<path class="st0" d="M246.3,195.6c-2.4-1.6-4.9-2.6-6.6-4.4c-36-35.9-71.9-71.8-107.8-107.8c-11-11-13.3-23.2-6.7-34.8
	c8-14.1,26.4-18,39.3-8.2c2.3,1.8,4.5,3.8,6.6,5.9c42.7,42.6,85.3,85.3,128,127.9c15.5,15.5,15.5,30,0,45.4
	c-43,43-85.9,85.9-128.8,128.9c-7.8,7.8-16.5,12.4-27.8,9.6c-19.9-4.9-27.4-27.6-14.5-43.5c1.6-2,3.4-3.8,5.2-5.5
	c35.6-35.6,71.3-71.3,106.9-106.9C241.6,200.6,243.1,198.9,246.3,195.6z"/>
</svg>
