<?xml version="1.0" encoding="utf-8"?>
<!-- Generator: Adobe Illustrator 25.3.1, SVG Export Plug-In . SVG Version: 6.00 Build 0)  -->
<svg version="1.1" id="Camada_1" xmlns="http://www.w3.org/2000/svg" xmlns:xlink="http://www.w3.org/1999/xlink" x="0px" y="0px"
	 viewBox="0 0 328.3 218.9" style="enable-background:new 0 0 328.3 218.9;" xml:space="preserve">
<style type="text/css">
	.st0{fill:#E01747;}
</style>
<path class="st0" d="M261.2,119.1c-1.5,0-2.4,0-3.4,0c-69,0-138,0-207,0c-5.6,0-9.4-2.5-10.8-7.1c-1.9-6.1,2.4-12.5,8.8-12.9
	c0.9-0.1,1.8,0,2.7,0c68.7,0,137.5,0,206.2,0c1,0,1.9,0,2.9,0c0.2-0.3,0.4-0.6,0.6-0.9c-0.9-0.6-1.9-1.1-2.6-1.8
	c-10.8-10.7-21.5-21.4-32.2-32.1c-3.2-3.2-4-7.7-2.1-11.5c1.8-3.7,5.7-6.2,9.7-5.6c2.2,0.3,4.7,1.3,6.2,2.8
	c17.6,17.3,35.1,34.7,52.5,52.1c4.2,4.2,3.8,10.2-0.7,14.7c-14.2,14.1-28.3,28.2-42.5,42.3c-2.9,2.9-5.8,5.8-8.7,8.6
	c-4.4,4.3-10.4,4.5-14.5,0.4c-4.1-4.1-4-10.2,0.5-14.7c10.7-10.7,21.5-21.4,32.2-32.1C259.6,120.8,260.2,120.1,261.2,119.1z"/>
</svg>
