<?xml version="1.0" encoding="utf-8"?>
<!-- Generator: Adobe Illustrator 25.3.1, SVG Export Plug-In . SVG Version: 6.00 Build 0)  -->
<svg version="1.1" id="Camada_1" xmlns="http://www.w3.org/2000/svg" xmlns:xlink="http://www.w3.org/1999/xlink" x="0px" y="0px"
	 viewBox="0 0 214.3 315.9" style="enable-background:new 0 0 214.3 315.9;" xml:space="preserve">
<g>
	<path d="M96.5,205.6c-10.3,9.1-20.3,17.9-30.3,26.8c-1.6,1.4-3.1,2.7-4.7,4.1c-3.5,3.2-7.5,4-11.8,2.2c-4.3-1.9-6.3-5.5-6.3-10.2
		c0-18.7,0-37.3,0-56c0-45.2,0-90.5,0-135.7c0-6.8,4.8-11.7,11.1-11.4c3.1,0.2,5.5,1.6,7.6,3.8c25.2,25.6,50.4,51.2,75.6,76.7
		c20.4,20.6,40.7,41.3,61.1,61.9c3.1,3.1,5.2,6.5,4.3,11.1c-1.1,5.2-5.2,8.5-10.8,8.5c-14.7,0-29.5,0-44.2,0c-0.7,0-1.5,0-2.6,0
		c0.4,1.2,0.8,2.1,1.1,3c9,21.3,18,42.6,26.9,63.9c2.6,6.2,1.1,10-5,12.6c-10.1,4.4-20.3,8.8-30.4,13.2c-5.8,2.5-9.8,0.9-12.3-4.9
		c-9.4-22.1-18.7-44.3-28-66.4C97.6,207.9,97.1,206.9,96.5,205.6z M180.1,171.4C139.7,130.5,99.8,90.1,59.6,49.3
		c0,56.1,0,111.6,0,167.5c0.9-0.7,1.5-1.2,2.1-1.7c10.5-9.3,21-18.6,31.5-27.8c5.8-5.1,11.4-3.8,14.4,3.3
		c7.8,18.5,15.6,36.9,23.4,55.4c2.4,5.6,4.7,11.2,7.1,16.9c6.2-2.7,12.2-5.3,18.4-8c-0.5-1.2-0.8-2.2-1.2-3.1
		c-9.5-22.6-19.1-45.2-28.6-67.8c-3-7,0.6-12.4,8.2-12.4c14,0,28,0,42,0C177.7,171.4,178.6,171.4,180.1,171.4z"/>
</g>
</svg>
