<?xml version="1.0" encoding="utf-8"?>
<!-- Generator: Adobe Illustrator 25.3.1, SVG Export Plug-In . SVG Version: 6.00 Build 0)  -->
<svg version="1.1" id="Camada_1" xmlns="http://www.w3.org/2000/svg" xmlns:xlink="http://www.w3.org/1999/xlink" x="0px" y="0px"
	 viewBox="0 0 264.7 266.2" style="enable-background:new 0 0 264.7 266.2;" xml:space="preserve">
<style type="text/css">
	.st0{fill:#666666;}
</style>
<path class="st0" d="M51.7,253.2c3.2-12.5,6.2-24.5,9.3-36.5c4.5-17.7,9-35.3,13.5-52.9c0.4-1.7,0.1-2.7-1.2-3.8
	c-22.5-19-44.9-38-67.3-57.1c-0.5-0.5-1.1-1-2-1.8c4-0.3,7.4-0.6,10.9-0.8c21.5-1.4,43.1-2.8,64.6-4.2c5.2-0.3,10.3-0.8,15.5-1
	c1.8-0.1,2.2-1.1,2.7-2.4c8.6-21.6,17.1-43.1,25.7-64.7c2.7-6.8,5.4-13.6,8.4-21c0.5,1.2,0.9,2,1.2,2.8c11,27.5,21.9,55,32.8,82.5
	c0.7,1.9,1.6,2.6,3.7,2.8c19.5,1.2,38.9,2.5,58.4,3.8c8.8,0.6,17.6,1.1,26.4,1.7c1.6,0.1,3.2,0.3,5.5,0.5
	c-5.5,4.6-10.5,8.9-15.5,13.1c-18,15.2-36,30.5-54,45.7c-1.4,1.2-1.7,2.3-1.2,4c7.4,28.9,14.8,57.9,22.2,86.8
	c0.2,0.6,0.3,1.3,0.5,2.4c-1.1-0.7-1.9-1.1-2.7-1.6c-25-15.8-50-31.6-74.9-47.4c-1.8-1.1-2.9-1.1-4.6,0
	c-24.9,15.8-49.8,31.5-74.7,47.3C53.9,251.9,53,252.4,51.7,253.2z"/>
</svg>
