<?xml version="1.0" encoding="utf-8"?>
<!-- Generator: Adobe Illustrator 25.3.1, SVG Export Plug-In . SVG Version: 6.00 Build 0)  -->
<svg version="1.1" id="Camada_1" xmlns="http://www.w3.org/2000/svg" xmlns:xlink="http://www.w3.org/1999/xlink" x="0px" y="0px"
	 viewBox="0 0 369 365" style="enable-background:new 0 0 369 365;" xml:space="preserve">
<style type="text/css">
	.st0{fill:#E01747;}
</style>
<g>
	<path class="st0" d="M284.5,303c3.3,0,6.2,0,9.2,0c2.7,0,4.3,1.5,4.3,3.8c0,2.3-1.6,3.7-4.4,3.7c-0.5,0-1,0-1.5,0
		c-72.3,0-144.7,0-217,0c-4,0-5.8-1.2-5.8-3.8c0.1-2.5,1.8-3.7,5.7-3.7c2.2,0,4.5,0,7,0c0-4.1-0.1-8.1,0-12.1c0.1-2.1,0.2-4.2,1-6.1
		c2.1-5.2,6.2-8,11.9-8c10.2-0.1,20.3-0.1,30.5,0c1.7,0,3.4,0.4,5.4,0.7c0-3.3,0-6.6,0-9.9c0-7.7,5.2-13.1,12.9-13.3
		c3.4-0.1,6.8,0.1,10.2-0.1c0.8,0,2-0.8,2.4-1.5c5.2-10.8,10.4-21.6,15.5-32.4c0.4-0.9,0.7-2.1,0.7-3.1c0.5-8.8,0.5-17.7,1.5-26.4
		c0.6-5.5,2.4-10.8,3.8-16.2c0.6-2.3,1.3-4.7,2-7c0.8-2.7,2.6-3.8,4.8-3.2c2.2,0.7,3.1,2.6,2.4,5.2c-1.1,3.9-2.2,7.8-3.4,12.2
		c5.8-2.4,11-4.5,16.3-6.7c0.5-0.2,1-0.9,1.2-1.5c1.9-5.7,3.8-11.5,5.8-17.3c-0.3-0.1-0.6-0.2-0.8-0.2c-2.1,0.1-3.6-0.7-4.2-2.7
		c-0.6-2.1,0.4-3.5,2.2-4.6c8.1-4.9,16.1-9.8,24.1-14.6c3.6-2.2,7.2-4.3,10.6-6.5c4.3-2.8,6.8-6.7,7.2-12.3c-1,0.5-1.7,0.8-2.4,1.2
		c-14.8,8-29.5,16.1-44.3,24c-2.9,1.6-4.8,3.7-5.8,6.8c-0.7,2.3-1.4,4.6-2.1,6.9c-0.8,2.6-2.6,3.7-4.9,3c-2.1-0.7-3.1-2.6-2.3-5
		c1.4-4.5,3-9,4.5-13.5c-4.3-4-6.7-9.8-8.8-15.5c-0.6-1.7-0.3-4,0-5.9c1-5.8,8.4-9.6,13.5-10.3c5.1-0.7,9.6,1.9,12.2,7.2
		c1.9,3.7,3.7,7.4,5.6,11.3c8-4.3,15.9-9.1,24.3-13c4.8-2.3,6.4-5.1,6.2-10.4c-0.4-13.9-0.2-27.8-0.1-41.7c0-0.9,0-1.8,0.2-2.7
		c0.4-2,1.8-3,3.8-2.9c1.9,0.1,3.1,1.2,3.4,3.1c0.1,0.7,0.2,1.5,0.3,2.5c1,0,2,0,3,0c13.2,0,26.5,0,39.7,0c0.8,0,1.7,0,2.5,0
		c2.4,0.2,4.1,1.3,4.9,3.6c0.9,2.3,0.2,4.3-1.5,5.9c-3.5,3.2-7.1,6.3-10.8,9.6c3.7,3.2,7.2,6.4,10.7,9.5c1.7,1.5,2.4,3.4,1.7,5.6
		c-0.6,2.1-2,3.4-4.2,3.8c-0.9,0.2-1.8,0.2-2.7,0.2c-11.9,0-23.8,0-35.7,0c-2.5,0-5,0-7.8,0c0,2-0.1,3.8,0,5.6
		c0,0.4,0.5,1.1,0.9,1.2c2.4,0.6,2.9,2.6,3.3,4.6c1,5.9-0.1,11.4-3.1,16.6c-0.6,1-1.1,2.1-1.1,3.2c-0.1,20.7,0,41.5,0,62.2
		c0,0.4,0.1,0.8,0.1,1.5c0.8,0.1,1.6,0.1,2.4,0.1c6.2,0,12.5,0,18.7,0c9.1,0,14.2,5.1,14.2,14.3c0,30.6,0,61.2,0,91.7
		C284.5,300.5,284.5,301.6,284.5,303z M276.8,302.9c0.1-0.7,0.1-1.2,0.1-1.7c0-31.3,0-62.6,0-94c0-4.3-1.9-6.2-6.3-6.3
		c-9.3,0-18.7,0-28,0c-5.2,0-6.9,1.7-6.9,6.9c0,17.7,0,35.3,0,53c0,2.9-1.5,4.6-3.8,4.6c-2.3,0-3.7-1.7-3.7-4.6c0-5.5,0-11,0-16.5
		c0-4.9-1.9-6.8-6.8-6.8c-9.1,0-18.2,0-27.2,0c-5.5,0-7.2,1.7-7.2,7.2c0,18.5,0,37,0,55.5c0,0.9,0.1,1.8,0.1,2.6
		c13.8,0,27.4,0,41.1,0c0-7.2,0-14.3,0-21.3c0-3,1.3-4.6,3.6-4.7c2.4-0.1,3.9,1.6,3.9,4.7c0,6.2,0,12.5,0,18.7c0,0.9,0,1.7,0,2.6
		C249.6,302.9,263.1,302.9,276.8,302.9z M179.3,302.9c0.1-0.5,0.2-0.7,0.2-0.9c0-11.5,0.1-23,0-34.5c0-3.8-2-5.6-6.1-5.7
		c-9.6,0-19.2,0-28.7,0c-4.5,0-6.3,1.9-6.3,6.4c0,10.8,0,21.7,0,32.5c0,0.7,0.1,1.4,0.1,2.2C152.1,302.9,165.6,302.9,179.3,302.9z
		 M241.3,135.1c-0.4,0.1-0.7,0.1-0.9,0.2c-7.6,4.6-15.1,9.1-22.6,13.8c-0.7,0.4-1.2,1.4-1.5,2.2c-2.6,7.8-5.2,15.6-7.8,23.4
		c-0.5,1.4-0.3,2.4,0.7,3.6c4.4,5,8.5,10.3,12.9,15.3c4,4.6,5.6,9.5,4.5,15.6c-1.2,6.9-1.8,13.8-2.6,20.9c1.5,0.3,2.8,0.6,4.3,1
		c0-8.4-0.1-16.6,0-24.8c0.1-5.2,2.5-9.1,7.2-11.4c1.7-0.8,3.8-1.2,5.8-1.8C241.3,173.9,241.3,154.5,241.3,135.1z M288.6,90.8
		c-2.9-2.5-5.2-4.6-7.6-6.7c-3.7-3.3-3.6-6.3,0-9.7c2.3-2.1,4.7-4.2,7.2-6.4c-0.6-0.2-0.8-0.4-1-0.4c-12.2,0-24.3,0-36.5-0.1
		c-1.8,0-1.8,0.9-1.8,2.2c0,5.7,0,11.5,0,17.2c0,1.2,0,2.4,0,3.7C262.2,90.8,275,90.8,288.6,90.8z M130.8,302.9
		c0-4.6,0.1-8.9,0-13.3c-0.1-3.1-2-5.1-5.2-5.3c-0.3,0-0.7,0-1,0c-9.6,0-19.3,0-28.9,0c-3.3,0-5.7,1.4-5.8,3.9
		c-0.3,4.8-0.1,9.7-0.1,14.6C103.5,302.9,117,302.9,130.8,302.9z M164.2,253.9c0.2,0.2,0.4,0.4,0.6,0.6c0.8-0.7,1.9-1.2,2.5-2
		c6.2-8.1,12.1-16.5,18.6-24.4c4.6-5.6,7.7-11.5,8.2-18.8c0.1-0.8,0.3-1.6,0.4-2.5c1.4-7.6,2.7-15.2,4.2-23.2
		c-5.4,2.2-10.3,4.3-15.3,6.2c-1.5,0.6-2.1,1.3-2.2,3c-0.3,8.1-0.7,16.1-1.3,24.2c-0.2,2.7-1,5.4-2.1,7.9c-4.1,9-8.4,17.9-12.7,26.8
		C164.9,252.4,164.6,253.2,164.2,253.9z M206,185.8c-0.7,4-1.1,7.3-1.9,10.4c-0.8,2.8-0.1,4.5,2.5,5.7c3.7,1.7,5,4.7,5.3,8.6
		c0.5,6.5,1.2,12.9,1.9,19.4c0.9,0,1.7,0,2.6,0c1-8.6,2.1-17.2,3.1-25.8c0.1-0.8-0.2-1.7-0.7-2.3C214.7,196.6,210.5,191.4,206,185.8
		z M194.9,113.7c-2.2,1.1-4,1.8-5.6,2.7c-2.4,1.3-3,3.5-1.8,5.9c1.3,2.8,2.7,5.5,4.2,8.2c1.4,2.5,3.5,3.1,6.1,1.9
		c1.1-0.5,2.1-1,3.1-1.6c2.3-1.4,3-3.5,1.8-6c-1.3-2.8-2.6-5.6-4.3-8.1C197.6,115.5,196.1,114.7,194.9,113.7z M202.6,207.9
		c-0.2,0.1-0.5,0.2-0.7,0.3c-1.5,7.6-1.6,15.7-8.5,21.7c4.8,0,8.7,0,12.7,0c-0.6-6.6-1.2-13.1-2-19.5
		C204.1,209.5,203.2,208.7,202.6,207.9z M175.5,254.2c1.6,0.3,2.7,0.6,3.8,0.8c0-1.9,0-3.6,0-5.8
		C177.8,251.1,176.8,252.5,175.5,254.2z"/>
</g>
</svg>
