<?xml version="1.0" encoding="utf-8"?>
<!-- Generator: Adobe Illustrator 25.3.1, SVG Export Plug-In . SVG Version: 6.00 Build 0)  -->
<svg version="1.1" id="Camada_1" xmlns="http://www.w3.org/2000/svg" xmlns:xlink="http://www.w3.org/1999/xlink" x="0px" y="0px"
	 viewBox="0 0 327.3 310.9" style="enable-background:new 0 0 327.3 310.9;" xml:space="preserve">
<style type="text/css">
	.st0{fill:#E01747;}
</style>
<g>
	<path class="st0" d="M68.5,44.7c0-2.1,0-3.8,0-5.5c0.2-8.9,7.2-15.8,16-15.8s15.8,7,16,15.9c0,1.7,0,3.5,0,5.3
		c0.6,0.1,1,0.2,1.4,0.2c6.5,0,13,0,20,0c0-2.1-0.1-4,0-6c0.3-6.9,4.7-12.7,11.2-14.7c6.4-2,13.3,0.3,17.4,5.6
		c2.4,3.1,3.3,6.7,3.3,10.5c0,1.4,0,2.8,0,4.4c7.1,0,14,0,21.3,0c0-1.8-0.1-3.6,0-5.4c0.4-8.4,6.6-15,14.6-15.7s15.2,4.5,16.9,12.4
		c0.6,2.7,0.4,5.6,0.6,8.7c6.9,0,13.9,0,21.2,0c0-1.4,0-2.9,0-4.3c0-9.7,6.9-16.8,16.1-16.8c9.1,0,15.9,7.2,16,16.9
		c0,1.4,0,2.8,0,4.5c3.1,0,5.9,0,8.7,0c5.8,0,11.7,0,17.5,0c3.7,0,5.8,2.1,5.8,5.7c0,22.6,0,45.2,0,67.8c0,0.3-0.1,0.6-0.1,1.1
		c-3.5,0-6.8,0-10.5,0c0-8.8,0-17.5,0-26.5c-71.2,0-142.2,0-213.3,0c0-3.7,0-7.1,0-10.7c71,0,142,0,213.1,0c0-9,0-17.7,0-26.5
		c-7,0-14,0-21.2,0c0,1.9,0,3.7,0,5.5c-0.2,8.7-7.3,15.6-15.9,15.7c-8.7,0.1-15.9-7-16.1-15.8c0-1.7,0-3.5,0-5.4
		c-7.1,0-14.1,0-21.4,0c0,1.7,0,3.3,0,4.9c-0.2,9.2-6.9,16.2-15.8,16.3c-8.7,0.1-15.8-6.9-16.2-16c-0.1-1.7,0-3.3,0-5.2
		c-7.1,0-14,0-21.1,0c-0.1,2.5-0.1,5-0.5,7.5c-1.1,8.1-8.2,14-16.2,13.7c-8.5-0.4-15.1-6.9-15.5-15.3c-0.1-1.9,0-3.8,0-5.9
		c-7.2,0-14.1,0-21.4,0c0,1.8,0,3.6,0,5.4C100.2,70,93,77.1,84.3,77c-8.6-0.1-15.7-7.1-15.9-15.8c0-1.7,0-3.5,0-5.4
		c-7.1,0-14,0-21.2,0c0,8.6,0,17.3,0,26.3c3.4,0,6.8,0,10.3,0c0,3.6,0,7,0,10.8c-3.3,0-6.8,0-10.4,0c0,48.2,0,96,0,144
		c30.1,0,60.2,0,90.4,0c0,3.6,0,7,0,10.6c-0.8,0-1.6,0.1-2.4,0.1c-30.7,0-61.3,0-92,0c-5,0-6.8-1.8-6.8-6.8c0-63.1,0-126.2,0-189.3
		c0-4.8,1.8-6.6,6.6-6.6C51.4,44.7,59.7,44.7,68.5,44.7z M89.8,50.3c0-3.5,0.1-7,0-10.5S87.5,34,84.5,34c-3.1-0.1-5.4,2.3-5.4,5.9
		c-0.1,6.7-0.1,13.5,0,20.2c0,3.5,2.2,5.7,5.3,5.8c3.2,0,5.3-2.2,5.4-5.8C89.9,56.8,89.8,53.6,89.8,50.3z M249.8,50.1
		c0-3.3,0-6.7,0-10c-0.1-3.8-2.3-6.2-5.4-6.2c-3.1,0.1-5.2,2.4-5.3,6.1c-0.1,6.6-0.1,13.2,0,19.7c0,3.8,2.2,6.1,5.4,6.1
		s5.2-2.3,5.3-6C249.9,56.6,249.8,53.4,249.8,50.1z M143.1,50.1c0-3.4,0-6.8,0-10.2c-0.1-3.5-2.2-5.8-5.2-5.8
		c-3.1-0.1-5.4,2.3-5.4,5.9c0,6.7,0,13.5,0,20.2c0,3.5,2.1,5.7,5.2,5.8c3.3,0,5.3-2.2,5.4-5.8C143.1,56.7,143.1,53.4,143.1,50.1z
		 M196.5,50c0-3.4,0-6.8,0-10.2c-0.1-3.4-2.3-5.7-5.3-5.7s-5.2,2.3-5.3,5.8c-0.1,6.8-0.1,13.7,0,20.5c0,3.5,2.1,5.7,5.3,5.7
		c3.1,0,5.3-2.2,5.3-5.7C196.5,56.8,196.5,53.4,196.5,50z"/>
	<path class="st0" d="M292.5,151.2c-3.6,0-7,0-10.7,0c0-3.5,0-6.9,0-10.4c-10.7,0-21.2,0-32,0c0,1.1,0,2.1,0,3c0,17.8,0,35.7,0,53.5
		c0,5.6-1.8,7.3-7.3,7.3c-16.5,0-33,0-49.5,0c-5.5,0-7.2-1.7-7.2-7.2c0-17.8,0-35.7,0-53.5c0-1,0-2,0-3.2c-10.7,0-21.1,0-31.8,0
		c0,42.5,0,85,0,127.7c42.5,0,85,0,127.7,0c0-35.5,0-70.9,0-106.4c3.6,0,7,0,10.7,0c0,0.9,0,1.8,0,2.7c0,35.8,0,71.7,0,107.5
		c0,5.3-1.8,7-7,7c-45.1,0-90.2,0-135.2,0c-5.3,0-7.1-1.8-7.1-7c0-45.1,0-90.2,0-135.3c0-5.3,1.9-7.1,7-7.1
		c31.1,0,62.2-0.1,93.2-0.1c14,0,28,0.1,42,0.1c5.4,0,7.1,1.8,7.1,7.2C292.5,141.8,292.5,146.4,292.5,151.2z M239,193.8
		c0-17.8,0-35.3,0-52.8c-14.2,0-28.3,0-42.3,0c0,17.7,0,35.3,0,52.8C210.8,193.8,224.8,193.8,239,193.8z"/>
	<path class="st0" d="M84.3,156.7c-4.9,0-9.8,0-14.7,0c-4.4,0-6.5-2-6.5-6.4c0-10,0-20,0-30c0-4.3,2.1-6.3,6.3-6.4
		c10.1,0,20.2,0,30.2,0c4.1,0,6.2,2.1,6.2,6.1c0.1,10.2,0.1,20.3,0,30.5c0,4-2.1,6.1-6.3,6.1C94.5,156.8,89.4,156.7,84.3,156.7z
		 M74,145.8c7.1,0,14,0,21,0c0-7,0-13.9,0-20.9c-7.1,0-14,0-21,0C74,132,74,138.8,74,145.8z"/>
	<path class="st0" d="M84.5,172.7c5.1,0,10.2,0,15.2,0c4,0,6.1,2,6.1,6c0.1,10.2,0.1,20.3,0,30.5c0,4.1-2.1,6.2-6.2,6.2
		c-10.2,0-20.3,0-30.5,0c-3.9,0-6.1-2.1-6.1-6c-0.1-10.2-0.1-20.5,0-30.7c0-3.9,2.1-5.8,5.9-5.9C74.2,172.7,79.3,172.7,84.5,172.7z
		 M74,204.5c7.1,0,14,0,20.9,0c0-7.1,0-14.1,0-21c-7.1,0-13.9,0-20.9,0C74,190.6,74,197.5,74,204.5z"/>
	<path class="st0" d="M159.1,124.8c-10.8,0-21.3,0-31.9,0c0,7.2,0,14,0,21.2c3.5,0,6.9,0,10.4,0c0,3.6,0,7,0,10.8
		c-3.1,0-6.1,0-9.2,0c-2.2,0-4.3,0.1-6.5,0c-3.5-0.2-5.5-2.3-5.5-5.8c0-10.4,0-20.8,0-31.3c0-3.4,2-5.6,5.4-5.6
		c10.6-0.1,21.2-0.1,31.8,0c3.4,0,5.3,2.2,5.4,5.6C159.1,121.2,159.1,122.7,159.1,124.8z"/>
	<path class="st0" d="M137.7,172.8c0,3.5,0,6.9,0,10.5c-3.5,0-6.9,0-10.4,0c0,7.2,0,14.1,0,21.3c3.4,0,6.8,0,10.4,0
		c0,3.6,0,7,0,10.6c-5.6,0-11.3,0.2-16.9-0.1c-2.5-0.1-4.3-2.5-4.3-5.1c-0.1-10.7-0.1-21.5,0-32.2c0-2.7,1.9-4.9,4.4-5
		C126.4,172.7,132,172.8,137.7,172.8z"/>
	<path class="st0" d="M223.1,124.6c0-1.8-0.1-3.5,0-5.1c0.2-3.2,2.2-5.4,5.4-5.4c10.6-0.1,21.3-0.1,31.9,0c3.1,0,5.1,2.1,5.3,5.2
		c0.1,1.7,0,3.4,0,5.3C251.6,124.6,237.5,124.6,223.1,124.6z"/>
	<path class="st0" d="M169.9,124.5c0-2.1-0.2-4.1,0-6.1c0.3-2.8,2.6-4.5,5.9-4.5c6.5,0,13,0,19.5,0c3.6,0,7.2,0,10.7,0
		c4.4,0,6.3,2.1,6.4,6.5c0,1.3,0,2.6,0,4.1C198.3,124.5,184.3,124.5,169.9,124.5z"/>
	<path class="st0" d="M164.6,236.6c0-3.5,0-6.8,0-10.4c10.5,0,21.1,0,31.7,0c0,3.5,0,6.8,0,10.4
		C185.8,236.6,175.3,236.6,164.6,236.6z"/>
	<path class="st0" d="M217.7,247.5c0,3.5,0,6.8,0,10.3c-10.6,0-21,0-31.7,0c0-3.3,0-6.8,0-10.3C196.6,247.5,207,247.5,217.7,247.5z"
		/>
	<path class="st0" d="M164.6,247.4c3.5,0,6.8,0,10.3,0c0,3.4,0,6.8,0,10.3c-3.4,0-6.8,0-10.3,0C164.6,254.4,164.6,251,164.6,247.4z"
		/>
</g>
</svg>
