<?xml version="1.0" encoding="utf-8"?>
<!-- Generator: Adobe Illustrator 25.3.1, SVG Export Plug-In . SVG Version: 6.00 Build 0)  -->
<svg version="1.1" id="Camada_1" xmlns="http://www.w3.org/2000/svg" xmlns:xlink="http://www.w3.org/1999/xlink" x="0px" y="0px"
	 viewBox="0 0 123 123" style="enable-background:new 0 0 123 123;" xml:space="preserve">
<style type="text/css">
	.st0{fill:none;stroke:#E01747;stroke-width:2.9999;stroke-miterlimit:9.9996;}
	.st1{fill:#E01747;}
</style>
<g id="BACKGROUND">
</g>
<g id="OBJECTS">
	<g>
		<ellipse class="st0" cx="61.5" cy="61.5" rx="60" ry="60"/>
		<path class="st1" d="M92.4,43.9c-2.1,1-4.4,1.6-6.8,1.9c2.5-1.5,4.3-3.8,5.2-6.6c-2.3,1.4-4.9,2.4-7.6,2.9
			c-2.2-2.3-5.3-3.8-8.7-3.8c-6.6,0-11.9,5.3-11.9,11.9c0,0.9,0.1,1.8,0.3,2.7c-9.9-0.5-18.7-5.2-24.6-12.5c-1,1.8-1.6,3.8-1.6,6
			c0,4.1,2.1,7.8,5.3,9.9c-2-0.1-3.8-0.6-5.4-1.5c0,0,0,0.1,0,0.2c0,5.8,4.1,10.6,9.6,11.7c-1,0.3-2,0.4-3.1,0.4
			c-0.8,0-1.5-0.1-2.2-0.2c1.5,4.7,5.9,8.2,11.1,8.3c-4.1,3.2-9.2,5.1-14.8,5.1c-1,0-1.9-0.1-2.8-0.2c5.3,3.4,11.5,5.4,18.3,5.4
			c21.9,0,33.9-18.2,33.9-33.9c0-0.5,0-1,0-1.5C88.8,48.4,90.8,46.3,92.4,43.9L92.4,43.9z"/>
	</g>
</g>
<g id="DESIGNED_BY_FREEPIK">
</g>
</svg>
