<?xml version="1.0" encoding="utf-8"?>
<!-- Generator: Adobe Illustrator 25.3.1, SVG Export Plug-In . SVG Version: 6.00 Build 0)  -->
<svg version="1.1" id="Camada_1" xmlns="http://www.w3.org/2000/svg" xmlns:xlink="http://www.w3.org/1999/xlink" x="0px" y="0px"
	 viewBox="0 0 756.9 756.9" style="enable-background:new 0 0 756.9 756.9;" xml:space="preserve">
<style type="text/css">
	.st0{fill-rule:evenodd;clip-rule:evenodd;fill:#E01747;}
</style>
<g id="Background">
</g>
<path class="st0" d="M378.5,39.7c-187.1,0-338.8,151.7-338.8,338.8s151.7,338.8,338.8,338.8s338.8-151.7,338.8-338.8
	S565.6,39.7,378.5,39.7z M565.7,306c0.2,3.8,0.3,7.7,0.3,11.6c0,118.9-90.5,256-256,256c-50.8,0-98.1-14.9-138-40.4
	c7.1,0.8,14.2,1.2,21.5,1.2c42.1,0,80.9-14.4,111.7-38.5c-39.4-0.7-72.6-26.8-84.1-62.5c5.5,1,11.1,1.6,16.9,1.6
	c8.2,0,16.1-1.1,23.7-3.2c-41.2-8.2-72.2-44.6-72.2-88.2c0-0.3,0-0.7,0-1.1c12.2,6.8,26,10.8,40.8,11.3c-24.1-16.1-40-43.7-40-74.9
	c0-16.5,4.5-31.9,12.2-45.2c44.4,54.4,110.7,90.2,185.5,94c-1.5-6.6-2.3-13.4-2.3-20.5c0-49.7,40.3-90,90-90
	c25.9,0,49.3,10.9,65.7,28.4c20.5-4,39.7-11.5,57.1-21.8c-6.8,21-21,38.7-39.6,49.8c18.2-2.2,35.6-7,51.7-14.2
	C598.5,277.5,583.3,293.3,565.7,306z"/>
</svg>
