<?xml version="1.0" encoding="utf-8"?>
<!-- Generator: Adobe Illustrator 25.3.1, SVG Export Plug-In . SVG Version: 6.00 Build 0)  -->
<svg version="1.1" id="Camada_1" xmlns="http://www.w3.org/2000/svg" xmlns:xlink="http://www.w3.org/1999/xlink" x="0px" y="0px"
	 viewBox="0 0 422 344" style="enable-background:new 0 0 422 344;" xml:space="preserve">
<style type="text/css">
	.st0{fill:#E01747;}
</style>
<g>
	<path class="st0" d="M198.4,108.1c-4.5,0-8.7-0.1-12.9,0.1c-1,0-2.1,0.9-2.8,1.6c-9.3,9.9-18.6,19.8-27.9,29.7
		c-5.4,5.7-12.6,6.7-19,2.6c-6.2-3.9-8.4-11.2-5.5-18.4c0.8-1.9,1.9-3.7,3-5.5c5.8-8.9,12-17.7,17.5-26.8
		c6.2-10.1,14.4-17,25.8-20.6c15-4.8,29.8-10.1,45.4-12.5c5.7-0.9,11.4-1,17.2-1.3c11.8-0.5,23.6-1,35.5-1.4c1.6-0.1,2.6-0.6,3.4-2
		c0.9-1.6,1.9-3.1,3-4.6c3.8-5.4,11-6.9,16.3-2.9c12.5,9.4,25,18.9,37.3,28.5c4.8,3.7,6,10.6,2.3,15.5c-4.5,5.9-9.6,11.2-14.7,16.6
		c-2,2.2-5.3,1.8-7.1-0.3c-1.9-2.1-1.6-4.9,0.6-7.2c4.1-4.4,8.1-8.8,12.1-13.3c1.6-1.7,1.3-3.1-0.6-4.6
		c-11.5-8.8-23.1-17.6-34.5-26.4c-1.8-1.4-3-1.2-4.2,0.7c-1.3,2.2-2.8,4.3-4.2,6.5c-1.3,2.2-3.2,3.1-5.8,3.2
		c-13.8,0.5-27.6,1.2-41.5,1.5c-14.5,0.3-28.3,3.9-42,8.2c-6.6,2.1-13,4.6-19.6,6.7c-5.4,1.8-9.6,5-12.7,9.7
		c-7.5,11.2-14.9,22.5-22.3,33.8c-0.4,0.6-0.7,1.2-0.9,1.8c-1.2,2.9-0.7,5,1.4,6.4c2.4,1.5,4.4,1.2,6.6-1.2
		c9.6-10.3,19.3-20.5,28.9-30.8c2.2-2.4,4.6-3.4,7.9-3.5c9.7-0.2,19.5-0.6,29.2-1c1.3-0.1,2.6-0.5,3.8-1c7-3.4,13.9-6.9,20.8-10.3
		c2-1,3.9-0.9,5.6,0.5c1.6,1.3,2.4,3.1,1.6,4.9c-0.7,1.5-2,3.1-3.5,3.8c-10.3,5.6-20.7,10.9-31.1,16.4c-1,0.5-1.9,1.1-2.7,1.7
		c-1.1,0.9-2.1,1.9-2.9,3c-1.4,1.9-1.9,4.2-0.6,6.3c1.4,2.3,3.8,2.8,6.1,2.3c2.6-0.5,5.2-1.3,7.7-2.1c6.9-2.1,13.9-4.2,20.7-6.5
		c7-2.3,14-2.4,21.2-1.4c5.2,0.7,10.4,0.6,15.7,0.8c0.5,0,1-0.1,1.5-0.1c3.2,0,5.5,2,5.5,4.9c0.1,2.8-2,5.1-5,5.1
		c-6.1,0-12.4,0.1-18.4-0.7c-6.6-0.9-12.9-0.6-19.2,1.5c-8.5,2.8-17.1,5.5-25.8,7.8c-3,0.8-6.5,0.8-9.6,0.1
		c-10.2-2.5-14.3-13.6-8.7-22.9C196.9,110.2,197.7,109.1,198.4,108.1z"/>
	<path class="st0" d="M223.5,235.9c4.5,0,9,0.1,13.4-0.1c0.8,0,1.7-0.9,2.3-1.6c9.4-9.9,18.7-19.9,28.1-29.9
		c5.1-5.4,12.2-6.3,18.4-2.6c6.1,3.6,8.6,10.6,6.2,17.5c-0.8,2.2-1.9,4.3-3.1,6.2c-6.4,9.8-13,19.6-19.3,29.5
		c-5.4,8.3-12.4,14.2-22,17.4c-15.7,5.3-31.3,11.1-47.7,13.3c-10.1,1.3-20.4,1.3-30.7,1.9c-7.4,0.4-14.8,0.6-22.2,1
		c-1,0.1-2.1,0.8-2.7,1.6c-1.3,1.5-2.2,3.3-3.4,5c-3.8,5.4-11.1,6.8-16.3,2.8c-12.5-9.4-25-18.9-37.3-28.5
		c-4.8-3.7-5.7-10.3-2.3-15.6c4-6.3,9-11.8,14.7-16.6c2.3-1.9,5.4-1.7,7.2,0.4c1.8,2.1,1.5,4.9-0.6,7.2c-4.1,4.4-8.1,8.8-12.1,13.3
		c-1.6,1.8-1.2,3.1,0.7,4.5c11.5,8.8,23.1,17.6,34.5,26.4c1.9,1.5,3,1.1,4.2-0.8c1.3-2.2,2.9-4.3,4.2-6.5c1.3-2.2,3.2-3.1,5.8-3.2
		c14.2-0.5,28.3-1.2,42.5-1.6c14.1-0.4,27.5-3.9,40.7-8.1c6.7-2.1,13.3-4.7,20.1-6.9c4.9-1.6,8.9-4.5,11.8-8.8
		c7.8-11.5,15.4-23.2,23-34.8c0.5-0.7,0.8-1.5,1-2.3c0.8-2.6,0.3-4.4-1.7-5.7c-2.3-1.4-4.3-1.1-6.2,0.9c-9.9,10.5-19.8,21-29.6,31.6
		c-1.9,2.1-4,3-6.8,3c-9.8,0.3-19.7,0.6-29.5,1c-1.6,0.1-3.2,0.6-4.7,1.3c-6.8,3.3-13.6,6.7-20.4,10.1c-2.1,1-4.3,1-5.7-0.8
		c-1-1.3-1.7-3.5-1.3-4.9c0.4-1.5,2.1-2.9,3.6-3.7c10.2-5.5,20.5-10.7,30.7-16.2c2.1-1.1,4-2.8,5.6-4.5c1.7-1.9,2.3-4.4,0.9-6.7
		c-1.5-2.4-4-2.8-6.4-2.2c-5.1,1.3-10.2,2.9-15.3,4.5c-3.4,1-6.9,2-10.2,3.2c-8.4,3-16.8,3.4-25.6,2c-4.5-0.7-9.1-0.5-13.7-0.6
		c-0.7,0-1.3,0.1-2,0.1c-2.9-0.1-5-2-5.2-4.7c-0.2-2.8,1.8-5.2,4.9-5.2c6.2,0,12.5-0.1,18.7,0.7c6.5,0.8,12.7,0.6,18.9-1.5
		c8.5-2.8,17.1-5.5,25.8-7.8c3.1-0.8,6.7-0.8,9.8-0.1c9.7,2.4,14,12.7,9.2,21.8C225.5,233.2,224.4,234.5,223.5,235.9z"/>
	<path class="st0" d="M245.9,163.7c-0.1,4.7-1.8,9.9-5.7,13.9c-7.8,8.1-15.8,16-23.8,23.9c-3.2,3.2-7.8,3.1-11,0
		c-7.8-7.7-15.7-15.4-23.3-23.4c-7.8-8.2-8.2-20.3-1.5-29.1c6.8-8.9,18.6-11.5,28.7-6.1c1.4,0.7,2.4,0.5,3.6-0.1
		C228,135,246,145.8,245.9,163.7z M210.7,192.6c7.6-7.5,15.3-14.6,22.5-22.2c4.3-4.6,3.5-12.1-1.1-16.5c-4.5-4.5-11.5-4.8-16.6-0.8
		c-4,3.2-5.2,3.2-9.1,0c-5.2-4.1-12.4-3.7-17,1.1c-4.6,4.7-4.8,12.2-0.3,17C196.2,178.4,203.6,185.5,210.7,192.6z"/>
	<path class="st0" d="M127.1,229c0,2.7-2.1,4.9-4.8,5c-2.7,0.1-5.1-2.3-5.1-5c0-2.8,2.4-5,5.2-4.9C125,224.1,127.1,226.2,127.1,229z
		"/>
	<path class="st0" d="M294.8,115c0-2.7,2.2-4.9,4.9-4.9c2.7,0,5.1,2.3,5,5.1c0,2.8-2.4,5-5.2,4.9C296.9,119.9,294.8,117.7,294.8,115
		z"/>
</g>
</svg>
