<?xml version="1.0" encoding="utf-8"?>
<!-- Generator: Adobe Illustrator 25.3.1, SVG Export Plug-In . SVG Version: 6.00 Build 0)  -->
<svg version="1.1" id="Camada_1" xmlns="http://www.w3.org/2000/svg" xmlns:xlink="http://www.w3.org/1999/xlink" x="0px" y="0px"
	 viewBox="0 0 349 356" style="enable-background:new 0 0 349 356;" xml:space="preserve">
<style type="text/css">
	.st0{fill:#E01747;}
</style>
<g>
	<path class="st0" d="M173.2,248c-21.7-0.2-42.5-7.2-61.8-19.2c-19.8-12.3-36.3-28-50.1-46.8c-2.5-3.4-2.5-4.8,0.1-8.3
		c18.3-24.4,40.5-44.2,68.8-56.3c31.1-13.4,62.1-12.6,92.6,1.7c26.7,12.5,47.9,31.7,65.3,55.2c1.9,2.6,2,4.4,0.2,6.9
		c-20.1,27-44.7,48.4-76.7,60.2C199.6,245.8,187.2,248,173.2,248z M177.1,118c-16.6,0-30.1,3.1-43,8.6
		c-25.2,10.9-45.2,28.4-62.2,49.7c-1.1,1.3-0.9,2.2,0.1,3.4c14.6,18.4,31.7,34,52.5,45c31.7,16.8,63.7,17.8,96.1,2
		c22.7-11.1,40.9-27.5,56.5-47.1c1.1-1.3,0.9-2.2-0.1-3.4c-12-15.1-25.7-28.4-42-38.9C216.6,125.5,196.7,118.2,177.1,118z"/>
	<path class="st0" d="M169.5,71.2c0-5.2,0-10.3,0-15.5c0-3.5,1.9-5.7,4.9-5.8c3-0.1,5.1,2.2,5.1,5.8c0,10.5,0,21,0,31.4
		c0,3.5-2,5.7-4.9,5.8c-3,0.1-5.1-2.2-5.1-5.8C169.5,81.9,169.5,76.6,169.5,71.2z"/>
	<path class="st0" d="M169.5,284.5c0-5.2,0-10.5,0-15.7c0-3.6,2.1-5.8,5.1-5.8c2.9,0.1,4.9,2.3,4.9,5.8c0,10.5,0,21,0,31.4
		c0,3.6-2.1,5.9-5.1,5.8c-2.9-0.1-4.9-2.3-4.9-5.8C169.5,295,169.5,289.8,169.5,284.5z"/>
	<path class="st0" d="M106.4,114.5c-1,1.4-1.7,3.3-3.1,3.9c-1.3,0.7-3.3,0.3-4.9,0.2c-0.5,0-1-0.6-1.4-1
		c-6.9-6.9-13.8-13.7-20.6-20.6c-1.4-1.4-2.5-3.3-1.4-5.2c0.8-1.4,2.3-3,3.8-3.4c1.3-0.4,3.4,0.3,4.4,1.3c7.1,6.9,14.1,13.9,21,21
		C105.1,111.6,105.5,113,106.4,114.5z"/>
	<path class="st0" d="M249.1,119.4c-4.6,0-7-4-5.3-7.3c0.3-0.5,0.6-1,1-1.4c7-7,13.9-14.1,21.1-20.9c1-1,2.9-1.6,4.3-1.4
		c4,0.4,5.6,5,3,8.1c-1.7,2-3.7,3.8-5.6,5.7c-5,5-10,10-15,15C251.3,118.2,249.8,118.9,249.1,119.4z"/>
	<path class="st0" d="M79.4,273.5c-1.5-1.2-3.2-2.2-4.2-3.6c-1.2-1.8-0.7-3.9,0.8-5.5c2.2-2.3,4.4-4.5,6.7-6.7
		c4.7-4.7,9.4-9.4,14.1-14.1c2.2-2.1,4.3-2.5,6.5-1.2c3,1.8,3.3,5.4,0.6,8.3c-4.2,4.3-8.6,8.6-12.9,12.9c-2.5,2.5-4.9,5-7.4,7.4
		C82.6,271.8,81.2,272.4,79.4,273.5z"/>
	<path class="st0" d="M247.8,241c1.8,1,3.2,1.5,4.1,2.4c6.9,6.8,13.8,13.7,20.7,20.6c2.3,2.4,2.4,5.3,0.3,7.3
		c-2.1,2.1-5,2.1-7.3-0.3c-7-6.9-13.9-13.9-20.8-20.8c-1.6-1.6-2.3-3.7-1-5.7C244.6,243.2,246.4,242.2,247.8,241z"/>
	<path class="st0" d="M129.3,178.5c0.3-2.9,0.4-5.3,0.8-7.7c0.5-3.4,2.7-5.4,5.6-5.1c3,0.3,4.8,2.7,4.3,6.2
		c-1.1,7.4-0.3,14.4,3,21.2c7.3,15.2,24.4,23.1,40.6,18.7c16.2-4.4,27.2-19.8,25.9-36.4c-1.7-22.5-24.1-37.6-45.6-30.7
		c-0.7,0.2-1.4,0.5-2.1,0.7c-2.9,0.7-5.4-0.6-6.2-3.2c-0.8-2.6,0.3-5.4,3.1-6.2c4.5-1.2,9-2.6,13.6-2.9
		c26.8-1.3,48.3,20.3,47.2,47.1c-0.9,22.4-18.9,40.9-41.7,42.7c-22.1,1.7-42.9-13.8-47.3-35.5C129.9,184.4,129.7,181.2,129.3,178.5z
		"/>
	<path class="st0" d="M174.4,198c-11,0-20-9.1-19.9-20.1c0.1-11,9.1-19.9,20.2-19.9c10.9,0.1,19.8,9.1,19.8,20
		C194.5,189,185.5,198,174.4,198z M184.5,177.9c0-5.5-4.6-10-10-9.9c-5.5,0-10,4.6-9.9,10c0,5.5,4.6,10,10,9.9
		C180,188,184.5,183.4,184.5,177.9z"/>
	<path class="st0" d="M144.5,158c-2.8,0-5.1-2.3-5-5.1c0.1-2.7,2.3-4.9,5-4.9c2.8,0,5.1,2.3,5,5.1C149.4,155.8,147.2,158,144.5,158z
		"/>
</g>
</svg>
