<?xml version="1.0" encoding="utf-8"?>
<!-- Generator: Adobe Illustrator 25.3.1, SVG Export Plug-In . SVG Version: 6.00 Build 0)  -->
<svg version="1.1" id="Camada_1" xmlns="http://www.w3.org/2000/svg" xmlns:xlink="http://www.w3.org/1999/xlink" x="0px" y="0px"
	 viewBox="0 0 756.9 756.9" style="enable-background:new 0 0 756.9 756.9;" xml:space="preserve">
<style type="text/css">
	.st0{fill:#E01747;}
</style>
<g id="Background">
</g>
<g>
	<path class="st0" d="M378.5,39.7c-187.1,0-338.8,151.7-338.8,338.8s151.7,338.8,338.8,338.8s338.8-151.7,338.8-338.8
		S565.6,39.7,378.5,39.7z M604.3,378.4c0,0,0,73.5-9.4,108.7c-5.2,19.4-20.5,34.7-39.9,39.9c-35.2,9.4-176.5,9.4-176.5,9.4
		s-141.3,0-176.5-9.4c-19.4-5.2-34.7-20.5-39.9-39.9c-9.4-35.2-9.4-108.7-9.4-108.7s0-73.5,9.4-108.7c5.2-19.4,20.5-34.7,39.9-39.9
		c35.2-9.4,176.5-9.4,176.5-9.4s141.3,0,176.5,9.4c19.4,5.2,34.7,20.5,39.9,39.9C604.4,305,604.3,378.4,604.3,378.4z"/>
	<polygon class="st0" points="333.3,446.2 450.7,378.5 333.3,310.7 	"/>
</g>
</svg>
